M48
INCH
T01C0.0191
T02C0.032
T03C0.0354
T04C0.0394
T05C0.0433
T06C0.0512
T07C0.1083
%
T01
X+012205Y+019783
X+012205Y+019390
X+012205Y+018996
X+012205Y+018012
X+011811Y+018012
X+012011Y+017298
X+012598Y+018012
X+012992Y+018012
X+013954Y+018602
X+012205Y+020669
X+011811Y+020669
X+011417Y+020669
X+011024Y+020669
X+009449Y+020276
X+009329Y+015610
X+008563Y+015157
X+008366Y+013698
X+011266Y+013235
X+011704Y+012985
X+012205Y+015354
X+016766Y+017798
X+018799Y+016732
X+019454Y+014047
X+024579Y+015548
X+024954Y+015173
X+025454Y+014923
X+025204Y+014485
X+025204Y+013985
X+025829Y+013985
X+027264Y+014173
X+028266Y+014048
X+028248Y+014567
X+028891Y+014110
X+029266Y+013673
X+029266Y+013173
X+029266Y+012673
X+028839Y+012106
X+028329Y+011548
X+027165Y+010658
X+024579Y+009110
X+019016Y+007485
X+015391Y+008298
X+007087Y+005512
X+019516Y+019610
X+018641Y+021610
X+019704Y+022235
X+021442Y+021185
X+021766Y+022048
X+024329Y+019985
X+025016Y+020110
X+026454Y+021173
X+027016Y+021360
X+027559Y+022835
X+026641Y+024110
X+028766Y+021423
X+027868Y+019587
X+028204Y+018985
X+028204Y+018485
X+029079Y+018235
X+027329Y+017673
X+026891Y+017860
X+024954Y+015923
X+024516Y+016298
X+023704Y+018423
X+029266Y+014923
X+032329Y+014860
X+034141Y+012235
X+034016Y+011673
X+034579Y+011173
X+034766Y+010673
X+036016Y+012795
X+038704Y+012485
X+042126Y+012985
X+042126Y+011024
X+040945Y+007087
X+035079Y+006860
X+032579Y+008735
X+032016Y+009860
X+031329Y+009360
X+031454Y+008048
X+031335Y+017929
X+031335Y+018429
X+032579Y+019587
X+033829Y+020235
X+032704Y+021985
X+033268Y+022736
X+032266Y+022985
X+030579Y+019985
X+034579Y+017548
X+038016Y+018110
X+042204Y+018798
X+038780Y+023130
X+036024Y+024409
X+020141Y+025360
T02
X+033079Y+015548
X+033079Y+016548
T03
X+040012Y+005817
X+039012Y+005817
X+039012Y+004817
X+040012Y+004817
X+038012Y+004817
X+038012Y+005817
X+037012Y+005817
X+037012Y+004817
X+036012Y+004817
X+036012Y+005817
X+035012Y+005817
X+035012Y+004817
X+034012Y+004817
X+034012Y+005817
X+033012Y+005817
X+033012Y+004817
X+032012Y+004817
X+032012Y+005817
X+031012Y+005817
X+031012Y+004817
X+030012Y+004817
X+030012Y+005817
X+029012Y+005817
X+029012Y+004817
X+028012Y+004817
X+028012Y+005817
X+027012Y+005817
X+027012Y+004817
X+026012Y+004817
X+026012Y+005817
X+025012Y+005817
X+025012Y+004817
X+024012Y+004817
X+024012Y+005817
X+023012Y+005817
X+023012Y+004817
X+022012Y+004817
X+022012Y+005817
X+021012Y+005817
X+021012Y+004817
T04
X+040551Y+012992
X+039551Y+012992
X+039551Y+013992
X+039551Y+014992
X+039551Y+015992
X+040551Y+015992
X+040551Y+014992
X+040551Y+013992
X+040551Y+016992
X+039551Y+016992
T05
X+031873Y+020544
X+030543Y+023622
X+029543Y+023622
X+028543Y+023622
X+028543Y+024622
X+029543Y+024622
X+030543Y+024622
X+027280Y+025394
X+026280Y+025394
X+025280Y+025394
X+024122Y+025394
X+023122Y+025394
X+021957Y+025394
X+020957Y+025394
X+017055Y+024441
X+016055Y+024441
X+015055Y+024441
X+014055Y+024441
X+013055Y+024441
X+012055Y+024441
X+011055Y+024441
X+010055Y+024441
X+009055Y+024441
X+009055Y+023441
X+009055Y+022441
X+010055Y+022441
X+011055Y+022441
X+011055Y+023441
X+010055Y+023441
X+012055Y+023441
X+013055Y+023441
X+014055Y+023441
X+014055Y+022441
X+013055Y+022441
X+012055Y+022441
X+015055Y+022441
X+016055Y+022441
X+017055Y+022441
X+017055Y+023441
X+016055Y+023441
X+015055Y+023441
X+006079Y+015110
X+006079Y+014110
X+006079Y+013110
X+005079Y+013110
X+005079Y+014110
X+005079Y+015110
X+005079Y+012110
X+005079Y+011110
X+005079Y+010110
X+006079Y+010110
X+006079Y+011110
X+006079Y+012110
X+006079Y+009110
X+006079Y+008110
X+006079Y+007110
X+005079Y+007110
X+005079Y+008110
X+005079Y+009110
X+008929Y+007480
X+009929Y+007480
X+009929Y+006480
X+008929Y+006480
X+008929Y+005480
X+009929Y+005480
X+010929Y+005480
X+011929Y+005480
X+012929Y+005480
X+013929Y+005480
X+014929Y+005480
X+015929Y+005480
X+016929Y+005480
X+016929Y+006480
X+016929Y+007480
X+015929Y+007480
X+015929Y+006480
X+014929Y+006480
X+014929Y+007480
X+013929Y+007480
X+013929Y+006480
X+012929Y+006480
X+012929Y+007480
X+011929Y+007480
X+011929Y+006480
X+010929Y+006480
X+010929Y+007480
X+038551Y+008268
X+039551Y+008268
X+039551Y+009268
X+038551Y+009268
X+038551Y+010268
X+039551Y+010268
X+040551Y+010268
X+040551Y+009268
X+040551Y+008268
X+040551Y+019685
X+040551Y+020685
X+040551Y+021685
X+039551Y+021685
X+038551Y+021685
X+038551Y+020685
X+039551Y+020685
X+039551Y+019685
X+038551Y+019685
X+035810Y+020544
X+038870Y+025394
X+039870Y+025394
T06
X+005315Y+022047
X+005315Y+020079
X+005329Y+018235
X+005329Y+017235
X+005329Y+016235
T07
X+005315Y+005315
X+019095Y+005317
X+019095Y+024608
X+005315Y+024606
X+041930Y+024608
X+041930Y+005317
T00
M30
