G04 DipTrace 2.4.0.2*
%INTopSilk.gbr*%
%MOIN*%
%ADD10C,0.0098*%
%ADD21C,0.0063*%
%ADD22C,0.0315*%
%ADD44C,0.0164*%
%ADD47C,0.0154*%
%ADD106C,0.0077*%
%ADD110C,0.0108*%
%FSLAX44Y44*%
G04*
G70*
G90*
G75*
G01*
%LNTopSilk*%
%LPD*%
D22*
X31221Y20535D3*
X32345Y21155D2*
D10*
G02X32345Y19934I2383J-610D01*
G01*
X9823Y19177D2*
X10452D1*
X9823Y19252D2*
X10452D1*
X9823D2*
Y19016D1*
X10452Y19252D2*
Y19016D1*
Y17339D2*
X9823D1*
X10452Y17264D2*
X9823D1*
X10452D2*
Y17500D1*
X9823Y17264D2*
Y17500D1*
Y15535D2*
X10452D1*
X9823Y15610D2*
X10452D1*
X9823D2*
Y15374D1*
X10452Y15610D2*
Y15374D1*
X14389Y15469D2*
X13760D1*
X14389Y15394D2*
X13760D1*
X14389D2*
Y15630D1*
X13760Y15394D2*
Y15630D1*
X38760Y7244D2*
Y6732D1*
X24742Y19178D2*
Y18667D1*
X24071Y23898D2*
Y24527D1*
X23996Y23898D2*
Y24527D1*
Y23898D2*
X24232D1*
X23996Y24527D2*
X24232D1*
X21185Y24737D2*
Y24108D1*
X21259Y24737D2*
Y24108D1*
Y24737D2*
X21023D1*
X21259Y24108D2*
X21023D1*
X35882Y25040D2*
Y25669D1*
X35807Y25040D2*
Y25669D1*
Y25040D2*
X36043D1*
X35807Y25669D2*
X36043D1*
X33445Y24807D2*
X34074D1*
X33445Y24882D2*
X34074D1*
X33445D2*
Y24646D1*
X34074Y24882D2*
Y24646D1*
X7146Y13504D2*
X6831D1*
X7146Y11142D2*
X6831D1*
X7146Y6457D2*
X6831D1*
X7146Y8819D2*
X6831D1*
X17555Y25032D2*
X8555D1*
Y26031D1*
X17555D1*
Y25032D1*
X16897Y26031D2*
Y27827D1*
X17055Y28331D1*
X17212Y26031D2*
Y27827D1*
X17055Y28331D1*
X15897Y26031D2*
Y27827D1*
X16055Y28331D1*
X16212Y26031D2*
Y27827D1*
X16055Y28331D1*
X14897Y26031D2*
Y27827D1*
X15055Y28331D1*
X15212Y26031D2*
Y27827D1*
X15055Y28331D1*
X13898Y26031D2*
Y27827D1*
X14055Y28331D1*
X14213Y26031D2*
Y27827D1*
X14055Y28331D1*
X12898Y26031D2*
Y27827D1*
X13055Y28331D1*
X13213Y26031D2*
Y27827D1*
X13055Y28331D1*
X11898Y26031D2*
Y27827D1*
X12055Y28331D1*
X12213Y26031D2*
Y27827D1*
X12055Y28331D1*
X10898Y26031D2*
Y27827D1*
X11055Y28331D1*
X11213Y26031D2*
Y27827D1*
X11055Y28331D1*
X9898Y26031D2*
Y27827D1*
X10055Y28331D1*
X10213Y26031D2*
Y27827D1*
X10055Y28331D1*
X8898Y26031D2*
Y27827D1*
X9056Y28331D1*
X9213Y26031D2*
Y27827D1*
X9056Y28331D1*
X8429Y4889D2*
X17429D1*
Y3890D1*
X8429D1*
Y4889D1*
X9087Y3890D2*
Y2094D1*
X8930Y1591D1*
X8772Y3890D2*
Y2094D1*
X8930Y1591D1*
X10087Y3890D2*
Y2094D1*
X9929Y1591D1*
X9772Y3890D2*
Y2094D1*
X9929Y1591D1*
X11087Y3890D2*
Y2094D1*
X10929Y1591D1*
X10772Y3890D2*
Y2094D1*
X10929Y1591D1*
X12087Y3890D2*
Y2094D1*
X11929Y1591D1*
X11772Y3890D2*
Y2094D1*
X11929Y1591D1*
X13087Y3890D2*
Y2094D1*
X12929Y1591D1*
X12772Y3890D2*
Y2094D1*
X12929Y1591D1*
X14087Y3890D2*
Y2094D1*
X13929Y1591D1*
X13772Y3890D2*
Y2094D1*
X13929Y1591D1*
X15086Y3890D2*
Y2094D1*
X14929Y1591D1*
X14771Y3890D2*
Y2094D1*
X14929Y1591D1*
X16086Y3890D2*
Y2094D1*
X15929Y1591D1*
X15771Y3890D2*
Y2094D1*
X15929Y1591D1*
X17086Y3890D2*
Y2094D1*
X16929Y1591D1*
X16771Y3890D2*
Y2094D1*
X16929Y1591D1*
X41142Y19185D2*
X42142D1*
Y22185D1*
X41142D1*
Y19185D1*
X42142Y19843D2*
X43937D1*
X44441Y19685D1*
X42142Y19528D2*
X43937D1*
X44441Y19685D1*
X42142Y20843D2*
X43937D1*
X44441Y20685D1*
X42142Y20528D2*
X43937D1*
X44441Y20685D1*
X42142Y21842D2*
X43937D1*
X44441Y21685D1*
X42142Y21527D2*
X43937D1*
X44441Y21685D1*
X41142Y7768D2*
X42142D1*
Y10768D1*
X41142D1*
Y7768D1*
X42142Y8425D2*
X43937D1*
X44441Y8268D1*
X42142Y8110D2*
X43937D1*
X44441Y8268D1*
X42142Y9425D2*
X43937D1*
X44441Y9268D1*
X42142Y9110D2*
X43937D1*
X44441Y9268D1*
X42142Y10425D2*
X43937D1*
X44441Y10268D1*
X42142Y10110D2*
X43937D1*
X44441Y10268D1*
X4016Y23268D2*
Y18858D1*
X6969D1*
Y23268D1*
X4016D1*
G36*
X4363Y22205D2*
X4048D1*
Y21890D1*
X4363D1*
Y22205D1*
G37*
G36*
Y20236D2*
X4048D1*
Y19921D1*
X4363D1*
Y20236D1*
G37*
X42126Y12835D2*
D10*
X45039D1*
X42126Y13150D2*
X45039D1*
Y12835D2*
X45303Y12992D1*
X45039Y13150D2*
X45303Y12992D1*
X41031Y12573D2*
X42126D1*
Y17411D1*
X41031D1*
Y12573D1*
X42126Y13835D2*
X45039D1*
X42126Y14150D2*
X45039D1*
Y13835D2*
X45303Y13992D1*
X45039Y14150D2*
X45303Y13992D1*
X42126Y14834D2*
X45039D1*
X42126Y15150D2*
X45039D1*
Y14834D2*
X45303Y14992D1*
X45039Y15150D2*
X45303Y14992D1*
X42126Y15835D2*
X45039D1*
X42126Y16150D2*
X45039D1*
Y15835D2*
X45303Y15992D1*
X45039Y16150D2*
X45303Y15992D1*
X42126Y16835D2*
X45039D1*
X42126Y17150D2*
X45039D1*
Y16835D2*
X45303Y16992D1*
X45039Y17150D2*
X45303Y16992D1*
X6579Y15610D2*
X4579D1*
Y6610D1*
X6579D1*
Y15610D1*
X22622Y25894D2*
X24622D1*
Y24894D1*
X22622D1*
Y25894D1*
X28043Y25122D2*
X31043D1*
Y23122D1*
X28043D1*
Y25122D1*
X4069Y18826D2*
Y15645D1*
X6628D1*
Y18826D1*
X4069D1*
G36*
X4354Y18392D2*
X4039D1*
Y18079D1*
X4354D1*
Y18392D1*
G37*
G36*
Y17393D2*
X4039D1*
Y17078D1*
X4354D1*
Y17393D1*
G37*
G36*
Y16393D2*
X4039D1*
Y16078D1*
X4354D1*
Y16393D1*
G37*
X20457Y25894D2*
D10*
X22457D1*
Y24894D1*
X20457D1*
Y25894D1*
X38370D2*
X40370D1*
Y24894D1*
X38370D1*
Y25894D1*
X24780D2*
X27779D1*
Y24894D1*
X24780D1*
Y25894D1*
X39922Y7264D2*
X39607D1*
X39922Y6713D2*
X39607D1*
X36567Y17704D2*
Y13767D1*
X37591Y17704D2*
Y13767D1*
X36567D2*
X37591D1*
X36567Y17704D2*
X36882D1*
X37276D2*
X37591D1*
X36882D2*
G03X37276Y17704I197J0D01*
G01*
X40551Y4334D2*
X20473D1*
Y6303D1*
X40551D1*
Y4334D1*
Y5320D2*
X39567D1*
Y6303D1*
X40551D1*
Y5320D1*
X41930Y3942D2*
X19094D1*
X41930Y25988D2*
G02X43309Y24609I30J-1349D01*
G01*
X41930Y3942D2*
G03X43309Y5320I98J1281D01*
G01*
X9843Y5122D2*
Y24806D1*
X19094Y25988D2*
X41930D1*
X43309Y24609D2*
Y5320D1*
X19094Y3942D2*
X11024D1*
G02X9843Y5122I2J1183D01*
G01*
X19094Y25988D2*
X11024D1*
G03X9843Y24806I-3J-1179D01*
G01*
X27634Y14262D2*
X24015Y10643D1*
X20396Y14262D1*
X24015Y17881D1*
X27634Y14262D1*
G36*
D2*
X27384Y14513D1*
X27634Y14262D1*
G37*
G36*
D2*
X27356Y14541D1*
Y13983D1*
X27634Y14262D1*
G37*
D44*
X28010Y14560D3*
X25750Y20433D2*
D10*
X27719D1*
X25750Y21457D2*
X27719D1*
Y20433D2*
Y21457D1*
X25750Y20748D2*
Y20433D1*
Y21142D2*
Y21457D1*
Y20748D2*
G03X25750Y21142I0J197D01*
G01*
X12736Y18368D2*
Y20337D1*
X11713Y18368D2*
Y20337D1*
X12736D2*
X11713D1*
X12421Y18368D2*
X12736D1*
X12027D2*
X11713D1*
X12421D2*
G03X12027Y18368I-197J0D01*
G01*
D47*
X13572Y16837D3*
X13583Y15945D2*
D10*
X10984D1*
X13583Y14843D2*
X10984D1*
Y15945D2*
Y14843D1*
X13583Y15945D2*
Y14843D1*
X32323Y16695D2*
Y18663D1*
X31299Y16695D2*
Y18663D1*
X32323D2*
X31299D1*
X32008Y16695D2*
X32323D1*
X31614D2*
X31299D1*
X32008D2*
G03X31614Y16695I-197J0D01*
G01*
X35394Y24939D2*
Y22970D1*
X36417Y24939D2*
Y22970D1*
X35394D2*
X36417D1*
X35709Y24939D2*
X35394D1*
X36102D2*
X36417D1*
X35709D2*
G03X36102Y24939I197J0D01*
G01*
X20942Y23470D2*
Y21501D1*
X21966Y23470D2*
Y21501D1*
X20942D2*
X21966D1*
X21257Y23470D2*
X20942D1*
X21651D2*
X21966D1*
X21257D2*
G03X21651Y23470I197J0D01*
G01*
X20942Y21345D2*
Y19376D1*
X21966Y21345D2*
Y19376D1*
X20942D2*
X21966D1*
X21257Y21345D2*
X20942D1*
X21651D2*
X21966D1*
X21257D2*
G03X21651Y21345I197J0D01*
G01*
X32429Y15498D2*
Y16598D1*
X29179Y16548D2*
G02X29279Y16648I100J0D01*
G01*
Y15448D2*
G02X29179Y15548I0J100D01*
G01*
Y16548D1*
X32429Y16598D2*
X32279D1*
Y16648D2*
Y16598D1*
Y16648D2*
X29279D1*
X32429Y15498D2*
X32279D1*
Y15448D2*
Y15498D1*
Y15448D2*
X29279D1*
X32279Y16598D2*
Y15498D1*
G36*
X32679Y16168D2*
X32449D1*
Y16328D1*
X32679D1*
Y16168D1*
G37*
G36*
Y15768D2*
X32449D1*
Y15928D1*
X32679D1*
Y15768D1*
G37*
X32783Y16245D2*
D10*
X32629Y16248D1*
X32779Y15848D2*
X32679D1*
X32783Y16245D2*
X32843Y16284D1*
Y15812D2*
X32783Y15851D1*
X30879Y15748D2*
X31029D1*
Y16348D2*
Y15748D1*
Y16348D2*
X30879D1*
Y15748D2*
Y16348D1*
X30729Y15748D2*
Y16048D1*
X31179Y15748D2*
Y16048D1*
X31379D1*
X31179D2*
Y16348D1*
X30729Y16048D2*
X30529D1*
X30729D2*
Y16348D1*
G36*
X28346Y22638D2*
X28543Y23031D1*
X28740Y22638D1*
X28346D1*
G37*
G36*
X42848Y12336D2*
X42454Y12533D1*
X42848Y12730D1*
Y12336D1*
G37*
G36*
Y7612D2*
X42454Y7808D1*
X42848Y8005D1*
Y7612D1*
G37*
G36*
Y19029D2*
X42454Y19226D1*
X42848Y19423D1*
Y19029D1*
G37*
G36*
X7940Y4462D2*
X8333Y4265D1*
X7940Y4068D1*
Y4462D1*
G37*
G36*
Y25722D2*
X8333Y25525D1*
X7940Y25328D1*
Y25722D1*
G37*
X32641Y25798D2*
D21*
X35766D1*
X35891Y25673D1*
X33588Y17986D2*
D106*
Y17484D1*
X33804D1*
X33876Y17508D1*
X33900Y17532D1*
X33923Y17579D1*
Y17651D1*
X33900Y17699D1*
X33876Y17723D1*
X33804Y17747D1*
X33876Y17771D1*
X33900Y17795D1*
X33923Y17842D1*
Y17891D1*
X33900Y17938D1*
X33876Y17962D1*
X33804Y17986D1*
X33588D1*
Y17747D2*
X33804D1*
X34102Y17866D2*
Y17890D1*
X34126Y17938D1*
X34150Y17962D1*
X34198Y17986D1*
X34293D1*
X34341Y17962D1*
X34365Y17938D1*
X34389Y17890D1*
Y17842D1*
X34365Y17794D1*
X34317Y17723D1*
X34078Y17484D1*
X34413D1*
X28743Y11634D2*
X28719Y11681D1*
X28671Y11729D1*
X28623Y11753D1*
X28528D1*
X28479Y11729D1*
X28432Y11681D1*
X28408Y11634D1*
X28384Y11562D1*
Y11442D1*
X28408Y11370D1*
X28432Y11322D1*
X28479Y11275D1*
X28528Y11250D1*
X28623D1*
X28671Y11275D1*
X28719Y11322D1*
X28743Y11370D1*
X28897Y11657D2*
X28945Y11681D1*
X29017Y11752D1*
Y11250D1*
X28518Y16555D2*
X28494Y16602D1*
X28446Y16650D1*
X28399Y16674D1*
X28303D1*
X28255Y16650D1*
X28207Y16602D1*
X28183Y16555D1*
X28159Y16483D1*
Y16363D1*
X28183Y16291D1*
X28207Y16243D1*
X28255Y16196D1*
X28303Y16172D1*
X28399D1*
X28446Y16196D1*
X28494Y16243D1*
X28518Y16291D1*
X28697Y16554D2*
Y16578D1*
X28720Y16626D1*
X28744Y16650D1*
X28792Y16673D1*
X28888D1*
X28935Y16650D1*
X28959Y16626D1*
X28984Y16578D1*
Y16530D1*
X28959Y16482D1*
X28912Y16411D1*
X28672Y16172D1*
X29007D1*
X20186Y18407D2*
X20162Y18455D1*
X20114Y18503D1*
X20067Y18527D1*
X19971D1*
X19923Y18503D1*
X19876Y18455D1*
X19851Y18407D1*
X19828Y18336D1*
Y18216D1*
X19851Y18144D1*
X19876Y18096D1*
X19923Y18049D1*
X19971Y18024D1*
X20067D1*
X20114Y18049D1*
X20162Y18096D1*
X20186Y18144D1*
X20389Y18526D2*
X20651D1*
X20508Y18335D1*
X20580D1*
X20627Y18311D1*
X20651Y18288D1*
X20676Y18216D1*
Y18168D1*
X20651Y18096D1*
X20604Y18048D1*
X20532Y18024D1*
X20460D1*
X20389Y18048D1*
X20365Y18073D1*
X20341Y18120D1*
X18762Y17225D2*
X18738Y17272D1*
X18690Y17320D1*
X18642Y17344D1*
X18547D1*
X18499Y17320D1*
X18451Y17272D1*
X18427Y17225D1*
X18403Y17153D1*
Y17033D1*
X18427Y16962D1*
X18451Y16914D1*
X18499Y16866D1*
X18547Y16842D1*
X18642D1*
X18690Y16866D1*
X18738Y16914D1*
X18762Y16962D1*
X19156Y16842D2*
Y17344D1*
X18916Y17009D1*
X19275D1*
X18114Y12236D2*
X18091Y12283D1*
X18043Y12331D1*
X17995Y12355D1*
X17899D1*
X17851Y12331D1*
X17804Y12283D1*
X17779Y12236D1*
X17756Y12164D1*
Y12044D1*
X17779Y11973D1*
X17804Y11925D1*
X17851Y11877D1*
X17899Y11853D1*
X17995D1*
X18043Y11877D1*
X18091Y11925D1*
X18114Y11973D1*
X18556Y12355D2*
X18317D1*
X18293Y12140D1*
X18317Y12163D1*
X18389Y12188D1*
X18460D1*
X18532Y12163D1*
X18580Y12116D1*
X18604Y12044D1*
Y11996D1*
X18580Y11925D1*
X18532Y11876D1*
X18460Y11853D1*
X18389D1*
X18317Y11876D1*
X18293Y11901D1*
X18269Y11948D1*
X20970Y10532D2*
X20946Y10579D1*
X20898Y10628D1*
X20851Y10651D1*
X20755D1*
X20707Y10628D1*
X20659Y10579D1*
X20635Y10532D1*
X20611Y10460D1*
Y10340D1*
X20635Y10269D1*
X20659Y10221D1*
X20707Y10173D1*
X20755Y10149D1*
X20851D1*
X20898Y10173D1*
X20946Y10221D1*
X20970Y10269D1*
X21411Y10579D2*
X21388Y10627D1*
X21316Y10651D1*
X21268D1*
X21196Y10627D1*
X21148Y10555D1*
X21124Y10436D1*
Y10316D1*
X21148Y10221D1*
X21196Y10173D1*
X21268Y10149D1*
X21292D1*
X21363Y10173D1*
X21411Y10221D1*
X21435Y10293D1*
Y10316D1*
X21411Y10388D1*
X21363Y10436D1*
X21292Y10460D1*
X21268D1*
X21196Y10436D1*
X21148Y10388D1*
X21124Y10316D1*
X21677Y9611D2*
X21653Y9658D1*
X21605Y9706D1*
X21558Y9730D1*
X21462D1*
X21414Y9706D1*
X21366Y9658D1*
X21342Y9611D1*
X21318Y9539D1*
Y9419D1*
X21342Y9348D1*
X21366Y9300D1*
X21414Y9252D1*
X21462Y9228D1*
X21558D1*
X21605Y9252D1*
X21653Y9300D1*
X21677Y9348D1*
X21927Y9228D2*
X22166Y9730D1*
X21831D1*
X27163Y10673D2*
X27139Y10721D1*
X27091Y10769D1*
X27043Y10793D1*
X26948D1*
X26900Y10769D1*
X26852Y10721D1*
X26828Y10673D1*
X26804Y10601D1*
Y10481D1*
X26828Y10410D1*
X26852Y10362D1*
X26900Y10315D1*
X26948Y10290D1*
X27043D1*
X27091Y10315D1*
X27139Y10362D1*
X27163Y10410D1*
X27437Y10792D2*
X27365Y10768D1*
X27341Y10721D1*
Y10673D1*
X27365Y10625D1*
X27413Y10601D1*
X27508Y10577D1*
X27580Y10553D1*
X27628Y10505D1*
X27652Y10458D1*
Y10386D1*
X27628Y10338D1*
X27604Y10314D1*
X27532Y10290D1*
X27437D1*
X27365Y10314D1*
X27341Y10338D1*
X27317Y10386D1*
Y10458D1*
X27341Y10505D1*
X27389Y10553D1*
X27460Y10577D1*
X27556Y10601D1*
X27604Y10625D1*
X27628Y10673D1*
Y10721D1*
X27604Y10768D1*
X27532Y10792D1*
X27437D1*
X30813Y21971D2*
X30789Y22019D1*
X30741Y22067D1*
X30693Y22090D1*
X30598D1*
X30550Y22067D1*
X30502Y22019D1*
X30478Y21971D1*
X30454Y21899D1*
Y21779D1*
X30478Y21708D1*
X30502Y21660D1*
X30550Y21612D1*
X30598Y21588D1*
X30693D1*
X30741Y21612D1*
X30789Y21660D1*
X30813Y21708D1*
X31278Y21923D2*
X31254Y21851D1*
X31206Y21803D1*
X31135Y21779D1*
X31111D1*
X31039Y21803D1*
X30991Y21851D1*
X30967Y21923D1*
Y21947D1*
X30991Y22019D1*
X31039Y22066D1*
X31111Y22090D1*
X31135D1*
X31206Y22066D1*
X31254Y22019D1*
X31278Y21923D1*
Y21803D1*
X31254Y21684D1*
X31206Y21612D1*
X31135Y21588D1*
X31087D1*
X31015Y21612D1*
X30991Y21660D1*
X26711Y23545D2*
X26687Y23592D1*
X26639Y23641D1*
X26592Y23664D1*
X26496D1*
X26448Y23641D1*
X26400Y23592D1*
X26376Y23545D1*
X26352Y23473D1*
Y23353D1*
X26376Y23282D1*
X26400Y23234D1*
X26448Y23186D1*
X26496Y23162D1*
X26592D1*
X26639Y23186D1*
X26687Y23234D1*
X26711Y23282D1*
X26865Y23568D2*
X26913Y23592D1*
X26985Y23664D1*
Y23162D1*
X27283Y23664D2*
X27211Y23640D1*
X27163Y23568D1*
X27140Y23449D1*
Y23377D1*
X27163Y23258D1*
X27211Y23186D1*
X27283Y23162D1*
X27331D1*
X27403Y23186D1*
X27450Y23258D1*
X27475Y23377D1*
Y23449D1*
X27450Y23568D1*
X27403Y23640D1*
X27331Y23664D1*
X27283D1*
X27450Y23568D2*
X27163Y23258D1*
X10155Y20614D2*
X10107Y20590D1*
X10059Y20542D1*
X10035Y20494D1*
Y20399D1*
X10059Y20351D1*
X10107Y20303D1*
X10155Y20279D1*
X10227Y20255D1*
X10347D1*
X10418Y20279D1*
X10466Y20303D1*
X10514Y20351D1*
X10538Y20399D1*
Y20494D1*
X10514Y20542D1*
X10466Y20590D1*
X10418Y20614D1*
X10132Y20768D2*
X10107Y20816D1*
X10036Y20888D1*
X10538D1*
X10132Y21042D2*
X10107Y21090D1*
X10036Y21162D1*
X10538D1*
X14151Y17081D2*
X14103Y17057D1*
X14055Y17009D1*
X14032Y16962D1*
Y16866D1*
X14055Y16818D1*
X14103Y16770D1*
X14151Y16746D1*
X14223Y16722D1*
X14343D1*
X14414Y16746D1*
X14462Y16770D1*
X14510Y16818D1*
X14534Y16866D1*
Y16962D1*
X14510Y17009D1*
X14462Y17057D1*
X14414Y17081D1*
X14128Y17235D2*
X14103Y17283D1*
X14032Y17355D1*
X14534D1*
X14151Y17534D2*
X14128D1*
X14080Y17558D1*
X14056Y17582D1*
X14032Y17630D1*
Y17725D1*
X14056Y17773D1*
X14080Y17797D1*
X14128Y17821D1*
X14175D1*
X14223Y17797D1*
X14295Y17749D1*
X14534Y17510D1*
Y17845D1*
X11156Y17601D2*
X11132Y17649D1*
X11084Y17697D1*
X11036Y17720D1*
X10941D1*
X10893Y17697D1*
X10845Y17649D1*
X10821Y17601D1*
X10797Y17529D1*
Y17409D1*
X10821Y17338D1*
X10845Y17290D1*
X10893Y17242D1*
X10941Y17218D1*
X11036D1*
X11084Y17242D1*
X11132Y17290D1*
X11156Y17338D1*
X11310Y17624D2*
X11358Y17649D1*
X11430Y17720D1*
Y17218D1*
X11633Y17720D2*
X11895D1*
X11752Y17529D1*
X11824D1*
X11871Y17505D1*
X11895Y17481D1*
X11919Y17409D1*
Y17362D1*
X11895Y17290D1*
X11848Y17242D1*
X11776Y17218D1*
X11704D1*
X11633Y17242D1*
X11609Y17266D1*
X11585Y17314D1*
X9171Y15278D2*
X9123Y15254D1*
X9075Y15206D1*
X9051Y15158D1*
Y15063D1*
X9075Y15015D1*
X9123Y14967D1*
X9171Y14943D1*
X9242Y14919D1*
X9362D1*
X9434Y14943D1*
X9482Y14967D1*
X9529Y15015D1*
X9554Y15063D1*
Y15158D1*
X9529Y15206D1*
X9482Y15254D1*
X9434Y15278D1*
X9147Y15432D2*
X9123Y15480D1*
X9052Y15552D1*
X9554D1*
Y15946D2*
X9052D1*
X9386Y15706D1*
Y16065D1*
X14879Y15112D2*
X14832Y15089D1*
X14784Y15041D1*
X14760Y14993D1*
Y14897D1*
X14784Y14849D1*
X14832Y14802D1*
X14879Y14778D1*
X14951Y14754D1*
X15071D1*
X15142Y14778D1*
X15190Y14802D1*
X15238Y14849D1*
X15262Y14897D1*
Y14993D1*
X15238Y15041D1*
X15190Y15089D1*
X15142Y15112D1*
X14856Y15267D2*
X14832Y15315D1*
X14760Y15387D1*
X15262D1*
X14760Y15828D2*
Y15589D1*
X14975Y15566D1*
X14952Y15589D1*
X14927Y15661D1*
Y15732D1*
X14952Y15804D1*
X14999Y15852D1*
X15071Y15876D1*
X15119D1*
X15190Y15852D1*
X15239Y15804D1*
X15262Y15732D1*
Y15661D1*
X15239Y15589D1*
X15214Y15566D1*
X15167Y15541D1*
X36286Y7109D2*
X36262Y7156D1*
X36214Y7205D1*
X36167Y7228D1*
X36071D1*
X36023Y7205D1*
X35976Y7156D1*
X35951Y7109D1*
X35927Y7037D1*
Y6917D1*
X35951Y6846D1*
X35976Y6798D1*
X36023Y6750D1*
X36071Y6726D1*
X36167D1*
X36214Y6750D1*
X36262Y6798D1*
X36286Y6846D1*
X36441Y7132D2*
X36489Y7156D1*
X36560Y7228D1*
Y6726D1*
X37002Y7156D2*
X36978Y7204D1*
X36906Y7228D1*
X36859D1*
X36787Y7204D1*
X36739Y7132D1*
X36715Y7013D1*
Y6893D1*
X36739Y6798D1*
X36787Y6750D1*
X36859Y6726D1*
X36882D1*
X36954Y6750D1*
X37002Y6798D1*
X37025Y6870D1*
Y6893D1*
X37002Y6965D1*
X36954Y7013D1*
X36882Y7037D1*
X36859D1*
X36787Y7013D1*
X36739Y6965D1*
X36715Y6893D1*
X23625Y19643D2*
X23601Y19691D1*
X23553Y19739D1*
X23506Y19763D1*
X23410D1*
X23362Y19739D1*
X23314Y19691D1*
X23290Y19643D1*
X23266Y19572D1*
Y19452D1*
X23290Y19380D1*
X23314Y19332D1*
X23362Y19285D1*
X23410Y19260D1*
X23506D1*
X23553Y19285D1*
X23601Y19332D1*
X23625Y19380D1*
X23779Y19667D2*
X23827Y19691D1*
X23899Y19762D1*
Y19260D1*
X24149D2*
X24389Y19762D1*
X24054D1*
X26150Y18714D2*
X26126Y18761D1*
X26078Y18809D1*
X26031Y18833D1*
X25935D1*
X25887Y18809D1*
X25839Y18761D1*
X25815Y18714D1*
X25791Y18642D1*
Y18522D1*
X25815Y18451D1*
X25839Y18403D1*
X25887Y18355D1*
X25935Y18331D1*
X26031D1*
X26078Y18355D1*
X26126Y18403D1*
X26150Y18451D1*
X26304Y18737D2*
X26353Y18761D1*
X26424Y18833D1*
Y18331D1*
X26698Y18833D2*
X26627Y18809D1*
X26603Y18761D1*
Y18713D1*
X26627Y18666D1*
X26674Y18641D1*
X26770Y18618D1*
X26842Y18594D1*
X26889Y18546D1*
X26913Y18498D1*
Y18426D1*
X26889Y18379D1*
X26866Y18354D1*
X26794Y18331D1*
X26698D1*
X26627Y18354D1*
X26603Y18379D1*
X26579Y18426D1*
Y18498D1*
X26603Y18546D1*
X26651Y18594D1*
X26722Y18618D1*
X26818Y18641D1*
X26866Y18666D1*
X26889Y18713D1*
Y18761D1*
X26866Y18809D1*
X26794Y18833D1*
X26698D1*
X26750Y17703D2*
X26726Y17750D1*
X26678Y17798D1*
X26630Y17822D1*
X26535D1*
X26487Y17798D1*
X26439Y17750D1*
X26415Y17703D1*
X26391Y17631D1*
Y17511D1*
X26415Y17440D1*
X26439Y17392D1*
X26487Y17344D1*
X26535Y17320D1*
X26630D1*
X26678Y17344D1*
X26726Y17392D1*
X26750Y17440D1*
X26904Y17726D2*
X26952Y17750D1*
X27024Y17822D1*
Y17320D1*
X27490Y17655D2*
X27465Y17583D1*
X27418Y17535D1*
X27346Y17511D1*
X27322D1*
X27250Y17535D1*
X27203Y17583D1*
X27178Y17655D1*
Y17679D1*
X27203Y17750D1*
X27250Y17798D1*
X27322Y17822D1*
X27346D1*
X27418Y17798D1*
X27465Y17750D1*
X27490Y17655D1*
Y17535D1*
X27465Y17415D1*
X27418Y17344D1*
X27346Y17320D1*
X27298D1*
X27227Y17344D1*
X27203Y17392D1*
X30228Y19857D2*
X30205Y19905D1*
X30157Y19953D1*
X30109Y19977D1*
X30013D1*
X29965Y19953D1*
X29918Y19905D1*
X29893Y19857D1*
X29870Y19786D1*
Y19666D1*
X29893Y19594D1*
X29918Y19546D1*
X29965Y19499D1*
X30013Y19474D1*
X30109D1*
X30157Y19499D1*
X30205Y19546D1*
X30228Y19594D1*
X30407Y19857D2*
Y19881D1*
X30431Y19929D1*
X30455Y19952D1*
X30503Y19976D1*
X30598D1*
X30646Y19952D1*
X30670Y19929D1*
X30694Y19881D1*
Y19833D1*
X30670Y19785D1*
X30622Y19714D1*
X30383Y19474D1*
X30718D1*
X31016Y19976D2*
X30944Y19952D1*
X30896Y19881D1*
X30872Y19761D1*
Y19689D1*
X30896Y19570D1*
X30944Y19498D1*
X31016Y19474D1*
X31063D1*
X31135Y19498D1*
X31183Y19570D1*
X31207Y19689D1*
Y19761D1*
X31183Y19881D1*
X31135Y19952D1*
X31063Y19976D1*
X31016D1*
X31183Y19881D2*
X30896Y19570D1*
X24295Y22215D2*
X24248Y22192D1*
X24200Y22143D1*
X24176Y22096D1*
Y22000D1*
X24200Y21952D1*
X24248Y21905D1*
X24295Y21880D1*
X24367Y21857D1*
X24487D1*
X24558Y21880D1*
X24606Y21905D1*
X24654Y21952D1*
X24678Y22000D1*
Y22096D1*
X24654Y22143D1*
X24606Y22192D1*
X24558Y22215D1*
X24296Y22394D2*
X24272D1*
X24224Y22418D1*
X24200Y22442D1*
X24176Y22490D1*
Y22585D1*
X24200Y22633D1*
X24224Y22657D1*
X24272Y22681D1*
X24319D1*
X24368Y22657D1*
X24439Y22609D1*
X24678Y22370D1*
Y22705D1*
X24272Y22859D2*
X24248Y22907D1*
X24176Y22979D1*
X24678D1*
X23804Y23617D2*
X23780Y23665D1*
X23732Y23713D1*
X23685Y23737D1*
X23589D1*
X23541Y23713D1*
X23494Y23665D1*
X23469Y23617D1*
X23445Y23545D1*
Y23425D1*
X23469Y23354D1*
X23494Y23306D1*
X23541Y23259D1*
X23589Y23234D1*
X23685D1*
X23732Y23259D1*
X23780Y23306D1*
X23804Y23354D1*
X23983Y23617D2*
Y23640D1*
X24007Y23689D1*
X24030Y23712D1*
X24079Y23736D1*
X24174D1*
X24222Y23712D1*
X24245Y23689D1*
X24270Y23640D1*
Y23593D1*
X24245Y23545D1*
X24198Y23474D1*
X23959Y23234D1*
X24294D1*
X24472Y23617D2*
Y23640D1*
X24496Y23689D1*
X24520Y23712D1*
X24568Y23736D1*
X24663D1*
X24711Y23712D1*
X24735Y23689D1*
X24759Y23640D1*
Y23593D1*
X24735Y23545D1*
X24687Y23474D1*
X24448Y23234D1*
X24783D1*
X17769Y22385D2*
X17722Y22361D1*
X17673Y22313D1*
X17650Y22266D1*
Y22170D1*
X17673Y22122D1*
X17722Y22074D1*
X17769Y22050D1*
X17841Y22026D1*
X17961D1*
X18032Y22050D1*
X18080Y22074D1*
X18128Y22122D1*
X18152Y22170D1*
Y22266D1*
X18128Y22313D1*
X18080Y22361D1*
X18032Y22385D1*
X17770Y22564D2*
X17746D1*
X17698Y22587D1*
X17674Y22611D1*
X17650Y22659D1*
Y22755D1*
X17674Y22802D1*
X17698Y22826D1*
X17746Y22850D1*
X17793D1*
X17841Y22826D1*
X17913Y22779D1*
X18152Y22539D1*
Y22874D1*
X17650Y23077D2*
Y23339D1*
X17841Y23196D1*
Y23268D1*
X17865Y23315D1*
X17889Y23339D1*
X17961Y23364D1*
X18008D1*
X18080Y23339D1*
X18128Y23292D1*
X18152Y23220D1*
Y23148D1*
X18128Y23077D1*
X18104Y23053D1*
X18056Y23029D1*
X19444Y25765D2*
X19421Y25812D1*
X19373Y25861D1*
X19325Y25884D1*
X19229D1*
X19181Y25861D1*
X19134Y25812D1*
X19109Y25765D1*
X19086Y25693D1*
Y25573D1*
X19109Y25502D1*
X19134Y25454D1*
X19181Y25406D1*
X19229Y25382D1*
X19325D1*
X19373Y25406D1*
X19421Y25454D1*
X19444Y25502D1*
X19623Y25764D2*
Y25788D1*
X19647Y25836D1*
X19671Y25860D1*
X19719Y25884D1*
X19814D1*
X19862Y25860D1*
X19886Y25836D1*
X19910Y25788D1*
Y25741D1*
X19886Y25693D1*
X19838Y25621D1*
X19599Y25382D1*
X19934D1*
X20327D2*
Y25884D1*
X20088Y25549D1*
X20447D1*
X31553Y25697D2*
X31529Y25744D1*
X31481Y25792D1*
X31433Y25816D1*
X31338D1*
X31290Y25792D1*
X31242Y25744D1*
X31218Y25697D1*
X31194Y25625D1*
Y25505D1*
X31218Y25433D1*
X31242Y25385D1*
X31290Y25338D1*
X31338Y25313D1*
X31433D1*
X31481Y25338D1*
X31529Y25385D1*
X31553Y25433D1*
X31731Y25696D2*
Y25720D1*
X31755Y25768D1*
X31779Y25792D1*
X31827Y25815D1*
X31923D1*
X31970Y25792D1*
X31994Y25768D1*
X32018Y25720D1*
Y25672D1*
X31994Y25624D1*
X31946Y25553D1*
X31707Y25313D1*
X32042D1*
X32483Y25815D2*
X32245D1*
X32221Y25600D1*
X32245Y25624D1*
X32316Y25648D1*
X32388D1*
X32460Y25624D1*
X32508Y25577D1*
X32531Y25505D1*
Y25457D1*
X32508Y25385D1*
X32460Y25337D1*
X32388Y25313D1*
X32316D1*
X32245Y25337D1*
X32221Y25362D1*
X32196Y25409D1*
X37968Y23304D2*
X37921Y23280D1*
X37873Y23232D1*
X37849Y23185D1*
Y23089D1*
X37873Y23041D1*
X37921Y22993D1*
X37968Y22969D1*
X38040Y22945D1*
X38160D1*
X38231Y22969D1*
X38280Y22993D1*
X38327Y23041D1*
X38351Y23089D1*
Y23185D1*
X38327Y23232D1*
X38280Y23280D1*
X38231Y23304D1*
X37969Y23483D2*
X37945D1*
X37897Y23507D1*
X37873Y23530D1*
X37850Y23578D1*
Y23674D1*
X37873Y23722D1*
X37897Y23745D1*
X37945Y23770D1*
X37993D1*
X38041Y23745D1*
X38112Y23698D1*
X38351Y23458D1*
Y23793D1*
X37921Y24235D2*
X37873Y24211D1*
X37850Y24139D1*
Y24091D1*
X37873Y24020D1*
X37945Y23972D1*
X38065Y23948D1*
X38184D1*
X38280Y23972D1*
X38328Y24020D1*
X38351Y24091D1*
Y24115D1*
X38328Y24187D1*
X38280Y24235D1*
X38208Y24258D1*
X38184D1*
X38112Y24235D1*
X38065Y24187D1*
X38041Y24115D1*
Y24091D1*
X38065Y24020D1*
X38112Y23972D1*
X38184Y23948D1*
X39848Y22801D2*
X39824Y22848D1*
X39776Y22896D1*
X39728Y22920D1*
X39633D1*
X39584Y22896D1*
X39537Y22848D1*
X39513Y22801D1*
X39489Y22729D1*
Y22609D1*
X39513Y22538D1*
X39537Y22490D1*
X39584Y22442D1*
X39633Y22418D1*
X39728D1*
X39776Y22442D1*
X39824Y22490D1*
X39848Y22538D1*
X40026Y22800D2*
Y22824D1*
X40050Y22872D1*
X40074Y22896D1*
X40122Y22920D1*
X40217D1*
X40265Y22896D1*
X40289Y22872D1*
X40313Y22824D1*
Y22777D1*
X40289Y22728D1*
X40241Y22657D1*
X40002Y22418D1*
X40337D1*
X40587D2*
X40826Y22920D1*
X40491D1*
X33033Y23377D2*
X33010Y23424D1*
X32961Y23472D1*
X32914Y23496D1*
X32818D1*
X32770Y23472D1*
X32723Y23424D1*
X32698Y23377D1*
X32675Y23305D1*
Y23185D1*
X32698Y23114D1*
X32723Y23065D1*
X32770Y23018D1*
X32818Y22994D1*
X32914D1*
X32961Y23018D1*
X33010Y23065D1*
X33033Y23114D1*
X33212Y23376D2*
Y23400D1*
X33236Y23448D1*
X33260Y23472D1*
X33308Y23495D1*
X33403D1*
X33451Y23472D1*
X33475Y23448D1*
X33499Y23400D1*
Y23352D1*
X33475Y23304D1*
X33427Y23233D1*
X33188Y22994D1*
X33523D1*
X33796Y23495D2*
X33725Y23472D1*
X33701Y23424D1*
Y23376D1*
X33725Y23329D1*
X33773Y23304D1*
X33868Y23280D1*
X33940Y23257D1*
X33988Y23209D1*
X34011Y23161D1*
Y23089D1*
X33988Y23042D1*
X33964Y23017D1*
X33892Y22994D1*
X33796D1*
X33725Y23017D1*
X33701Y23042D1*
X33677Y23089D1*
Y23161D1*
X33701Y23209D1*
X33749Y23257D1*
X33820Y23280D1*
X33916Y23304D1*
X33964Y23329D1*
X33988Y23376D1*
Y23424D1*
X33964Y23472D1*
X33892Y23495D1*
X33796D1*
X8090Y13881D2*
X8593D1*
Y14049D1*
X8568Y14121D1*
X8521Y14169D1*
X8473Y14193D1*
X8401Y14216D1*
X8281D1*
X8210Y14193D1*
X8162Y14169D1*
X8114Y14121D1*
X8090Y14049D1*
Y13881D1*
X8186Y14371D2*
X8162Y14419D1*
X8091Y14491D1*
X8593D1*
X7355Y13965D2*
Y13726D1*
X7570Y13703D1*
X7546Y13726D1*
X7522Y13798D1*
Y13870D1*
X7546Y13941D1*
X7594Y13989D1*
X7666Y14013D1*
X7713D1*
X7785Y13989D1*
X7833Y13941D1*
X7857Y13870D1*
Y13798D1*
X7833Y13726D1*
X7809Y13703D1*
X7761Y13678D1*
X7355Y14168D2*
X7857Y14359D1*
X7355Y14550D1*
X8126Y11340D2*
X8628D1*
Y11507D1*
X8604Y11579D1*
X8557Y11627D1*
X8509Y11651D1*
X8437Y11675D1*
X8317D1*
X8245Y11651D1*
X8198Y11627D1*
X8150Y11579D1*
X8126Y11507D1*
Y11340D1*
X8246Y11853D2*
X8222D1*
X8174Y11877D1*
X8150Y11901D1*
X8127Y11949D1*
Y12045D1*
X8150Y12092D1*
X8174Y12116D1*
X8222Y12140D1*
X8270D1*
X8318Y12116D1*
X8389Y12068D1*
X8628Y11829D1*
Y12164D1*
X7355Y11119D2*
Y11382D1*
X7546Y11239D1*
Y11311D1*
X7570Y11358D1*
X7594Y11382D1*
X7666Y11406D1*
X7713D1*
X7785Y11382D1*
X7833Y11334D1*
X7857Y11263D1*
Y11191D1*
X7833Y11119D1*
X7809Y11096D1*
X7761Y11071D1*
X7355Y11561D2*
X7857Y11752D1*
X7355Y11943D1*
Y12146D2*
Y12408D1*
X7546Y12265D1*
Y12337D1*
X7570Y12384D1*
X7594Y12408D1*
X7666Y12433D1*
X7713D1*
X7785Y12408D1*
X7833Y12361D1*
X7857Y12289D1*
Y12217D1*
X7833Y12146D1*
X7809Y12122D1*
X7761Y12098D1*
X7929Y6655D2*
X8432D1*
Y6822D1*
X8407Y6894D1*
X8360Y6942D1*
X8312Y6966D1*
X8240Y6990D1*
X8120D1*
X8049Y6966D1*
X8001Y6942D1*
X7953Y6894D1*
X7929Y6822D1*
Y6655D1*
X7930Y7192D2*
Y7455D1*
X8121Y7312D1*
Y7383D1*
X8145Y7431D1*
X8169Y7455D1*
X8240Y7479D1*
X8288D1*
X8360Y7455D1*
X8408Y7407D1*
X8432Y7335D1*
Y7264D1*
X8408Y7192D1*
X8384Y7168D1*
X8336Y7144D1*
X7390Y6282D2*
Y5972D1*
X7893D1*
Y6282D1*
X7630Y5972D2*
Y6163D1*
Y6437D2*
Y6652D1*
X7605Y6724D1*
X7582Y6748D1*
X7534Y6772D1*
X7486D1*
X7438Y6748D1*
X7414Y6724D1*
X7390Y6652D1*
Y6437D1*
X7893D1*
X7630Y6604D2*
X7893Y6772D1*
X7630Y6926D2*
Y7141D1*
X7605Y7213D1*
X7582Y7237D1*
X7534Y7261D1*
X7486D1*
X7438Y7237D1*
X7414Y7213D1*
X7390Y7141D1*
Y6926D1*
X7893D1*
X7630Y7093D2*
X7893Y7261D1*
X7390Y7559D2*
X7414Y7511D1*
X7462Y7463D1*
X7510Y7439D1*
X7582Y7415D1*
X7701D1*
X7773Y7439D1*
X7821Y7463D1*
X7868Y7511D1*
X7893Y7559D1*
Y7655D1*
X7868Y7702D1*
X7821Y7750D1*
X7773Y7774D1*
X7701Y7798D1*
X7582D1*
X7510Y7774D1*
X7462Y7750D1*
X7414Y7702D1*
X7390Y7655D1*
Y7559D1*
X7630Y7952D2*
Y8167D1*
X7605Y8239D1*
X7582Y8263D1*
X7534Y8287D1*
X7486D1*
X7438Y8263D1*
X7414Y8239D1*
X7390Y8167D1*
Y7952D1*
X7893D1*
X7630Y8120D2*
X7893Y8287D1*
X8126Y9202D2*
X8628D1*
Y9369D1*
X8604Y9441D1*
X8557Y9489D1*
X8509Y9513D1*
X8437Y9537D1*
X8317D1*
X8245Y9513D1*
X8198Y9489D1*
X8150Y9441D1*
X8126Y9369D1*
Y9202D1*
X8628Y9931D2*
X8127D1*
X8461Y9691D1*
Y10050D1*
X7920Y9050D2*
X7417Y8859D1*
X7920Y8667D1*
X7752Y8739D2*
Y8979D1*
X7417Y9205D2*
X7776D1*
X7848Y9229D1*
X7895Y9277D1*
X7920Y9348D1*
Y9396D1*
X7895Y9468D1*
X7848Y9516D1*
X7776Y9540D1*
X7417D1*
Y9862D2*
X7920D1*
X7417Y9694D2*
Y10029D1*
Y10327D2*
X7441Y10279D1*
X7489Y10232D1*
X7537Y10207D1*
X7608Y10183D1*
X7728D1*
X7800Y10207D1*
X7848Y10232D1*
X7895Y10279D1*
X7920Y10327D1*
Y10423D1*
X7895Y10470D1*
X7848Y10518D1*
X7800Y10542D1*
X7728Y10566D1*
X7608D1*
X7537Y10542D1*
X7489Y10518D1*
X7441Y10470D1*
X7417Y10423D1*
Y10327D1*
X13038Y29063D2*
Y28680D1*
X13014Y28609D1*
X12990Y28585D1*
X12942Y28561D1*
X12894D1*
X12846Y28585D1*
X12823Y28609D1*
X12798Y28680D1*
Y28728D1*
X13192Y28967D2*
X13240Y28991D1*
X13312Y29062D1*
Y28561D1*
X17922Y6382D2*
Y5999D1*
X17898Y5928D1*
X17874Y5904D1*
X17827Y5879D1*
X17779D1*
X17731Y5904D1*
X17707Y5928D1*
X17683Y5999D1*
Y6047D1*
X18101Y6262D2*
Y6286D1*
X18125Y6334D1*
X18148Y6358D1*
X18197Y6381D1*
X18292D1*
X18340Y6358D1*
X18363Y6334D1*
X18388Y6286D1*
Y6238D1*
X18363Y6190D1*
X18316Y6119D1*
X18077Y5879D1*
X18412D1*
X41597Y18980D2*
Y18598D1*
X41574Y18526D1*
X41549Y18502D1*
X41502Y18478D1*
X41454D1*
X41406Y18502D1*
X41382Y18526D1*
X41358Y18598D1*
Y18645D1*
X41800Y18980D2*
X42062D1*
X41919Y18788D1*
X41991D1*
X42039Y18765D1*
X42062Y18741D1*
X42087Y18669D1*
Y18622D1*
X42062Y18550D1*
X42015Y18502D1*
X41943Y18478D1*
X41871D1*
X41800Y18502D1*
X41776Y18526D1*
X41752Y18573D1*
X41586Y7563D2*
Y7180D1*
X41562Y7109D1*
X41537Y7085D1*
X41490Y7061D1*
X41442D1*
X41394Y7085D1*
X41371Y7109D1*
X41346Y7180D1*
Y7228D1*
X41979Y7061D2*
Y7562D1*
X41740Y7228D1*
X42099D1*
X6532Y23733D2*
X6914D1*
X6986Y23709D1*
X7010Y23685D1*
X7034Y23638D1*
Y23590D1*
X7010Y23542D1*
X6986Y23518D1*
X6914Y23494D1*
X6866D1*
X6532Y24175D2*
Y23936D1*
X6747Y23912D1*
X6723Y23936D1*
X6699Y24008D1*
Y24079D1*
X6723Y24151D1*
X6771Y24199D1*
X6843Y24223D1*
X6890D1*
X6962Y24199D1*
X7010Y24151D1*
X7034Y24079D1*
Y24008D1*
X7010Y23936D1*
X6986Y23912D1*
X6938Y23888D1*
X41369Y18144D2*
Y17761D1*
X41346Y17689D1*
X41321Y17666D1*
X41274Y17641D1*
X41226D1*
X41178Y17666D1*
X41154Y17689D1*
X41130Y17761D1*
Y17809D1*
X41811Y18072D2*
X41787Y18119D1*
X41715Y18143D1*
X41668D1*
X41596Y18119D1*
X41548Y18047D1*
X41524Y17928D1*
Y17809D1*
X41548Y17713D1*
X41596Y17665D1*
X41668Y17641D1*
X41691D1*
X41763Y17665D1*
X41811Y17713D1*
X41834Y17785D1*
Y17809D1*
X41811Y17881D1*
X41763Y17928D1*
X41691Y17952D1*
X41668D1*
X41596Y17928D1*
X41548Y17881D1*
X41524Y17809D1*
X6241Y6500D2*
Y6117D1*
X6217Y6046D1*
X6193Y6022D1*
X6146Y5998D1*
X6097D1*
X6050Y6022D1*
X6026Y6046D1*
X6002Y6117D1*
Y6165D1*
X6491Y5998D2*
X6730Y6499D1*
X6396D1*
X23372Y27751D2*
Y27368D1*
X23349Y27297D1*
X23324Y27273D1*
X23277Y27249D1*
X23229D1*
X23181Y27273D1*
X23157Y27297D1*
X23133Y27368D1*
Y27416D1*
X23646Y27750D2*
X23575Y27727D1*
X23550Y27679D1*
Y27631D1*
X23575Y27583D1*
X23622Y27559D1*
X23718Y27535D1*
X23790Y27512D1*
X23837Y27464D1*
X23861Y27416D1*
Y27344D1*
X23837Y27297D1*
X23814Y27272D1*
X23742Y27249D1*
X23646D1*
X23575Y27272D1*
X23550Y27297D1*
X23527Y27344D1*
Y27416D1*
X23550Y27464D1*
X23599Y27512D1*
X23670Y27535D1*
X23765Y27559D1*
X23814Y27583D1*
X23837Y27631D1*
Y27679D1*
X23814Y27727D1*
X23742Y27750D1*
X23646D1*
X30140Y25798D2*
Y25416D1*
X30116Y25344D1*
X30092Y25320D1*
X30044Y25296D1*
X29996D1*
X29949Y25320D1*
X29925Y25344D1*
X29901Y25416D1*
Y25463D1*
X30605Y25631D2*
X30581Y25559D1*
X30534Y25511D1*
X30462Y25487D1*
X30438D1*
X30366Y25511D1*
X30319Y25559D1*
X30294Y25631D1*
Y25654D1*
X30319Y25726D1*
X30366Y25774D1*
X30438Y25798D1*
X30462D1*
X30534Y25774D1*
X30581Y25726D1*
X30605Y25631D1*
Y25511D1*
X30581Y25391D1*
X30534Y25320D1*
X30462Y25296D1*
X30414D1*
X30342Y25320D1*
X30319Y25368D1*
X6767Y15414D2*
X7149D1*
X7221Y15390D1*
X7245Y15366D1*
X7269Y15318D1*
Y15270D1*
X7245Y15223D1*
X7221Y15199D1*
X7149Y15175D1*
X7101D1*
X6863Y15568D2*
X6838Y15616D1*
X6767Y15688D1*
X7269D1*
X6767Y15986D2*
X6791Y15915D1*
X6863Y15866D1*
X6982Y15843D1*
X7054D1*
X7173Y15866D1*
X7245Y15915D1*
X7269Y15986D1*
Y16034D1*
X7245Y16106D1*
X7173Y16153D1*
X7054Y16178D1*
X6982D1*
X6863Y16153D1*
X6791Y16106D1*
X6767Y16034D1*
Y15986D1*
X6863Y16153D2*
X7173Y15866D1*
X22115Y27626D2*
Y27243D1*
X22091Y27172D1*
X22066Y27148D1*
X22019Y27124D1*
X21971D1*
X21923Y27148D1*
X21900Y27172D1*
X21875Y27243D1*
Y27291D1*
X22269Y27530D2*
X22317Y27554D1*
X22389Y27625D1*
Y27124D1*
X22543Y27530D2*
X22591Y27554D1*
X22663Y27625D1*
Y27124D1*
X40670Y25688D2*
Y25306D1*
X40647Y25234D1*
X40622Y25210D1*
X40575Y25186D1*
X40527D1*
X40479Y25210D1*
X40455Y25234D1*
X40431Y25306D1*
Y25353D1*
X40825Y25592D2*
X40873Y25617D1*
X40945Y25688D1*
Y25186D1*
X41123Y25568D2*
Y25592D1*
X41147Y25640D1*
X41171Y25664D1*
X41219Y25688D1*
X41315D1*
X41362Y25664D1*
X41386Y25640D1*
X41410Y25592D1*
Y25545D1*
X41386Y25497D1*
X41338Y25425D1*
X41099Y25186D1*
X41434D1*
X26830Y24626D2*
Y24243D1*
X26806Y24172D1*
X26782Y24148D1*
X26734Y24124D1*
X26686D1*
X26639Y24148D1*
X26615Y24172D1*
X26591Y24243D1*
Y24291D1*
X26984Y24530D2*
X27032Y24554D1*
X27104Y24625D1*
Y24124D1*
X27307Y24625D2*
X27569D1*
X27426Y24434D1*
X27498D1*
X27545Y24410D1*
X27569Y24387D1*
X27594Y24315D1*
Y24267D1*
X27569Y24195D1*
X27522Y24147D1*
X27450Y24124D1*
X27378D1*
X27307Y24147D1*
X27283Y24172D1*
X27259Y24219D1*
X27861Y17704D2*
Y17202D1*
X28148D1*
X28302Y17608D2*
X28350Y17633D1*
X28422Y17704D1*
Y17202D1*
X8066Y20157D2*
Y19655D1*
X8353D1*
X8531Y20037D2*
Y20061D1*
X8555Y20109D1*
X8579Y20133D1*
X8627Y20157D1*
X8722D1*
X8770Y20133D1*
X8794Y20109D1*
X8818Y20061D1*
Y20014D1*
X8794Y19966D1*
X8746Y19894D1*
X8507Y19655D1*
X8842D1*
X40950Y6854D2*
Y6352D1*
X41237D1*
X41440Y6854D2*
X41702D1*
X41559Y6662D1*
X41631D1*
X41679Y6639D1*
X41702Y6615D1*
X41727Y6543D1*
Y6496D1*
X41702Y6424D1*
X41655Y6376D1*
X41583Y6352D1*
X41511D1*
X41440Y6376D1*
X41416Y6400D1*
X41392Y6447D1*
X36894Y18436D2*
X36847Y18413D1*
X36799Y18365D1*
X36775Y18316D1*
X36751Y18245D1*
Y18125D1*
X36775Y18053D1*
X36799Y18006D1*
X36847Y17958D1*
X36894Y17934D1*
X36990D1*
X37038Y17958D1*
X37085Y18006D1*
X37109Y18053D1*
X37134Y18125D1*
Y18245D1*
X37109Y18316D1*
X37085Y18365D1*
X37038Y18413D1*
X36990Y18436D1*
X36894D1*
X36966Y18030D2*
X37109Y17886D1*
X37288Y18340D2*
X37336Y18364D1*
X37408Y18435D1*
Y17933D1*
X30542Y22639D2*
X30757D1*
X30829Y22663D1*
X30853Y22687D1*
X30877Y22734D1*
Y22782D1*
X30853Y22830D1*
X30829Y22854D1*
X30757Y22878D1*
X30542D1*
Y22376D1*
X30709Y22639D2*
X30877Y22376D1*
X31031Y22782D2*
X31079Y22806D1*
X31151Y22877D1*
Y22376D1*
X15393Y18092D2*
Y18307D1*
X15369Y18379D1*
X15345Y18403D1*
X15297Y18427D1*
X15249D1*
X15202Y18403D1*
X15177Y18379D1*
X15154Y18307D1*
Y18092D1*
X15656D1*
X15393Y18259D2*
X15656Y18427D1*
X15274Y18605D2*
X15250D1*
X15202Y18629D1*
X15178Y18653D1*
X15154Y18701D1*
Y18797D1*
X15178Y18844D1*
X15202Y18868D1*
X15250Y18892D1*
X15297D1*
X15345Y18868D1*
X15417Y18820D1*
X15656Y18581D1*
Y18916D1*
X14960Y19509D2*
Y19724D1*
X14936Y19796D1*
X14912Y19820D1*
X14864Y19844D1*
X14816D1*
X14769Y19820D1*
X14744Y19796D1*
X14721Y19724D1*
Y19509D1*
X15223D1*
X14960Y19677D2*
X15223Y19844D1*
X14721Y20047D2*
Y20309D1*
X14912Y20166D1*
Y20238D1*
X14936Y20285D1*
X14960Y20309D1*
X15032Y20333D1*
X15079D1*
X15151Y20309D1*
X15199Y20262D1*
X15223Y20190D1*
Y20118D1*
X15199Y20047D1*
X15175Y20023D1*
X15127Y19998D1*
X8764Y14531D2*
X8979D1*
X9051Y14556D1*
X9075Y14579D1*
X9099Y14627D1*
Y14675D1*
X9075Y14723D1*
X9051Y14747D1*
X8979Y14771D1*
X8764D1*
Y14268D1*
X8931Y14531D2*
X9099Y14268D1*
X9493D2*
Y14770D1*
X9253Y14436D1*
X9612D1*
X8776Y13772D2*
X8991D1*
X9063Y13796D1*
X9087Y13820D1*
X9111Y13868D1*
Y13916D1*
X9087Y13963D1*
X9063Y13988D1*
X8991Y14011D1*
X8776D1*
Y13509D1*
X8943Y13772D2*
X9111Y13509D1*
X9552Y14011D2*
X9313D1*
X9290Y13796D1*
X9313Y13819D1*
X9385Y13844D1*
X9456D1*
X9528Y13819D1*
X9576Y13772D1*
X9600Y13700D1*
Y13653D1*
X9576Y13581D1*
X9528Y13533D1*
X9456Y13509D1*
X9385D1*
X9313Y13533D1*
X9290Y13557D1*
X9265Y13604D1*
X8788Y12191D2*
X9003D1*
X9075Y12215D1*
X9099Y12239D1*
X9123Y12286D1*
Y12334D1*
X9099Y12382D1*
X9075Y12406D1*
X9003Y12430D1*
X8788D1*
Y11928D1*
X8955Y12191D2*
X9123Y11928D1*
X9564Y12358D2*
X9540Y12406D1*
X9469Y12430D1*
X9421D1*
X9349Y12406D1*
X9301Y12334D1*
X9277Y12215D1*
Y12095D1*
X9301Y12000D1*
X9349Y11951D1*
X9421Y11928D1*
X9445D1*
X9516Y11951D1*
X9564Y12000D1*
X9588Y12071D1*
Y12095D1*
X9564Y12167D1*
X9516Y12215D1*
X9445Y12238D1*
X9421D1*
X9349Y12215D1*
X9301Y12167D1*
X9277Y12095D1*
X8776Y12950D2*
X8991D1*
X9063Y12974D1*
X9087Y12998D1*
X9111Y13046D1*
Y13094D1*
X9087Y13141D1*
X9063Y13166D1*
X8991Y13189D1*
X8776D1*
Y12687D1*
X8943Y12950D2*
X9111Y12687D1*
X9361D2*
X9600Y13189D1*
X9265D1*
X23156Y21536D2*
X23371D1*
X23442Y21560D1*
X23467Y21584D1*
X23490Y21631D1*
Y21679D1*
X23467Y21727D1*
X23442Y21751D1*
X23371Y21775D1*
X23156D1*
Y21273D1*
X23323Y21536D2*
X23490Y21273D1*
X23764Y21774D2*
X23693Y21751D1*
X23669Y21703D1*
Y21655D1*
X23693Y21608D1*
X23741Y21583D1*
X23836Y21560D1*
X23908Y21536D1*
X23956Y21488D1*
X23979Y21440D1*
Y21368D1*
X23956Y21321D1*
X23932Y21296D1*
X23860Y21273D1*
X23764D1*
X23693Y21296D1*
X23669Y21321D1*
X23645Y21368D1*
Y21440D1*
X23669Y21488D1*
X23717Y21536D1*
X23788Y21560D1*
X23884Y21583D1*
X23932Y21608D1*
X23956Y21655D1*
Y21703D1*
X23932Y21751D1*
X23860Y21774D1*
X23764D1*
X25856Y23803D2*
Y24018D1*
X25831Y24090D1*
X25807Y24114D1*
X25760Y24138D1*
X25712D1*
X25664Y24114D1*
X25640Y24090D1*
X25616Y24018D1*
Y23803D1*
X26119D1*
X25856Y23970D2*
X26119Y24138D1*
X25784Y24604D2*
X25856Y24579D1*
X25904Y24532D1*
X25927Y24460D1*
Y24436D1*
X25904Y24364D1*
X25856Y24317D1*
X25784Y24292D1*
X25760D1*
X25688Y24317D1*
X25641Y24364D1*
X25617Y24436D1*
Y24460D1*
X25641Y24532D1*
X25688Y24579D1*
X25784Y24604D1*
X25904D1*
X26023Y24579D1*
X26095Y24532D1*
X26119Y24460D1*
Y24412D1*
X26095Y24340D1*
X26047Y24317D1*
X19576Y22208D2*
Y22423D1*
X19552Y22495D1*
X19528Y22519D1*
X19481Y22543D1*
X19433D1*
X19385Y22519D1*
X19361Y22495D1*
X19337Y22423D1*
Y22208D1*
X19840D1*
X19576Y22376D2*
X19840Y22543D1*
X19433Y22697D2*
X19409Y22746D1*
X19338Y22817D1*
X19840D1*
X19338Y23115D2*
X19361Y23044D1*
X19433Y22996D1*
X19553Y22972D1*
X19625D1*
X19744Y22996D1*
X19816Y23044D1*
X19840Y23115D1*
Y23163D1*
X19816Y23235D1*
X19744Y23282D1*
X19625Y23307D1*
X19553D1*
X19433Y23282D1*
X19361Y23235D1*
X19338Y23163D1*
Y23115D1*
X19433Y23282D2*
X19744Y22996D1*
X19449Y23737D2*
X19664D1*
X19736Y23762D1*
X19761Y23786D1*
X19784Y23833D1*
Y23881D1*
X19761Y23929D1*
X19736Y23953D1*
X19664Y23977D1*
X19449D1*
Y23474D1*
X19617Y23737D2*
X19784Y23474D1*
X19939Y23881D2*
X19987Y23905D1*
X20059Y23976D1*
Y23474D1*
X20213Y23881D2*
X20261Y23905D1*
X20333Y23976D1*
Y23474D1*
X24552Y20800D2*
X24767D1*
X24838Y20824D1*
X24863Y20848D1*
X24887Y20896D1*
Y20944D1*
X24863Y20991D1*
X24838Y21016D1*
X24767Y21039D1*
X24552D1*
Y20537D1*
X24719Y20800D2*
X24887Y20537D1*
X25041Y20943D2*
X25089Y20967D1*
X25161Y21039D1*
Y20537D1*
X25340Y20919D2*
Y20943D1*
X25363Y20991D1*
X25387Y21015D1*
X25435Y21039D1*
X25531D1*
X25578Y21015D1*
X25602Y20991D1*
X25626Y20943D1*
Y20896D1*
X25602Y20848D1*
X25555Y20776D1*
X25315Y20537D1*
X25650D1*
X25826Y22521D2*
Y22736D1*
X25802Y22807D1*
X25778Y22832D1*
X25731Y22856D1*
X25683D1*
X25635Y22832D1*
X25611Y22807D1*
X25587Y22736D1*
Y22521D1*
X26090D1*
X25826Y22688D2*
X26090Y22856D1*
X25683Y23010D2*
X25659Y23058D1*
X25588Y23130D1*
X26090D1*
X25588Y23332D2*
Y23595D1*
X25779Y23452D1*
Y23524D1*
X25803Y23571D1*
X25826Y23595D1*
X25898Y23619D1*
X25946D1*
X26018Y23595D1*
X26066Y23547D1*
X26090Y23475D1*
Y23404D1*
X26066Y23332D1*
X26041Y23309D1*
X25994Y23284D1*
X21071Y17666D2*
X21286D1*
X21358Y17690D1*
X21382Y17714D1*
X21406Y17761D1*
Y17809D1*
X21382Y17857D1*
X21358Y17881D1*
X21286Y17905D1*
X21071D1*
Y17403D1*
X21238Y17666D2*
X21406Y17403D1*
X21560Y17809D2*
X21608Y17833D1*
X21680Y17904D1*
Y17403D1*
X22074D2*
Y17904D1*
X21834Y17570D1*
X22193D1*
X18701Y20789D2*
Y21004D1*
X18677Y21076D1*
X18653Y21100D1*
X18606Y21124D1*
X18558D1*
X18510Y21100D1*
X18486Y21076D1*
X18462Y21004D1*
Y20789D1*
X18965D1*
X18701Y20956D2*
X18965Y21124D1*
X18558Y21278D2*
X18534Y21326D1*
X18463Y21398D1*
X18965D1*
X18463Y21839D2*
Y21601D1*
X18678Y21577D1*
X18654Y21601D1*
X18630Y21672D1*
Y21744D1*
X18654Y21816D1*
X18701Y21864D1*
X18773Y21887D1*
X18821D1*
X18893Y21864D1*
X18941Y21816D1*
X18965Y21744D1*
Y21672D1*
X18941Y21601D1*
X18916Y21577D1*
X18869Y21552D1*
X24054Y19948D2*
Y20163D1*
X24030Y20235D1*
X24006Y20259D1*
X23959Y20283D1*
X23911D1*
X23863Y20259D1*
X23839Y20235D1*
X23815Y20163D1*
Y19948D1*
X24317D1*
X24054Y20116D2*
X24317Y20283D1*
X23911Y20437D2*
X23887Y20486D1*
X23816Y20557D1*
X24317D1*
X23887Y20999D2*
X23839Y20975D1*
X23816Y20903D1*
Y20855D1*
X23839Y20784D1*
X23911Y20736D1*
X24031Y20712D1*
X24150D1*
X24246Y20736D1*
X24294Y20784D1*
X24317Y20855D1*
Y20879D1*
X24294Y20951D1*
X24246Y20999D1*
X24174Y21022D1*
X24150D1*
X24078Y20999D1*
X24031Y20951D1*
X24007Y20879D1*
Y20855D1*
X24031Y20784D1*
X24078Y20736D1*
X24150Y20712D1*
X39172Y23703D2*
Y23918D1*
X39148Y23990D1*
X39124Y24014D1*
X39077Y24038D1*
X39029D1*
X38981Y24014D1*
X38957Y23990D1*
X38933Y23918D1*
Y23703D1*
X39436D1*
X39172Y23870D2*
X39436Y24038D1*
X39029Y24192D2*
X39005Y24240D1*
X38934Y24312D1*
X39436D1*
Y24562D2*
X38934Y24801D1*
Y24466D1*
X20590Y27092D2*
Y27307D1*
X20566Y27379D1*
X20542Y27403D1*
X20495Y27427D1*
X20447D1*
X20399Y27403D1*
X20375Y27379D1*
X20351Y27307D1*
Y27092D1*
X20853D1*
X20590Y27259D2*
X20853Y27427D1*
X20447Y27581D2*
X20423Y27629D1*
X20351Y27701D1*
X20853D1*
X20351Y27975D2*
X20375Y27903D1*
X20423Y27879D1*
X20471D1*
X20518Y27903D1*
X20543Y27951D1*
X20566Y28047D1*
X20590Y28118D1*
X20638Y28166D1*
X20686Y28190D1*
X20758D1*
X20805Y28166D1*
X20830Y28142D1*
X20853Y28070D1*
Y27975D1*
X20830Y27903D1*
X20805Y27879D1*
X20758Y27855D1*
X20686D1*
X20638Y27879D1*
X20590Y27927D1*
X20566Y27999D1*
X20543Y28094D1*
X20518Y28142D1*
X20471Y28166D1*
X20423D1*
X20375Y28142D1*
X20351Y28070D1*
Y27975D1*
X21332Y27166D2*
Y27381D1*
X21308Y27453D1*
X21284Y27477D1*
X21237Y27501D1*
X21189D1*
X21141Y27477D1*
X21117Y27453D1*
X21093Y27381D1*
Y27166D1*
X21595D1*
X21332Y27333D2*
X21595Y27501D1*
X21189Y27655D2*
X21165Y27703D1*
X21094Y27775D1*
X21595D1*
X21261Y28241D2*
X21332Y28216D1*
X21380Y28169D1*
X21404Y28097D1*
Y28073D1*
X21380Y28001D1*
X21332Y27954D1*
X21261Y27929D1*
X21237D1*
X21165Y27954D1*
X21117Y28001D1*
X21094Y28073D1*
Y28097D1*
X21117Y28169D1*
X21165Y28216D1*
X21261Y28241D1*
X21380D1*
X21500Y28216D1*
X21572Y28169D1*
X21595Y28097D1*
Y28049D1*
X21572Y27978D1*
X21524Y27954D1*
X28703Y6854D2*
X28918D1*
X28990Y6878D1*
X29014Y6902D1*
X29038Y6949D1*
Y6997D1*
X29014Y7045D1*
X28990Y7069D1*
X28918Y7093D1*
X28703D1*
Y6591D1*
X28871Y6854D2*
X29038Y6591D1*
X29575D2*
X29384Y7093D1*
X29192Y6591D1*
X29264Y6758D2*
X29504D1*
X30065Y7021D2*
X30017Y7069D1*
X29945Y7093D1*
X29850D1*
X29778Y7069D1*
X29730Y7021D1*
Y6974D1*
X29754Y6926D1*
X29778Y6902D1*
X29825Y6878D1*
X29969Y6830D1*
X30017Y6806D1*
X30041Y6782D1*
X30065Y6734D1*
Y6662D1*
X30017Y6615D1*
X29945Y6591D1*
X29850D1*
X29778Y6615D1*
X29730Y6662D1*
X30219Y6830D2*
X30435D1*
X30506Y6854D1*
X30530Y6878D1*
X30554Y6926D1*
Y6997D1*
X30530Y7045D1*
X30506Y7069D1*
X30435Y7093D1*
X30219D1*
Y6591D1*
X30709Y6997D2*
X30757Y7021D1*
X30828Y7092D1*
Y6591D1*
X28631Y14939D2*
Y14580D1*
X28655Y14508D1*
X28703Y14461D1*
X28775Y14436D1*
X28823D1*
X28895Y14461D1*
X28943Y14508D1*
X28966Y14580D1*
Y14939D1*
X29121Y14843D2*
X29169Y14867D1*
X29241Y14938D1*
Y14436D1*
X27935Y21103D2*
Y20744D1*
X27959Y20672D1*
X28007Y20625D1*
X28079Y20600D1*
X28126D1*
X28198Y20625D1*
X28246Y20672D1*
X28270Y20744D1*
Y21103D1*
X28448Y20983D2*
Y21007D1*
X28472Y21055D1*
X28496Y21078D1*
X28544Y21102D1*
X28640D1*
X28687Y21078D1*
X28711Y21055D1*
X28735Y21007D1*
Y20959D1*
X28711Y20911D1*
X28663Y20840D1*
X28424Y20600D1*
X28759D1*
X12600Y20970D2*
Y20612D1*
X12623Y20540D1*
X12672Y20492D1*
X12743Y20468D1*
X12791D1*
X12863Y20492D1*
X12911Y20540D1*
X12935Y20612D1*
Y20970D1*
X13137D2*
X13400D1*
X13256Y20779D1*
X13328D1*
X13376Y20755D1*
X13400Y20731D1*
X13424Y20659D1*
Y20612D1*
X13400Y20540D1*
X13352Y20492D1*
X13280Y20468D1*
X13208D1*
X13137Y20492D1*
X13113Y20516D1*
X13089Y20564D1*
X11893Y13655D2*
Y13297D1*
X11917Y13225D1*
X11965Y13177D1*
X12037Y13153D1*
X12084D1*
X12156Y13177D1*
X12204Y13225D1*
X12228Y13297D1*
Y13655D1*
X12621Y13153D2*
Y13655D1*
X12382Y13321D1*
X12741D1*
X31399Y19396D2*
Y19037D1*
X31423Y18965D1*
X31471Y18918D1*
X31543Y18893D1*
X31590D1*
X31662Y18918D1*
X31710Y18965D1*
X31734Y19037D1*
Y19396D1*
X32175Y19395D2*
X31936D1*
X31913Y19180D1*
X31936Y19204D1*
X32008Y19228D1*
X32079D1*
X32151Y19204D1*
X32199Y19156D1*
X32223Y19084D1*
Y19037D1*
X32199Y18965D1*
X32151Y18917D1*
X32079Y18893D1*
X32008D1*
X31936Y18917D1*
X31913Y18941D1*
X31888Y18989D1*
X36568Y22859D2*
Y22500D1*
X36592Y22428D1*
X36640Y22381D1*
X36712Y22356D1*
X36759D1*
X36831Y22381D1*
X36879Y22428D1*
X36903Y22500D1*
Y22859D1*
X37344Y22787D2*
X37320Y22834D1*
X37249Y22858D1*
X37201D1*
X37129Y22834D1*
X37081Y22763D1*
X37057Y22643D1*
Y22524D1*
X37081Y22428D1*
X37129Y22380D1*
X37201Y22356D1*
X37225D1*
X37296Y22380D1*
X37344Y22428D1*
X37368Y22500D1*
Y22524D1*
X37344Y22596D1*
X37296Y22643D1*
X37225Y22667D1*
X37201D1*
X37129Y22643D1*
X37081Y22596D1*
X37057Y22524D1*
X21042Y22764D2*
Y22406D1*
X21065Y22334D1*
X21113Y22286D1*
X21185Y22262D1*
X21233D1*
X21305Y22286D1*
X21353Y22334D1*
X21377Y22406D1*
Y22764D1*
X21627Y22262D2*
X21866Y22764D1*
X21531D1*
X21042Y20639D2*
Y20281D1*
X21066Y20209D1*
X21114Y20161D1*
X21186Y20137D1*
X21233D1*
X21305Y20161D1*
X21353Y20209D1*
X21377Y20281D1*
Y20639D1*
X21651D2*
X21579Y20615D1*
X21555Y20567D1*
Y20519D1*
X21579Y20472D1*
X21627Y20447D1*
X21722Y20424D1*
X21794Y20400D1*
X21842Y20352D1*
X21866Y20304D1*
Y20232D1*
X21842Y20185D1*
X21818Y20161D1*
X21746Y20137D1*
X21651D1*
X21579Y20161D1*
X21555Y20185D1*
X21531Y20232D1*
Y20304D1*
X21555Y20352D1*
X21603Y20400D1*
X21674Y20424D1*
X21770Y20447D1*
X21818Y20472D1*
X21842Y20519D1*
Y20567D1*
X21818Y20615D1*
X21746Y20639D1*
X21651D1*
X30983Y15270D2*
X31174Y15030D1*
Y14767D1*
X31365Y15270D2*
X31174Y15030D1*
X31520Y15174D2*
X31568Y15198D1*
X31640Y15269D1*
Y14767D1*
X15517Y25205D2*
Y25708D1*
X15852Y25205D1*
Y25708D1*
X15362Y25516D2*
X15075D1*
Y25468D1*
X15099Y25420D1*
X15123Y25396D1*
X15171Y25373D1*
X15243D1*
X15290Y25396D1*
X15338Y25445D1*
X15362Y25516D1*
Y25564D1*
X15338Y25636D1*
X15290Y25683D1*
X15243Y25708D1*
X15171D1*
X15123Y25683D1*
X15075Y25636D1*
X14634Y25396D2*
Y25779D1*
X14658Y25851D1*
X14682Y25875D1*
X14730Y25899D1*
X14802D1*
X14849Y25875D1*
X14634Y25468D2*
X14682Y25421D1*
X14730Y25396D1*
X14802D1*
X14849Y25421D1*
X14897Y25468D1*
X14921Y25540D1*
Y25588D1*
X14897Y25660D1*
X14849Y25708D1*
X14802Y25731D1*
X14730D1*
X14682Y25708D1*
X14634Y25660D1*
X14193Y25373D2*
Y25708D1*
Y25445D2*
X14240Y25396D1*
X14288Y25373D1*
X14360D1*
X14408Y25396D1*
X14455Y25445D1*
X14480Y25516D1*
Y25564D1*
X14455Y25636D1*
X14408Y25683D1*
X14360Y25708D1*
X14288D1*
X14240Y25683D1*
X14193Y25636D1*
X13967Y25205D2*
Y25612D1*
X13943Y25683D1*
X13895Y25708D1*
X13847D1*
X14038Y25373D2*
X13871D1*
X13693Y25205D2*
X13669Y25229D1*
X13645Y25205D1*
X13669Y25181D1*
X13693Y25205D1*
X13669Y25373D2*
Y25708D1*
X13490Y25373D2*
X13347Y25708D1*
X13204Y25373D1*
X13049Y25516D2*
X12762D1*
Y25468D1*
X12786Y25420D1*
X12810Y25396D1*
X12858Y25373D1*
X12930D1*
X12977Y25396D1*
X13025Y25445D1*
X13049Y25516D1*
Y25564D1*
X13025Y25636D1*
X12977Y25683D1*
X12930Y25708D1*
X12858D1*
X12810Y25683D1*
X12762Y25636D1*
X11835Y25205D2*
Y25708D1*
Y25445D2*
X11883Y25396D1*
X11931Y25373D1*
X12002D1*
X12050Y25396D1*
X12098Y25445D1*
X12122Y25516D1*
Y25564D1*
X12098Y25636D1*
X12050Y25683D1*
X12002Y25708D1*
X11931D1*
X11883Y25683D1*
X11835Y25636D1*
X11561Y25373D2*
X11609Y25396D1*
X11657Y25445D1*
X11681Y25516D1*
Y25564D1*
X11657Y25636D1*
X11609Y25683D1*
X11561Y25708D1*
X11489D1*
X11441Y25683D1*
X11394Y25636D1*
X11369Y25564D1*
Y25516D1*
X11394Y25445D1*
X11441Y25396D1*
X11489Y25373D1*
X11561D1*
X11215D2*
X11119Y25708D1*
X11024Y25373D1*
X10928Y25708D1*
X10833Y25373D1*
X10678D2*
Y25708D1*
Y25468D2*
X10606Y25396D1*
X10558Y25373D1*
X10487D1*
X10439Y25396D1*
X10415Y25468D1*
Y25708D1*
X10366Y4705D2*
Y4203D1*
X10031Y4705D1*
Y4203D1*
X10520Y4394D2*
X10807D1*
Y4442D1*
X10783Y4490D1*
X10759Y4514D1*
X10711Y4538D1*
X10639D1*
X10592Y4514D1*
X10544Y4466D1*
X10520Y4394D1*
Y4347D1*
X10544Y4275D1*
X10592Y4227D1*
X10639Y4203D1*
X10711D1*
X10759Y4227D1*
X10807Y4275D1*
X11248Y4514D2*
Y4131D1*
X11224Y4060D1*
X11201Y4035D1*
X11153Y4012D1*
X11081D1*
X11033Y4035D1*
X11248Y4442D2*
X11201Y4490D1*
X11153Y4514D1*
X11081D1*
X11033Y4490D1*
X10985Y4442D1*
X10961Y4370D1*
Y4322D1*
X10985Y4251D1*
X11033Y4203D1*
X11081Y4179D1*
X11153D1*
X11201Y4203D1*
X11248Y4251D1*
X11689Y4538D2*
Y4203D1*
Y4466D2*
X11642Y4514D1*
X11594Y4538D1*
X11523D1*
X11474Y4514D1*
X11427Y4466D1*
X11403Y4394D1*
Y4347D1*
X11427Y4275D1*
X11474Y4227D1*
X11523Y4203D1*
X11594D1*
X11642Y4227D1*
X11689Y4275D1*
X11916Y4705D2*
Y4299D1*
X11939Y4227D1*
X11988Y4203D1*
X12035D1*
X11844Y4538D2*
X12011D1*
X12189Y4705D2*
X12213Y4682D1*
X12238Y4705D1*
X12213Y4730D1*
X12189Y4705D1*
X12213Y4538D2*
Y4203D1*
X12392Y4538D2*
X12536Y4203D1*
X12679Y4538D1*
X12833Y4394D2*
X13120D1*
Y4442D1*
X13096Y4490D1*
X13073Y4514D1*
X13024Y4538D1*
X12953D1*
X12905Y4514D1*
X12857Y4466D1*
X12833Y4394D1*
Y4347D1*
X12857Y4275D1*
X12905Y4227D1*
X12953Y4203D1*
X13024D1*
X13073Y4227D1*
X13120Y4275D1*
X14047Y4705D2*
Y4203D1*
Y4466D2*
X14000Y4514D1*
X13952Y4538D1*
X13880D1*
X13832Y4514D1*
X13784Y4466D1*
X13760Y4394D1*
Y4347D1*
X13784Y4275D1*
X13832Y4227D1*
X13880Y4203D1*
X13952D1*
X14000Y4227D1*
X14047Y4275D1*
X14321Y4538D2*
X14274Y4514D1*
X14225Y4466D1*
X14202Y4394D1*
Y4347D1*
X14225Y4275D1*
X14274Y4227D1*
X14321Y4203D1*
X14393D1*
X14441Y4227D1*
X14489Y4275D1*
X14513Y4347D1*
Y4394D1*
X14489Y4466D1*
X14441Y4514D1*
X14393Y4538D1*
X14321D1*
X14667D2*
X14763Y4203D1*
X14858Y4538D1*
X14954Y4203D1*
X15050Y4538D1*
X15204D2*
Y4203D1*
Y4442D2*
X15276Y4514D1*
X15324Y4538D1*
X15395D1*
X15443Y4514D1*
X15467Y4442D1*
Y4203D1*
X41454Y19736D2*
D21*
X41856D1*
X41454Y19468D1*
X41856D1*
X41703Y19859D2*
Y20089D1*
X41664D1*
X41626Y20070D1*
X41607Y20051D1*
X41588Y20012D1*
Y19955D1*
X41607Y19917D1*
X41645Y19878D1*
X41703Y19859D1*
X41741D1*
X41798Y19878D1*
X41836Y19917D1*
X41856Y19955D1*
Y20012D1*
X41836Y20051D1*
X41798Y20089D1*
X41607Y20442D2*
X41913D1*
X41970Y20423D1*
X41990Y20404D1*
X42009Y20365D1*
Y20308D1*
X41990Y20270D1*
X41664Y20442D2*
X41626Y20404D1*
X41607Y20365D1*
Y20308D1*
X41626Y20270D1*
X41664Y20231D1*
X41722Y20212D1*
X41760D1*
X41817Y20231D1*
X41856Y20270D1*
X41875Y20308D1*
Y20365D1*
X41856Y20404D1*
X41817Y20442D1*
X41588Y20795D2*
X41856D1*
X41645D2*
X41607Y20757D1*
X41588Y20718D1*
Y20661D1*
X41607Y20623D1*
X41645Y20585D1*
X41703Y20565D1*
X41741D1*
X41798Y20585D1*
X41836Y20623D1*
X41856Y20661D1*
Y20718D1*
X41836Y20757D1*
X41798Y20795D1*
X41454Y20976D2*
X41779D1*
X41836Y20995D1*
X41856Y21033D1*
Y21071D1*
X41588Y20918D2*
Y21052D1*
X41454Y21195D2*
X41473Y21214D1*
X41454Y21233D1*
X41434Y21214D1*
X41454Y21195D1*
X41588Y21214D2*
X41856D1*
X41588Y21357D2*
X41856Y21472D1*
X41588Y21586D1*
X41703Y21710D2*
Y21939D1*
X41664D1*
X41626Y21920D1*
X41607Y21901D1*
X41588Y21863D1*
Y21805D1*
X41607Y21767D1*
X41645Y21729D1*
X41703Y21710D1*
X41741D1*
X41798Y21729D1*
X41836Y21767D1*
X41856Y21805D1*
Y21863D1*
X41836Y21901D1*
X41798Y21939D1*
X41454Y22681D2*
X41856D1*
X41645D2*
X41607Y22643D1*
X41588Y22604D1*
Y22547D1*
X41607Y22509D1*
X41645Y22471D1*
X41703Y22452D1*
X41741D1*
X41798Y22471D1*
X41836Y22509D1*
X41856Y22547D1*
Y22604D1*
X41836Y22643D1*
X41798Y22681D1*
X41588Y22900D2*
X41607Y22862D1*
X41645Y22824D1*
X41703Y22805D1*
X41741D1*
X41798Y22824D1*
X41836Y22862D1*
X41856Y22900D1*
Y22957D1*
X41836Y22996D1*
X41798Y23034D1*
X41741Y23053D1*
X41703D1*
X41645Y23034D1*
X41607Y22996D1*
X41588Y22957D1*
Y22900D1*
Y23177D2*
X41856Y23253D1*
X41588Y23330D1*
X41856Y23406D1*
X41588Y23483D1*
Y23606D2*
X41856D1*
X41664D2*
X41607Y23664D1*
X41588Y23702D1*
Y23759D1*
X41607Y23798D1*
X41664Y23817D1*
X41856D1*
X41454Y8318D2*
X41856D1*
X41454Y8050D1*
X41856D1*
X41703Y8442D2*
Y8671D1*
X41664D1*
X41626Y8652D1*
X41607Y8633D1*
X41588Y8595D1*
Y8537D1*
X41607Y8499D1*
X41645Y8461D1*
X41703Y8442D1*
X41741D1*
X41798Y8461D1*
X41836Y8499D1*
X41856Y8537D1*
Y8595D1*
X41836Y8633D1*
X41798Y8671D1*
X41607Y9024D2*
X41913D1*
X41970Y9005D1*
X41990Y8986D1*
X42009Y8948D1*
Y8890D1*
X41990Y8852D1*
X41664Y9024D2*
X41626Y8986D1*
X41607Y8948D1*
Y8890D1*
X41626Y8852D1*
X41664Y8814D1*
X41722Y8795D1*
X41760D1*
X41817Y8814D1*
X41856Y8852D1*
X41875Y8890D1*
Y8948D1*
X41856Y8986D1*
X41817Y9024D1*
X41588Y9377D2*
X41856D1*
X41645D2*
X41607Y9339D1*
X41588Y9301D1*
Y9244D1*
X41607Y9205D1*
X41645Y9167D1*
X41703Y9148D1*
X41741D1*
X41798Y9167D1*
X41836Y9205D1*
X41856Y9244D1*
Y9301D1*
X41836Y9339D1*
X41798Y9377D1*
X41454Y9558D2*
X41779D1*
X41836Y9577D1*
X41856Y9616D1*
Y9654D1*
X41588Y9501D2*
Y9635D1*
X41454Y9777D2*
X41473Y9796D1*
X41454Y9816D1*
X41434Y9796D1*
X41454Y9777D1*
X41588Y9796D2*
X41856D1*
X41588Y9939D2*
X41856Y10054D1*
X41588Y10169D1*
X41703Y10292D2*
Y10522D1*
X41664D1*
X41626Y10503D1*
X41607Y10484D1*
X41588Y10445D1*
Y10388D1*
X41607Y10350D1*
X41645Y10311D1*
X41703Y10292D1*
X41741D1*
X41798Y10311D1*
X41836Y10350D1*
X41856Y10388D1*
Y10445D1*
X41836Y10484D1*
X41798Y10522D1*
X41454Y11264D2*
X41856D1*
X41645D2*
X41607Y11226D1*
X41588Y11187D1*
Y11130D1*
X41607Y11092D1*
X41645Y11053D1*
X41703Y11034D1*
X41741D1*
X41798Y11053D1*
X41836Y11092D1*
X41856Y11130D1*
Y11187D1*
X41836Y11226D1*
X41798Y11264D1*
X41588Y11483D2*
X41607Y11445D1*
X41645Y11406D1*
X41703Y11387D1*
X41741D1*
X41798Y11406D1*
X41836Y11445D1*
X41856Y11483D1*
Y11540D1*
X41836Y11579D1*
X41798Y11617D1*
X41741Y11636D1*
X41703D1*
X41645Y11617D1*
X41607Y11579D1*
X41588Y11540D1*
Y11483D1*
Y11760D2*
X41856Y11836D1*
X41588Y11913D1*
X41856Y11989D1*
X41588Y12066D1*
Y12189D2*
X41856D1*
X41664D2*
X41607Y12247D1*
X41588Y12285D1*
Y12342D1*
X41607Y12381D1*
X41664Y12400D1*
X41856D1*
X31237Y24399D2*
D47*
X31668D1*
X31810Y24447D1*
X31859Y24496D1*
X31907Y24591D1*
Y24734D1*
X31859Y24829D1*
X31810Y24878D1*
X31668Y24926D1*
X31237D1*
Y23921D1*
X32215Y24926D2*
Y23921D1*
X32550D1*
X32694Y23969D1*
X32790Y24064D1*
X32838Y24161D1*
X32885Y24303D1*
Y24543D1*
X32838Y24687D1*
X32790Y24782D1*
X32694Y24878D1*
X32550Y24926D1*
X32215D1*
X33194D2*
Y23921D1*
X7713Y22500D2*
Y21639D1*
X7283Y22069D2*
X8145D1*
X7136Y18008D2*
D106*
X6944Y18510D1*
X6753Y18008D1*
X6825Y18175D2*
X7064D1*
X6753Y17526D2*
Y17023D1*
X6968D1*
X7040Y17048D1*
X7064Y17071D1*
X7088Y17119D1*
Y17191D1*
X7064Y17239D1*
X7040Y17263D1*
X6968Y17286D1*
X7040Y17311D1*
X7064Y17334D1*
X7088Y17382D1*
Y17430D1*
X7064Y17478D1*
X7040Y17502D1*
X6968Y17526D1*
X6753D1*
Y17286D2*
X6968D1*
X4186Y15219D2*
D21*
X4224Y15238D1*
X4282Y15295D1*
Y14894D1*
X4224Y14311D2*
X4434D1*
X4320Y14158D1*
X4377D1*
X4415Y14139D1*
X4434Y14120D1*
X4454Y14063D1*
Y14025D1*
X4434Y13967D1*
X4396Y13929D1*
X4339Y13910D1*
X4281D1*
X4224Y13929D1*
X4205Y13948D1*
X4186Y13986D1*
X4415Y13327D2*
X4224D1*
X4205Y13155D1*
X4224Y13174D1*
X4282Y13193D1*
X4339D1*
X4396Y13174D1*
X4435Y13136D1*
X4454Y13078D1*
Y13040D1*
X4435Y12983D1*
X4396Y12944D1*
X4339Y12925D1*
X4282D1*
X4224Y12944D1*
X4205Y12964D1*
X4186Y13002D1*
X4262Y11941D2*
X4454Y12343D1*
X4186D1*
X4435Y11225D2*
X4415Y11167D1*
X4377Y11129D1*
X4320Y11110D1*
X4301D1*
X4243Y11129D1*
X4205Y11167D1*
X4186Y11225D1*
Y11244D1*
X4205Y11301D1*
X4243Y11339D1*
X4301Y11358D1*
X4320D1*
X4377Y11339D1*
X4415Y11301D1*
X4435Y11225D1*
Y11129D1*
X4415Y11033D1*
X4377Y10976D1*
X4320Y10957D1*
X4282D1*
X4224Y10976D1*
X4205Y11014D1*
X4088Y10298D2*
X4126Y10317D1*
X4183Y10374D1*
Y9973D1*
X4307Y10298D2*
X4345Y10317D1*
X4403Y10374D1*
Y9973D1*
X3989Y9313D2*
X4028Y9333D1*
X4085Y9390D1*
Y8988D1*
X4247Y9390D2*
X4457D1*
X4343Y9237D1*
X4400D1*
X4438Y9218D1*
X4457Y9199D1*
X4477Y9141D1*
Y9103D1*
X4457Y9046D1*
X4419Y9007D1*
X4362Y8988D1*
X4304D1*
X4247Y9007D1*
X4228Y9027D1*
X4209Y9065D1*
X3989Y8329D2*
X4028Y8349D1*
X4085Y8406D1*
Y8004D1*
X4438Y8406D2*
X4247D1*
X4228Y8234D1*
X4247Y8253D1*
X4305Y8272D1*
X4362D1*
X4419Y8253D1*
X4458Y8215D1*
X4477Y8157D1*
Y8119D1*
X4458Y8062D1*
X4419Y8023D1*
X4362Y8004D1*
X4305D1*
X4247Y8023D1*
X4228Y8043D1*
X4209Y8081D1*
X3989Y7246D2*
X4028Y7266D1*
X4085Y7323D1*
Y6921D1*
X4285D2*
X4477Y7323D1*
X4209D1*
X17717Y4353D2*
D47*
X18269D1*
X7063Y4332D2*
D110*
X7450D1*
X7087Y25613D2*
D47*
X7639D1*
X18110D2*
X18663D1*
X42736Y22521D2*
Y23074D1*
Y18190D2*
Y18743D1*
Y11104D2*
Y11656D1*
Y6773D2*
Y7326D1*
M02*
