G04 DipTrace 2.4.0.2*
%INBottom.gbr*%
%MOIN*%
%ADD13C,0.0197*%
%ADD14C,0.0125*%
%ADD15C,0.025*%
%ADD17C,0.0591*%
%ADD18C,0.0394*%
%ADD19C,0.013*%
%ADD23R,0.0748X0.0748*%
%ADD24C,0.0748*%
%ADD30R,0.0669X0.0669*%
%ADD31C,0.0669*%
%ADD32R,0.0984X0.0984*%
%ADD33C,0.0984*%
%ADD34R,0.063X0.063*%
%ADD35C,0.063*%
%ADD36R,0.0984X0.0748*%
%ADD37O,0.0984X0.0748*%
%ADD40C,0.2165*%
%ADD42C,0.0591*%
%ADD43C,0.2165*%
%ADD50C,0.048*%
%ADD51C,0.04*%
%FSLAX44Y44*%
G04*
G70*
G90*
G75*
G01*
%LNBottom*%
%LPD*%
X17055Y24441D2*
D13*
X16055D1*
X15055D1*
X14055D1*
X13055D1*
X12055D1*
X11055D1*
X10055D1*
X9055D1*
X5315Y20079D2*
X5217D1*
X4429Y20866D1*
Y22835D1*
X4724Y23130D1*
X5402D1*
X7185D1*
X8465Y24409D1*
X9024D1*
X9055Y24441D1*
X5315Y24606D2*
Y23216D1*
X5402Y23130D1*
X27868Y19587D2*
X32579D1*
X36016Y12795D2*
X37697D1*
X38878Y13976D1*
X39535D1*
X39551Y13992D1*
X27165Y10658D2*
Y8268D1*
Y7283D1*
X26305Y6423D1*
X20516D1*
X19954Y6985D1*
X19094D1*
X18434D1*
X16929Y5480D1*
X28329Y11548D2*
X28055D1*
X27165Y10658D1*
X15391Y8298D2*
X15766D1*
X15736Y8268D1*
X24579D1*
X27165D1*
X24579Y9110D2*
Y8268D1*
X34012Y4817D2*
D14*
X33997D1*
X33516Y5298D1*
X31012D1*
X28012D1*
X25932D1*
X24012D1*
X20993D1*
X20766D1*
X20704Y5235D1*
X20516Y5423D1*
Y6423D1*
X31012Y4817D2*
Y5298D1*
X28012Y5817D2*
Y5298D1*
X26012Y4817D2*
Y5217D1*
X25932Y5298D1*
X24012Y4817D2*
Y5298D1*
X20993D2*
Y5798D1*
X21012Y5817D1*
X38012Y4817D2*
Y4856D1*
X38454Y5298D1*
X40329D1*
X40391Y5360D1*
X40454D1*
X40579Y5485D1*
Y5923D1*
X41579Y6923D1*
Y7860D1*
X41141Y8298D1*
X40581D1*
X40551Y8268D1*
X19095Y5317D2*
X19094Y6985D1*
X41930Y5317D2*
X41579Y5668D1*
Y6923D1*
X41930Y24608D2*
X40551Y23230D1*
Y21685D1*
X19095Y24608D2*
X18928Y24441D1*
X17055D1*
X18799Y16732D2*
D13*
X11909D1*
X11319Y17323D1*
D14*
Y17561D1*
X11360D1*
X11811Y18012D1*
X23704Y18423D2*
X25016Y19735D1*
Y20110D1*
X19454Y14047D2*
Y16078D1*
X18799Y16732D1*
X6079Y7110D2*
X6141D1*
X7891Y8860D1*
X23454D1*
X26700Y12106D1*
X28839D1*
X29266Y12673D2*
X29079Y12485D1*
X26766D1*
X23391Y9110D1*
X7829D1*
X6329Y7610D1*
X5516D1*
X5079Y7173D1*
Y7110D1*
X6079Y8110D2*
X7329Y9360D1*
X23329D1*
X26766Y12798D1*
X28891D1*
X29266Y13173D1*
X5079Y8110D2*
X5579Y8610D1*
X6266D1*
X7266Y9610D1*
X23204D1*
X26579Y12985D1*
X28579D1*
X29266Y13673D1*
X28891Y14110D2*
X28016Y13235D1*
X26516D1*
X23141Y9860D1*
X6954D1*
X6204Y9110D1*
X6079D1*
X5079D2*
X5579Y9610D1*
X6391D1*
X6891Y10110D1*
X23079D1*
X26454Y13485D1*
X27704D1*
X28266Y14048D1*
X6079Y10110D2*
X6329Y10360D1*
X23016D1*
X26385Y13729D1*
X27411D1*
X28248Y14567D1*
X27264Y14173D2*
X26517D1*
X22954Y10610D1*
X5516D1*
X5079Y10173D1*
Y10110D1*
X6079Y11110D2*
Y10860D1*
X22891D1*
X25829Y13798D1*
Y13985D1*
X5079Y11110D2*
X5579Y11610D1*
X6266D1*
X6766Y11110D1*
X22829D1*
X25204Y13485D1*
Y13985D1*
Y14485D2*
X24829Y14110D1*
Y13423D1*
X22766Y11360D1*
X6829D1*
X6079Y12110D1*
X25454Y14923D2*
X25204D1*
X25075Y14794D1*
X24950D1*
X24579Y14423D1*
Y13485D1*
X22704Y11610D1*
X7266D1*
X6266Y12610D1*
X5579D1*
X5079Y12110D1*
X24954Y15173D2*
X24329Y14548D1*
Y13548D1*
X22641Y11860D1*
X7391D1*
X6141Y13110D1*
X6079D1*
X24579Y15548D2*
X24079Y15048D1*
Y13610D1*
X22579Y12110D1*
X7766D1*
X6266Y13610D1*
X5579D1*
X5079Y13110D1*
X6079Y14110D2*
X7829Y12360D1*
X22516D1*
X23829Y13673D1*
Y15298D1*
X24454Y15923D1*
X24954D1*
X5079Y14110D2*
X5579Y14610D1*
X6266D1*
X6579Y14298D1*
Y14091D1*
X8059Y12610D1*
X22454D1*
X23579Y13735D1*
Y15360D1*
X24516Y16298D1*
X28204Y18485D2*
X30579Y16110D1*
Y12485D1*
X36516Y6548D1*
Y5298D1*
X36997Y4817D1*
X37012D1*
X28204Y18985D2*
X27829Y18610D1*
Y18360D1*
X28454Y17735D1*
Y17610D1*
X30329Y15735D1*
Y12360D1*
X35516Y7173D1*
Y5235D1*
X35934Y4817D1*
X36012D1*
X5329Y17235D2*
X6584D1*
X6791Y17028D1*
Y14210D1*
X8141Y12860D1*
X10266D1*
X11016Y13610D1*
X12141D1*
X12391Y13360D1*
X22266D1*
X22829Y13923D1*
Y15735D1*
X26454Y19360D1*
Y21173D1*
X5329Y18235D2*
X6469D1*
X6988Y17717D1*
Y14326D1*
X8204Y13110D1*
X10204D1*
X10891Y13798D1*
X12266D1*
X12454Y13610D1*
X22204D1*
X22579Y13985D1*
Y15798D1*
X26079Y19298D1*
Y21360D1*
X26266Y21548D1*
X26829D1*
X27016Y21360D1*
X11704Y12985D2*
X12016D1*
X12141Y12860D1*
X22391D1*
X23329Y13798D1*
Y15610D1*
X24829Y17110D1*
X25829D1*
X26579Y17860D1*
X26891D1*
X11266Y13235D2*
Y13360D1*
X12079D1*
X12329Y13110D1*
X22329D1*
X23079Y13860D1*
Y15673D1*
X24766Y17360D1*
X25766D1*
X26641Y18235D1*
X27016D1*
X27329Y17923D1*
Y17673D1*
X21766Y22048D2*
X19891D1*
X19704Y22235D1*
X31335Y17929D2*
X31704Y18298D1*
Y18610D1*
X31516Y18798D1*
X31141D1*
X30704Y18360D1*
Y17673D1*
X30829Y17548D1*
Y12610D1*
X37204Y6235D1*
X37766D1*
X38012Y5989D1*
Y5817D1*
X31335Y18429D2*
X30954Y18048D1*
Y17798D1*
X31079Y17673D1*
Y12673D1*
X37266Y6485D1*
X38454D1*
X39012Y5927D1*
Y5817D1*
X8929Y6480D2*
D17*
X9929D1*
X10929D1*
X11929D1*
X12929D1*
X13929D1*
X14929D1*
X15929D1*
X16929D1*
X13954Y18602D2*
D13*
Y18504D1*
X11220D1*
X9449Y20276D1*
X8366Y13698D2*
D17*
X7480Y14584D1*
Y19882D1*
X5315Y22047D1*
X9055Y23441D2*
X10055D1*
X11055D1*
X12055D1*
X13055D1*
X14055D1*
X15055D1*
X16055D1*
X17055D1*
X12011Y17298D2*
D18*
X23516D1*
X25704Y19485D1*
Y21570D1*
X26119Y21985D1*
X32704D1*
X32766D1*
X33079Y21673D1*
Y17610D1*
X31454Y15985D1*
Y12860D1*
X37424Y6890D1*
X40748D1*
X40945Y7087D1*
X40551Y12992D2*
D14*
X42126Y12985D1*
X39551Y19685D2*
D17*
Y20685D1*
Y21685D1*
Y8268D2*
Y9268D1*
Y10268D1*
X8563Y15157D2*
D14*
X12008D1*
X12205Y15354D1*
X16766Y17798D2*
D18*
X22141D1*
X23579Y19235D1*
X24329Y19985D1*
X21442Y21185D2*
D14*
X23391Y19235D1*
X23579D1*
D51*
X27868Y19587D3*
X32579D3*
X36016Y12795D3*
X27165Y10658D3*
X28329Y11548D3*
X27165Y10658D3*
X15391Y8298D3*
X24579Y9110D3*
X18799Y16732D3*
X23704Y18423D3*
X19454Y14047D3*
X18799Y16732D3*
X28839Y12106D3*
X29266Y12673D3*
Y13173D3*
Y13673D3*
X28891Y14110D3*
X28266Y14048D3*
X28248Y14567D3*
X27264Y14173D3*
X25829Y13985D3*
X25204D3*
Y14485D3*
X25454Y14923D3*
X24954Y15173D3*
X24579Y15548D3*
X24954Y15923D3*
X24516Y16298D3*
X28204Y18485D3*
Y18985D3*
X26454Y21173D3*
X27016Y21360D3*
X11704Y12985D3*
X26891Y17860D3*
X11266Y13235D3*
X27329Y17673D3*
X21766Y22048D3*
X19704Y22235D3*
X31335Y17929D3*
Y18429D3*
X13954Y18602D3*
X9449Y20276D3*
X8366Y13698D3*
X32704Y21985D3*
X12011Y17298D3*
X40945Y7087D3*
X42126Y12985D3*
X8563Y15157D3*
X12205Y15354D3*
X16766Y17798D3*
X24329Y19985D3*
X21442Y21185D3*
X12205Y19783D3*
Y19390D3*
Y18996D3*
X11024Y20669D3*
X12205D3*
X11811D3*
X11417D3*
X12205Y18012D3*
X11811D3*
X20141Y25360D3*
X26641Y24110D3*
X32329Y14860D3*
X34579Y17548D3*
X30579Y19985D3*
X29079Y18235D3*
X33268Y22736D3*
X33829Y20235D3*
X34016Y11673D3*
X32016Y9860D3*
X38704Y12485D3*
X42126Y11024D3*
X35079Y6860D3*
X19016Y7485D3*
X32266Y22985D3*
X9329Y15610D3*
X7087Y5512D3*
X18641Y21610D3*
X19516Y19610D3*
X27559Y22835D3*
X28766Y21423D3*
X38016Y18110D3*
X31454Y8048D3*
X29266Y14923D3*
X34766Y10673D3*
X42204Y18798D3*
X25016Y20110D3*
X12598Y18012D3*
X12992D3*
X38780Y23130D3*
X36024Y24409D3*
X32579Y8735D3*
X31329Y9360D3*
X34579Y11173D3*
X34141Y12235D3*
X6424Y25217D2*
D15*
X17663D1*
X6174Y24968D2*
X8745D1*
X9365D2*
X9745D1*
X10365D2*
X10745D1*
X11365D2*
X11745D1*
X12365D2*
X12745D1*
X13365D2*
X13745D1*
X14365D2*
X14745D1*
X15365D2*
X15745D1*
X5924Y24719D2*
X8499D1*
X5678Y24471D2*
X8433D1*
X5428Y24222D2*
X8472D1*
X5178Y23973D2*
X8655D1*
X4932Y23725D2*
X8503D1*
X4682Y23476D2*
X8433D1*
X4481Y23227D2*
X8472D1*
X4481Y22979D2*
X8648D1*
X17463D2*
X17663D1*
X6096Y22730D2*
X8507D1*
X6096Y22481D2*
X8433D1*
X6096Y22233D2*
X8468D1*
X6194Y21984D2*
X8644D1*
X9467D2*
X9644D1*
X10467D2*
X10644D1*
X11467D2*
X11644D1*
X12467D2*
X12644D1*
X13467D2*
X13644D1*
X14467D2*
X14644D1*
X15467D2*
X15644D1*
X16467D2*
X16644D1*
X17467D2*
X17663D1*
X6444Y21735D2*
X17663D1*
X6694Y21487D2*
X17663D1*
X4481Y21238D2*
X5308D1*
X6940D2*
X17663D1*
X4481Y20989D2*
X5558D1*
X7190D2*
X17663D1*
X4481Y20740D2*
X4921D1*
X5709D2*
X5803D1*
X7440D2*
X17663D1*
X4481Y20492D2*
X4655D1*
X5975D2*
X6054D1*
X7686D2*
X9011D1*
X9885D2*
X17663D1*
X6080Y20243D2*
X6304D1*
X7932D2*
X8960D1*
X10022D2*
X17663D1*
X6092Y19994D2*
X6550D1*
X8053D2*
X9054D1*
X10268D2*
X17663D1*
X4481Y19746D2*
X4608D1*
X6018D2*
X6800D1*
X8065D2*
X9440D1*
X10518D2*
X17663D1*
X4481Y19497D2*
X4804D1*
X5823D2*
X6894D1*
X8065D2*
X9690D1*
X10768D2*
X17663D1*
X4481Y19248D2*
X6894D1*
X8065D2*
X9937D1*
X11014D2*
X17663D1*
X4481Y19000D2*
X6894D1*
X8065D2*
X10187D1*
X11264D2*
X13687D1*
X14221D2*
X17663D1*
X9600Y18751D2*
X10437D1*
X14420D2*
X17663D1*
X9850Y18502D2*
X10683D1*
X14432D2*
X17663D1*
X10096Y18254D2*
X10933D1*
X14287D2*
X16651D1*
X10346Y18005D2*
X16323D1*
X10596Y17756D2*
X11909D1*
X16481Y25041D2*
X17655D1*
Y23841D1*
X17501D1*
X17596Y23699D1*
X17638Y23582D1*
X17655Y23441D1*
X17642Y23317D1*
X17603Y23198D1*
X17541Y23090D1*
X17458Y22997D1*
X17386Y22944D1*
X17445Y22896D1*
X17531Y22806D1*
X17596Y22699D1*
X17638Y22582D1*
X17655Y22441D1*
X17642Y22317D1*
X17603Y22198D1*
X17541Y22090D1*
X17458Y21997D1*
X17357Y21923D1*
X17244Y21872D1*
X17122Y21845D1*
X16997Y21844D1*
X16875Y21869D1*
X16760Y21919D1*
X16659Y21991D1*
X16556Y22113D1*
X16458Y21997D1*
X16357Y21923D1*
X16244Y21872D1*
X16122Y21845D1*
X15997Y21844D1*
X15875Y21869D1*
X15760Y21919D1*
X15659Y21991D1*
X15556Y22113D1*
X15458Y21997D1*
X15357Y21923D1*
X15244Y21872D1*
X15122Y21845D1*
X14997Y21844D1*
X14875Y21869D1*
X14760Y21919D1*
X14659Y21991D1*
X14556Y22113D1*
X14458Y21997D1*
X14357Y21923D1*
X14244Y21872D1*
X14122Y21845D1*
X13997Y21844D1*
X13875Y21869D1*
X13760Y21919D1*
X13659Y21991D1*
X13556Y22113D1*
X13458Y21997D1*
X13357Y21923D1*
X13244Y21872D1*
X13122Y21845D1*
X12997Y21844D1*
X12875Y21869D1*
X12760Y21919D1*
X12659Y21991D1*
X12556Y22113D1*
X12458Y21997D1*
X12357Y21923D1*
X12244Y21872D1*
X12122Y21845D1*
X11997Y21844D1*
X11875Y21869D1*
X11760Y21919D1*
X11659Y21991D1*
X11556Y22113D1*
X11458Y21997D1*
X11357Y21923D1*
X11244Y21872D1*
X11122Y21845D1*
X10997Y21844D1*
X10875Y21869D1*
X10760Y21919D1*
X10659Y21991D1*
X10556Y22113D1*
X10458Y21997D1*
X10357Y21923D1*
X10244Y21872D1*
X10122Y21845D1*
X9997Y21844D1*
X9875Y21869D1*
X9760Y21919D1*
X9659Y21991D1*
X9556Y22113D1*
X9458Y21997D1*
X9357Y21923D1*
X9244Y21872D1*
X9122Y21845D1*
X8997Y21844D1*
X8875Y21869D1*
X8760Y21919D1*
X8659Y21991D1*
X8574Y22083D1*
X8510Y22190D1*
X8470Y22308D1*
X8456Y22432D1*
X8467Y22557D1*
X8503Y22676D1*
X8564Y22785D1*
X8646Y22879D1*
X8724Y22938D1*
X8659Y22991D1*
X8574Y23083D1*
X8510Y23190D1*
X8470Y23308D1*
X8456Y23432D1*
X8467Y23557D1*
X8503Y23676D1*
X8564Y23785D1*
X8646Y23879D1*
X8724Y23938D1*
X8623Y24026D1*
X8546Y24124D1*
X8491Y24237D1*
X8461Y24358D1*
X8457Y24482D1*
X8478Y24605D1*
X8525Y24721D1*
X8594Y24825D1*
X8684Y24912D1*
X8789Y24978D1*
X8906Y25022D1*
X9030Y25040D1*
X9154Y25032D1*
X9275Y24999D1*
X9385Y24941D1*
X9482Y24862D1*
X9555Y24772D1*
X9628Y24862D1*
X9724Y24941D1*
X9835Y24999D1*
X9955Y25032D1*
X10080Y25040D1*
X10203Y25022D1*
X10320Y24979D1*
X10426Y24912D1*
X10515Y24825D1*
X10555Y24772D1*
X10628Y24862D1*
X10724Y24941D1*
X10835Y24999D1*
X10955Y25032D1*
X11080Y25040D1*
X11203Y25022D1*
X11320Y24979D1*
X11426Y24912D1*
X11515Y24825D1*
X11555Y24772D1*
X11628Y24862D1*
X11724Y24941D1*
X11835Y24999D1*
X11955Y25032D1*
X12080Y25040D1*
X12203Y25022D1*
X12320Y24979D1*
X12426Y24912D1*
X12515Y24825D1*
X12555Y24772D1*
X12628Y24862D1*
X12724Y24941D1*
X12835Y24999D1*
X12955Y25032D1*
X13080Y25040D1*
X13203Y25022D1*
X13320Y24979D1*
X13426Y24912D1*
X13515Y24825D1*
X13555Y24772D1*
X13628Y24862D1*
X13724Y24941D1*
X13835Y24999D1*
X13955Y25032D1*
X14080Y25040D1*
X14203Y25022D1*
X14320Y24979D1*
X14426Y24912D1*
X14515Y24825D1*
X14555Y24772D1*
X14628Y24862D1*
X14724Y24941D1*
X14835Y24999D1*
X14955Y25032D1*
X15080Y25040D1*
X15203Y25022D1*
X15320Y24979D1*
X15426Y24912D1*
X15515Y24825D1*
X15555Y24772D1*
X15628Y24862D1*
X15724Y24941D1*
X15835Y24999D1*
X15955Y25032D1*
X16080Y25040D1*
X16203Y25022D1*
X16320Y24979D1*
X16426Y24912D1*
X16456Y24891D1*
Y25041D1*
X16481D1*
X4683Y22804D2*
X6072D1*
Y22082D1*
X7876Y20278D1*
X7954Y20181D1*
X8009Y20068D1*
X8037Y19943D1*
X8041Y19507D1*
Y18925D1*
X9354Y18922D1*
X9439Y18888D1*
X10585Y17741D1*
X11879Y17743D1*
X11981Y17758D1*
X16304Y17760D1*
X16303Y17837D1*
X16330Y17959D1*
X16388Y18069D1*
X16474Y18159D1*
X16580Y18224D1*
X16700Y18258D1*
X17692Y18260D1*
X17690Y24493D1*
Y25466D1*
X6645D1*
X4455Y23274D1*
X4456Y18924D1*
X6921D1*
X6920Y19650D1*
X5281Y21289D1*
X4558Y21290D1*
Y22804D1*
X4683D1*
X6072Y20054D2*
X6052Y19905D1*
X6003Y19764D1*
X5928Y19634D1*
X5828Y19522D1*
X5709Y19432D1*
X5574Y19367D1*
X5429Y19330D1*
X5279Y19323D1*
X5131Y19344D1*
X4990Y19395D1*
X4862Y19472D1*
X4751Y19573D1*
X4663Y19694D1*
X4600Y19830D1*
X4565Y19976D1*
X4559Y20125D1*
X4583Y20273D1*
X4636Y20413D1*
X4715Y20541D1*
X4818Y20650D1*
X4940Y20736D1*
X5077Y20797D1*
X5223Y20830D1*
X5372Y20834D1*
X5520Y20808D1*
X5659Y20753D1*
X5785Y20672D1*
X5893Y20568D1*
X5978Y20444D1*
X6037Y20307D1*
X6068Y20160D1*
X6072Y20054D1*
X13903Y18141D2*
X11220D1*
X11098Y18162D1*
X10975Y18236D1*
X9397Y19813D1*
X9306Y19833D1*
X9194Y19887D1*
X9100Y19968D1*
X9031Y20072D1*
X8992Y20190D1*
X8986Y20315D1*
X9013Y20437D1*
X9071Y20547D1*
X9157Y20637D1*
X9263Y20702D1*
X9383Y20736D1*
X9508Y20737D1*
X9628Y20705D1*
X9736Y20641D1*
X9823Y20552D1*
X9883Y20443D1*
X9911Y20325D1*
X11371Y18867D1*
X13568D1*
X13662Y18964D1*
X13768Y19029D1*
X13888Y19063D1*
X14013Y19064D1*
X14133Y19031D1*
X14241Y18968D1*
X14327Y18879D1*
X14387Y18770D1*
X14419Y18602D1*
X14402Y18479D1*
X14353Y18364D1*
X14275Y18267D1*
X14175Y18193D1*
X14058Y18149D1*
X13915Y18141D1*
X17055Y25040D2*
D19*
Y24441D1*
X17654D1*
X16055Y25040D2*
Y24441D1*
X15055Y25040D2*
Y24441D1*
X14055Y25040D2*
Y24441D1*
X13055Y25040D2*
Y24441D1*
X12055Y25040D2*
Y24441D1*
X11055Y25040D2*
Y24441D1*
X10055Y25040D2*
Y24441D1*
X9055Y25040D2*
Y24441D1*
X8456D2*
X9055D1*
X5315Y20835D2*
D13*
Y19322D1*
X4558Y20079D2*
X6072D1*
X4696Y25351D2*
D15*
X20334D1*
X27903D2*
X38244D1*
X40493D2*
X42545D1*
X4482Y25102D2*
X20334D1*
X27829D2*
X28158D1*
X28927D2*
X29158D1*
X29927D2*
X30158D1*
X30927D2*
X38244D1*
X40419D2*
X42760D1*
X4384Y24853D2*
X8596D1*
X9517D2*
X9598D1*
X10517D2*
X10598D1*
X11517D2*
X11598D1*
X12517D2*
X12598D1*
X13517D2*
X13598D1*
X14517D2*
X14598D1*
X15517D2*
X15598D1*
X17681D2*
X20334D1*
X21579D2*
X21674D1*
X22239D2*
X22498D1*
X23747D2*
X23834D1*
X24407D2*
X24654D1*
X25903D2*
X25995D1*
X26564D2*
X26994D1*
X27564D2*
X27967D1*
X31122D2*
X38244D1*
X39493D2*
X39583D1*
X40153D2*
X42861D1*
X4349Y24605D2*
X8455D1*
X17681D2*
X27920D1*
X31169D2*
X42893D1*
X4349Y24356D2*
X8436D1*
X17681D2*
X27982D1*
X31107D2*
X42896D1*
X4349Y24107D2*
X8533D1*
X17681D2*
X27920D1*
X30919D2*
X42896D1*
X4349Y23859D2*
X8600D1*
X17681D2*
X27920D1*
X31118D2*
X42896D1*
X4349Y23610D2*
X8455D1*
X17653D2*
X27920D1*
X31169D2*
X42896D1*
X4349Y23361D2*
X8436D1*
X17673D2*
X27920D1*
X31107D2*
X42896D1*
X4349Y23113D2*
X8529D1*
X17583D2*
X27920D1*
X29884D2*
X30201D1*
X30884D2*
X42896D1*
X4349Y22864D2*
X8603D1*
X17505D2*
X42896D1*
X4349Y22615D2*
X4535D1*
X6099D2*
X8455D1*
X17653D2*
X19412D1*
X19997D2*
X42896D1*
X4349Y22366D2*
X4535D1*
X6099D2*
X8436D1*
X17673D2*
X19232D1*
X22130D2*
X25834D1*
X33052D2*
X42896D1*
X4349Y22118D2*
X4535D1*
X6099D2*
X8525D1*
X17583D2*
X19228D1*
X22251D2*
X25572D1*
X33310D2*
X38111D1*
X38989D2*
X39110D1*
X39989D2*
X40110D1*
X40989D2*
X42896D1*
X4349Y21869D2*
X4535D1*
X6310D2*
X8850D1*
X9259D2*
X9850D1*
X10259D2*
X10850D1*
X11259D2*
X11850D1*
X12259D2*
X12850D1*
X13259D2*
X13850D1*
X14259D2*
X14850D1*
X15259D2*
X15850D1*
X16259D2*
X16850D1*
X17259D2*
X19393D1*
X22220D2*
X25326D1*
X33521D2*
X37955D1*
X41146D2*
X42896D1*
X4349Y21620D2*
X4535D1*
X6560D2*
X21256D1*
X21974D2*
X25221D1*
X33564D2*
X37932D1*
X41173D2*
X42896D1*
X4349Y21372D2*
X4535D1*
X6806D2*
X20990D1*
X21892D2*
X25217D1*
X27505D2*
X32592D1*
X33564D2*
X38014D1*
X41087D2*
X42896D1*
X4349Y21123D2*
X5424D1*
X7056D2*
X20955D1*
X21993D2*
X25217D1*
X27443D2*
X31209D1*
X33564D2*
X35514D1*
X36107D2*
X38115D1*
X40986D2*
X42896D1*
X4349Y20874D2*
X5670D1*
X7306D2*
X21072D1*
X22239D2*
X25217D1*
X26833D2*
X31209D1*
X33564D2*
X35236D1*
X36380D2*
X37959D1*
X41146D2*
X42896D1*
X4349Y20626D2*
X4768D1*
X7552D2*
X9119D1*
X9778D2*
X21514D1*
X22489D2*
X25217D1*
X26806D2*
X31209D1*
X33564D2*
X35150D1*
X36470D2*
X37932D1*
X41173D2*
X42896D1*
X4349Y20377D2*
X4596D1*
X6036D2*
X6169D1*
X7802D2*
X8971D1*
X9927D2*
X21760D1*
X22739D2*
X24053D1*
X24603D2*
X25217D1*
X26806D2*
X31209D1*
X33564D2*
X35170D1*
X36450D2*
X38014D1*
X41091D2*
X42896D1*
X4349Y20128D2*
X4535D1*
X6095D2*
X6416D1*
X8009D2*
X8982D1*
X10134D2*
X22010D1*
X22986D2*
X23795D1*
X24794D2*
X25217D1*
X26806D2*
X31209D1*
X33564D2*
X35299D1*
X36318D2*
X38123D1*
X41177D2*
X42896D1*
X4349Y19880D2*
X4561D1*
X6071D2*
X6666D1*
X8064D2*
X9182D1*
X10384D2*
X22260D1*
X23236D2*
X23545D1*
X24806D2*
X25217D1*
X26806D2*
X32592D1*
X33564D2*
X37959D1*
X41177D2*
X42896D1*
X4349Y19631D2*
X4682D1*
X5950D2*
X6896D1*
X8064D2*
X9557D1*
X10634D2*
X22506D1*
X24653D2*
X25170D1*
X26806D2*
X32592D1*
X33564D2*
X37928D1*
X41177D2*
X42896D1*
X4349Y19382D2*
X4994D1*
X5638D2*
X6896D1*
X8064D2*
X9803D1*
X10880D2*
X22756D1*
X24403D2*
X24924D1*
X26806D2*
X27936D1*
X28470D2*
X32592D1*
X33564D2*
X38010D1*
X41177D2*
X42896D1*
X4349Y19134D2*
X6896D1*
X8064D2*
X10053D1*
X11130D2*
X22799D1*
X24153D2*
X24674D1*
X26716D2*
X27736D1*
X28669D2*
X32592D1*
X33564D2*
X38291D1*
X38810D2*
X39291D1*
X39810D2*
X39928D1*
X41177D2*
X42896D1*
X4349Y18885D2*
X6896D1*
X8064D2*
X10303D1*
X11380D2*
X13561D1*
X14349D2*
X22549D1*
X23907D2*
X24424D1*
X26466D2*
X27615D1*
X28681D2*
X30740D1*
X31915D2*
X32592D1*
X33564D2*
X42896D1*
X4349Y18636D2*
X4543D1*
X6111D2*
X6896D1*
X8064D2*
X10549D1*
X14443D2*
X22303D1*
X23657D2*
X24178D1*
X26216D2*
X27478D1*
X28669D2*
X30490D1*
X32056D2*
X32592D1*
X33564D2*
X42896D1*
X4349Y18387D2*
X4543D1*
X6806D2*
X6893D1*
X8064D2*
X10799D1*
X14392D2*
X22053D1*
X23407D2*
X23928D1*
X25970D2*
X26307D1*
X27353D2*
X27474D1*
X28790D2*
X30353D1*
X32056D2*
X32592D1*
X33564D2*
X42896D1*
X4349Y18139D2*
X4543D1*
X8064D2*
X13896D1*
X14010D2*
X16424D1*
X23161D2*
X23678D1*
X25720D2*
X26057D1*
X29036D2*
X30350D1*
X32017D2*
X32592D1*
X33564D2*
X42896D1*
X4349Y17890D2*
X4543D1*
X6111D2*
X6326D1*
X8064D2*
X16287D1*
X22911D2*
X23432D1*
X25470D2*
X25807D1*
X29286D2*
X30350D1*
X31821D2*
X32592D1*
X33564D2*
X42896D1*
X4349Y17641D2*
X4543D1*
X6111D2*
X6576D1*
X8064D2*
X11674D1*
X27818D2*
X28061D1*
X29536D2*
X30353D1*
X31724D2*
X32432D1*
X33564D2*
X42896D1*
X4349Y17393D2*
X4568D1*
X8064D2*
X11533D1*
X26599D2*
X26932D1*
X27724D2*
X28186D1*
X29782D2*
X30475D1*
X31431D2*
X32182D1*
X33513D2*
X39107D1*
X39993D2*
X40104D1*
X40993D2*
X42896D1*
X4349Y17144D2*
X4553D1*
X8064D2*
X11549D1*
X26349D2*
X28432D1*
X30032D2*
X30475D1*
X31431D2*
X31936D1*
X33290D2*
X38967D1*
X41134D2*
X42896D1*
X4349Y16895D2*
X4646D1*
X6013D2*
X6436D1*
X8064D2*
X11752D1*
X26103D2*
X28682D1*
X30282D2*
X30475D1*
X31431D2*
X31686D1*
X33470D2*
X38955D1*
X41150D2*
X42896D1*
X4349Y16647D2*
X4697D1*
X5962D2*
X6439D1*
X8064D2*
X22939D1*
X24853D2*
X28928D1*
X33599D2*
X39061D1*
X41040D2*
X42896D1*
X4349Y16398D2*
X4568D1*
X6091D2*
X6439D1*
X8064D2*
X22689D1*
X24993D2*
X29178D1*
X33587D2*
X39111D1*
X39989D2*
X40110D1*
X40989D2*
X42896D1*
X4349Y16149D2*
X4553D1*
X6107D2*
X6439D1*
X8064D2*
X22443D1*
X25384D2*
X29428D1*
X32294D2*
X32744D1*
X33415D2*
X38967D1*
X41134D2*
X42896D1*
X4349Y15901D2*
X4643D1*
X6017D2*
X6439D1*
X8064D2*
X22244D1*
X25443D2*
X29674D1*
X32048D2*
X32693D1*
X33466D2*
X38955D1*
X41150D2*
X42896D1*
X4349Y15652D2*
X4458D1*
X6361D2*
X6440D1*
X8064D2*
X11822D1*
X12587D2*
X22225D1*
X25357D2*
X29924D1*
X31939D2*
X32561D1*
X33599D2*
X39057D1*
X41044D2*
X42896D1*
X4349Y15403D2*
X4458D1*
X8064D2*
X8145D1*
X12693D2*
X22225D1*
X25384D2*
X29975D1*
X31939D2*
X32568D1*
X33587D2*
X39119D1*
X39986D2*
X40116D1*
X40986D2*
X42896D1*
X4349Y15155D2*
X4458D1*
X12650D2*
X22225D1*
X25880D2*
X29975D1*
X31939D2*
X32736D1*
X33419D2*
X38971D1*
X41134D2*
X42896D1*
X4349Y14906D2*
X4458D1*
X8064D2*
X8150D1*
X12353D2*
X22225D1*
X25943D2*
X27904D1*
X28591D2*
X29975D1*
X31939D2*
X38951D1*
X41150D2*
X42896D1*
X4349Y14657D2*
X4458D1*
X8224D2*
X22225D1*
X25861D2*
X27768D1*
X28728D2*
X29975D1*
X31939D2*
X39053D1*
X41048D2*
X42896D1*
X4349Y14408D2*
X4535D1*
X8474D2*
X22225D1*
X26044D2*
X26264D1*
X29275D2*
X29975D1*
X31939D2*
X39123D1*
X39978D2*
X40122D1*
X40978D2*
X42896D1*
X4349Y14160D2*
X4458D1*
X8720D2*
X22225D1*
X29380D2*
X29975D1*
X31939D2*
X38971D1*
X41130D2*
X42896D1*
X4349Y13911D2*
X4489D1*
X8907D2*
X10518D1*
X29689D2*
X29975D1*
X31939D2*
X38951D1*
X41150D2*
X42896D1*
X4349Y13662D2*
X4654D1*
X8950D2*
X10268D1*
X29755D2*
X29975D1*
X31939D2*
X39049D1*
X41052D2*
X42896D1*
X4349Y13414D2*
X4535D1*
X29689D2*
X29975D1*
X31939D2*
X39127D1*
X41157D2*
X41920D1*
X42329D2*
X42896D1*
X4349Y13165D2*
X4458D1*
X29755D2*
X29975D1*
X31939D2*
X38975D1*
X42579D2*
X42896D1*
X4349Y12916D2*
X4489D1*
X29689D2*
X29975D1*
X32075D2*
X38951D1*
X42611D2*
X42896D1*
X4349Y12668D2*
X4650D1*
X29755D2*
X29975D1*
X32325D2*
X39045D1*
X42489D2*
X42896D1*
X4349Y12419D2*
X4543D1*
X29681D2*
X29975D1*
X32571D2*
X39439D1*
X39660D2*
X39947D1*
X41157D2*
X42896D1*
X4349Y12170D2*
X4458D1*
X29325D2*
X30037D1*
X32821D2*
X42896D1*
X4349Y11922D2*
X4481D1*
X29290D2*
X30279D1*
X33071D2*
X42896D1*
X4349Y11673D2*
X4643D1*
X26755D2*
X28646D1*
X29032D2*
X30529D1*
X33318D2*
X42896D1*
X4349Y11424D2*
X4543D1*
X26505D2*
X30775D1*
X33568D2*
X42896D1*
X4349Y11176D2*
X4458D1*
X26259D2*
X31025D1*
X33818D2*
X42896D1*
X4349Y10927D2*
X4481D1*
X26009D2*
X31275D1*
X34064D2*
X42896D1*
X4349Y10678D2*
X4639D1*
X25759D2*
X31521D1*
X34314D2*
X38088D1*
X39013D2*
X39090D1*
X40013D2*
X40090D1*
X41013D2*
X42896D1*
X4349Y10429D2*
X4543D1*
X25513D2*
X31771D1*
X34564D2*
X37947D1*
X41153D2*
X42896D1*
X4349Y10181D2*
X4458D1*
X25263D2*
X32021D1*
X34810D2*
X37932D1*
X41169D2*
X42896D1*
X4349Y9932D2*
X4481D1*
X25013D2*
X32268D1*
X35060D2*
X38029D1*
X41071D2*
X42896D1*
X4349Y9683D2*
X4635D1*
X24767D2*
X32518D1*
X35310D2*
X38096D1*
X41009D2*
X42896D1*
X4349Y9435D2*
X4549D1*
X24517D2*
X32768D1*
X35556D2*
X37951D1*
X41153D2*
X42896D1*
X4349Y9186D2*
X4458D1*
X24267D2*
X33014D1*
X35806D2*
X37932D1*
X41169D2*
X42896D1*
X4349Y8937D2*
X4481D1*
X24021D2*
X33264D1*
X36056D2*
X38025D1*
X41075D2*
X42896D1*
X4349Y8689D2*
X4627D1*
X23771D2*
X33514D1*
X36302D2*
X38100D1*
X41177D2*
X42896D1*
X4349Y8440D2*
X4553D1*
X7958D2*
X33760D1*
X36552D2*
X37951D1*
X41177D2*
X42896D1*
X4349Y8191D2*
X4458D1*
X7712D2*
X34010D1*
X36802D2*
X37932D1*
X41177D2*
X42896D1*
X4349Y7943D2*
X4481D1*
X7462D2*
X8521D1*
X9337D2*
X9521D1*
X10337D2*
X10521D1*
X11337D2*
X11521D1*
X12337D2*
X12521D1*
X13337D2*
X13521D1*
X14337D2*
X14521D1*
X15337D2*
X15521D1*
X16337D2*
X16521D1*
X17337D2*
X34260D1*
X37048D2*
X38021D1*
X41177D2*
X42896D1*
X4349Y7694D2*
X4623D1*
X7212D2*
X8346D1*
X17513D2*
X34506D1*
X37298D2*
X38353D1*
X38751D2*
X39353D1*
X39751D2*
X39928D1*
X41177D2*
X42896D1*
X4349Y7445D2*
X4557D1*
X6966D2*
X8307D1*
X17552D2*
X34756D1*
X37548D2*
X40623D1*
X41267D2*
X42896D1*
X4349Y7197D2*
X4458D1*
X6716D2*
X8377D1*
X17482D2*
X35006D1*
X41423D2*
X42896D1*
X4349Y6948D2*
X4473D1*
X6681D2*
X8529D1*
X17329D2*
X35162D1*
X41415D2*
X42896D1*
X4349Y6699D2*
X4619D1*
X5540D2*
X5618D1*
X6540D2*
X8346D1*
X17513D2*
X35162D1*
X41236D2*
X42896D1*
X4349Y6450D2*
X8307D1*
X17552D2*
X35162D1*
X35868D2*
X36127D1*
X40915D2*
X42896D1*
X4349Y6202D2*
X8373D1*
X17486D2*
X20580D1*
X21443D2*
X21580D1*
X22443D2*
X22580D1*
X23443D2*
X23580D1*
X24443D2*
X24580D1*
X25443D2*
X25580D1*
X26443D2*
X26580D1*
X27443D2*
X27580D1*
X28443D2*
X28580D1*
X29443D2*
X29580D1*
X30443D2*
X30580D1*
X31443D2*
X31580D1*
X32443D2*
X32580D1*
X33443D2*
X33580D1*
X34443D2*
X34580D1*
X39443D2*
X39580D1*
X40443D2*
X42896D1*
X4349Y5953D2*
X8307D1*
X17321D2*
X20443D1*
X40579D2*
X42896D1*
X4349Y5704D2*
X8307D1*
X17509D2*
X20439D1*
X40587D2*
X42896D1*
X4349Y5456D2*
X8307D1*
X17552D2*
X20561D1*
X21466D2*
X21561D1*
X22466D2*
X22561D1*
X23466D2*
X23561D1*
X24466D2*
X24561D1*
X25466D2*
X25561D1*
X26466D2*
X26561D1*
X27466D2*
X27561D1*
X28466D2*
X28561D1*
X29466D2*
X29561D1*
X30466D2*
X30561D1*
X31466D2*
X31561D1*
X32466D2*
X32561D1*
X33466D2*
X33561D1*
X34466D2*
X34561D1*
X37466D2*
X37561D1*
X38466D2*
X38561D1*
X39466D2*
X39561D1*
X40466D2*
X42896D1*
X4364Y5207D2*
X8307D1*
X17489D2*
X20584D1*
X21439D2*
X21584D1*
X22439D2*
X22584D1*
X23439D2*
X23584D1*
X24439D2*
X24584D1*
X25439D2*
X25584D1*
X26439D2*
X26584D1*
X27439D2*
X27584D1*
X28439D2*
X28584D1*
X29439D2*
X29584D1*
X30439D2*
X30584D1*
X31439D2*
X31584D1*
X32439D2*
X32584D1*
X33439D2*
X33584D1*
X34439D2*
X34584D1*
X37439D2*
X37584D1*
X38439D2*
X38584D1*
X39439D2*
X39584D1*
X40439D2*
X42881D1*
X4427Y4958D2*
X8307D1*
X10247D2*
X10611D1*
X11247D2*
X11611D1*
X12247D2*
X12611D1*
X13247D2*
X13611D1*
X14247D2*
X14611D1*
X15247D2*
X15611D1*
X16247D2*
X16611D1*
X17247D2*
X20447D1*
X40579D2*
X42818D1*
X4568Y4710D2*
X20439D1*
X40587D2*
X42678D1*
X4841Y4461D2*
X20557D1*
X40470D2*
X42404D1*
X31359Y21183D2*
X32511D1*
Y19905D1*
X31234D1*
Y21183D1*
X31359D1*
X36448Y20519D2*
X36431Y20396D1*
X36390Y20278D1*
X36327Y20170D1*
X36245Y20076D1*
X36145Y20001D1*
X36033Y19946D1*
X35913Y19914D1*
X35788Y19906D1*
X35664Y19922D1*
X35546Y19962D1*
X35438Y20024D1*
X35344Y20107D1*
X35268Y20205D1*
X35212Y20317D1*
X35180Y20438D1*
X35171Y20562D1*
X35186Y20686D1*
X35226Y20804D1*
X35288Y20913D1*
X35369Y21007D1*
X35468Y21084D1*
X35579Y21140D1*
X35699Y21174D1*
X35824Y21183D1*
X35948Y21168D1*
X36066Y21129D1*
X36175Y21068D1*
X36270Y20987D1*
X36347Y20889D1*
X36404Y20778D1*
X36438Y20658D1*
X36448Y20544D1*
Y20519D1*
X16481Y25041D2*
X17655D1*
Y23841D1*
X17501D1*
X17596Y23699D1*
X17638Y23582D1*
X17655Y23441D1*
X17642Y23317D1*
X17603Y23198D1*
X17541Y23090D1*
X17458Y22997D1*
X17386Y22944D1*
X17445Y22896D1*
X17531Y22806D1*
X17596Y22699D1*
X17638Y22582D1*
X17655Y22441D1*
X17642Y22317D1*
X17603Y22198D1*
X17541Y22090D1*
X17458Y21997D1*
X17357Y21923D1*
X17244Y21872D1*
X17122Y21845D1*
X16997Y21844D1*
X16875Y21869D1*
X16760Y21919D1*
X16659Y21991D1*
X16556Y22113D1*
X16458Y21997D1*
X16357Y21923D1*
X16244Y21872D1*
X16122Y21845D1*
X15997Y21844D1*
X15875Y21869D1*
X15760Y21919D1*
X15659Y21991D1*
X15556Y22113D1*
X15458Y21997D1*
X15357Y21923D1*
X15244Y21872D1*
X15122Y21845D1*
X14997Y21844D1*
X14875Y21869D1*
X14760Y21919D1*
X14659Y21991D1*
X14556Y22113D1*
X14458Y21997D1*
X14357Y21923D1*
X14244Y21872D1*
X14122Y21845D1*
X13997Y21844D1*
X13875Y21869D1*
X13760Y21919D1*
X13659Y21991D1*
X13556Y22113D1*
X13458Y21997D1*
X13357Y21923D1*
X13244Y21872D1*
X13122Y21845D1*
X12997Y21844D1*
X12875Y21869D1*
X12760Y21919D1*
X12659Y21991D1*
X12556Y22113D1*
X12458Y21997D1*
X12357Y21923D1*
X12244Y21872D1*
X12122Y21845D1*
X11997Y21844D1*
X11875Y21869D1*
X11760Y21919D1*
X11659Y21991D1*
X11556Y22113D1*
X11458Y21997D1*
X11357Y21923D1*
X11244Y21872D1*
X11122Y21845D1*
X10997Y21844D1*
X10875Y21869D1*
X10760Y21919D1*
X10659Y21991D1*
X10556Y22113D1*
X10458Y21997D1*
X10357Y21923D1*
X10244Y21872D1*
X10122Y21845D1*
X9997Y21844D1*
X9875Y21869D1*
X9760Y21919D1*
X9659Y21991D1*
X9556Y22113D1*
X9458Y21997D1*
X9357Y21923D1*
X9244Y21872D1*
X9122Y21845D1*
X8997Y21844D1*
X8875Y21869D1*
X8760Y21919D1*
X8659Y21991D1*
X8574Y22083D1*
X8510Y22190D1*
X8470Y22308D1*
X8456Y22432D1*
X8467Y22557D1*
X8503Y22676D1*
X8564Y22785D1*
X8646Y22879D1*
X8724Y22938D1*
X8659Y22991D1*
X8574Y23083D1*
X8510Y23190D1*
X8470Y23308D1*
X8456Y23432D1*
X8467Y23557D1*
X8503Y23676D1*
X8564Y23785D1*
X8646Y23879D1*
X8724Y23938D1*
X8623Y24026D1*
X8546Y24124D1*
X8491Y24237D1*
X8461Y24358D1*
X8457Y24482D1*
X8478Y24605D1*
X8525Y24721D1*
X8594Y24825D1*
X8684Y24912D1*
X8789Y24978D1*
X8906Y25022D1*
X9030Y25040D1*
X9154Y25032D1*
X9275Y24999D1*
X9385Y24941D1*
X9482Y24862D1*
X9555Y24772D1*
X9628Y24862D1*
X9724Y24941D1*
X9835Y24999D1*
X9955Y25032D1*
X10080Y25040D1*
X10203Y25022D1*
X10320Y24979D1*
X10426Y24912D1*
X10515Y24825D1*
X10555Y24772D1*
X10628Y24862D1*
X10724Y24941D1*
X10835Y24999D1*
X10955Y25032D1*
X11080Y25040D1*
X11203Y25022D1*
X11320Y24979D1*
X11426Y24912D1*
X11515Y24825D1*
X11555Y24772D1*
X11628Y24862D1*
X11724Y24941D1*
X11835Y24999D1*
X11955Y25032D1*
X12080Y25040D1*
X12203Y25022D1*
X12320Y24979D1*
X12426Y24912D1*
X12515Y24825D1*
X12555Y24772D1*
X12628Y24862D1*
X12724Y24941D1*
X12835Y24999D1*
X12955Y25032D1*
X13080Y25040D1*
X13203Y25022D1*
X13320Y24979D1*
X13426Y24912D1*
X13515Y24825D1*
X13555Y24772D1*
X13628Y24862D1*
X13724Y24941D1*
X13835Y24999D1*
X13955Y25032D1*
X14080Y25040D1*
X14203Y25022D1*
X14320Y24979D1*
X14426Y24912D1*
X14515Y24825D1*
X14555Y24772D1*
X14628Y24862D1*
X14724Y24941D1*
X14835Y24999D1*
X14955Y25032D1*
X15080Y25040D1*
X15203Y25022D1*
X15320Y24979D1*
X15426Y24912D1*
X15515Y24825D1*
X15555Y24772D1*
X15628Y24862D1*
X15724Y24941D1*
X15835Y24999D1*
X15955Y25032D1*
X16080Y25040D1*
X16203Y25022D1*
X16320Y24979D1*
X16426Y24912D1*
X16456Y24891D1*
Y25041D1*
X16481D1*
X8355Y6080D2*
X8483D1*
X8384Y6230D1*
X8344Y6348D1*
X8330Y6472D1*
X8341Y6596D1*
X8378Y6715D1*
X8438Y6824D1*
X8520Y6919D1*
X8598Y6977D1*
X8533Y7031D1*
X8448Y7122D1*
X8384Y7230D1*
X8344Y7348D1*
X8330Y7472D1*
X8341Y7596D1*
X8378Y7715D1*
X8438Y7824D1*
X8520Y7919D1*
X8619Y7994D1*
X8732Y8047D1*
X8854Y8075D1*
X8979Y8078D1*
X9101Y8055D1*
X9216Y8007D1*
X9319Y7936D1*
X9405Y7845D1*
X9427Y7809D1*
X9520Y7919D1*
X9619Y7994D1*
X9732Y8047D1*
X9854Y8075D1*
X9979Y8078D1*
X10101Y8055D1*
X10216Y8007D1*
X10319Y7936D1*
X10405Y7845D1*
X10427Y7809D1*
X10520Y7919D1*
X10619Y7994D1*
X10732Y8047D1*
X10854Y8075D1*
X10979Y8078D1*
X11101Y8055D1*
X11216Y8007D1*
X11319Y7936D1*
X11405Y7845D1*
X11427Y7809D1*
X11520Y7919D1*
X11619Y7994D1*
X11732Y8047D1*
X11854Y8075D1*
X11979Y8078D1*
X12101Y8055D1*
X12216Y8007D1*
X12319Y7936D1*
X12405Y7845D1*
X12427Y7809D1*
X12520Y7919D1*
X12619Y7994D1*
X12732Y8047D1*
X12854Y8075D1*
X12979Y8078D1*
X13101Y8055D1*
X13216Y8007D1*
X13319Y7936D1*
X13405Y7845D1*
X13427Y7809D1*
X13520Y7919D1*
X13619Y7994D1*
X13732Y8047D1*
X13854Y8075D1*
X13979Y8078D1*
X14101Y8055D1*
X14216Y8007D1*
X14319Y7936D1*
X14405Y7845D1*
X14427Y7809D1*
X14520Y7919D1*
X14619Y7994D1*
X14732Y8047D1*
X14854Y8075D1*
X14979Y8078D1*
X15101Y8055D1*
X15216Y8007D1*
X15319Y7936D1*
X15405Y7845D1*
X15427Y7809D1*
X15520Y7919D1*
X15619Y7994D1*
X15732Y8047D1*
X15854Y8075D1*
X15979Y8078D1*
X16101Y8055D1*
X16216Y8007D1*
X16319Y7936D1*
X16405Y7845D1*
X16427Y7809D1*
X16520Y7919D1*
X16619Y7994D1*
X16732Y8047D1*
X16854Y8075D1*
X16979Y8078D1*
X17101Y8055D1*
X17216Y8007D1*
X17319Y7936D1*
X17405Y7845D1*
X17470Y7739D1*
X17512Y7621D1*
X17529Y7480D1*
X17516Y7356D1*
X17477Y7237D1*
X17415Y7129D1*
X17332Y7036D1*
X17260Y6983D1*
X17319Y6936D1*
X17405Y6845D1*
X17470Y6739D1*
X17512Y6621D1*
X17529Y6480D1*
X17516Y6356D1*
X17477Y6237D1*
X17415Y6129D1*
X17332Y6036D1*
X17260Y5983D1*
X17373Y5883D1*
X17447Y5783D1*
X17498Y5669D1*
X17525Y5547D1*
X17527Y5430D1*
X17503Y5308D1*
X17455Y5193D1*
X17384Y5090D1*
X17294Y5004D1*
X17187Y4939D1*
X17070Y4897D1*
X16946Y4881D1*
X16822Y4890D1*
X16702Y4926D1*
X16592Y4985D1*
X16497Y5065D1*
X16429Y5150D1*
X16350Y5053D1*
X16253Y4976D1*
X16141Y4920D1*
X16021Y4888D1*
X15896Y4882D1*
X15773Y4901D1*
X15656Y4946D1*
X15552Y5014D1*
X15463Y5103D1*
X15429Y5150D1*
X15350Y5053D1*
X15253Y4976D1*
X15141Y4920D1*
X15021Y4888D1*
X14896Y4882D1*
X14773Y4901D1*
X14656Y4946D1*
X14552Y5014D1*
X14463Y5103D1*
X14429Y5150D1*
X14350Y5053D1*
X14253Y4976D1*
X14141Y4920D1*
X14021Y4888D1*
X13896Y4882D1*
X13773Y4901D1*
X13656Y4946D1*
X13552Y5014D1*
X13463Y5103D1*
X13429Y5150D1*
X13350Y5053D1*
X13253Y4976D1*
X13141Y4920D1*
X13021Y4888D1*
X12896Y4882D1*
X12773Y4901D1*
X12656Y4946D1*
X12552Y5014D1*
X12463Y5103D1*
X12429Y5150D1*
X12350Y5053D1*
X12253Y4976D1*
X12141Y4920D1*
X12021Y4888D1*
X11896Y4882D1*
X11773Y4901D1*
X11656Y4946D1*
X11552Y5014D1*
X11463Y5103D1*
X11429Y5150D1*
X11350Y5053D1*
X11253Y4976D1*
X11141Y4920D1*
X11021Y4888D1*
X10896Y4882D1*
X10773Y4901D1*
X10656Y4946D1*
X10552Y5014D1*
X10463Y5103D1*
X10429Y5150D1*
X10350Y5053D1*
X10253Y4976D1*
X10141Y4920D1*
X10021Y4888D1*
X9896Y4882D1*
X9773Y4901D1*
X9656Y4946D1*
X9552Y5014D1*
X9529Y5030D1*
Y4881D1*
X8330D1*
Y6080D1*
X8355D1*
X40998Y20285D2*
X41151D1*
Y19085D1*
X39952D1*
Y19239D1*
X39853Y19167D1*
X39740Y19116D1*
X39618Y19089D1*
X39493Y19088D1*
X39371Y19113D1*
X39256Y19163D1*
X39155Y19235D1*
X39052Y19357D1*
X38954Y19241D1*
X38853Y19167D1*
X38740Y19116D1*
X38618Y19089D1*
X38493Y19088D1*
X38371Y19113D1*
X38256Y19163D1*
X38155Y19235D1*
X38070Y19327D1*
X38007Y19434D1*
X37966Y19553D1*
X37952Y19676D1*
X37963Y19801D1*
X38000Y19920D1*
X38060Y20029D1*
X38142Y20123D1*
X38220Y20182D1*
X38155Y20235D1*
X38070Y20327D1*
X38007Y20434D1*
X37966Y20553D1*
X37952Y20676D1*
X37963Y20801D1*
X38000Y20920D1*
X38060Y21029D1*
X38142Y21123D1*
X38220Y21182D1*
X38155Y21235D1*
X38070Y21327D1*
X38007Y21434D1*
X37966Y21553D1*
X37952Y21676D1*
X37963Y21801D1*
X38000Y21920D1*
X38060Y22029D1*
X38142Y22123D1*
X38242Y22198D1*
X38354Y22251D1*
X38476Y22280D1*
X38601Y22283D1*
X38723Y22259D1*
X38838Y22211D1*
X38941Y22140D1*
X39027Y22050D1*
X39049Y22013D1*
X39142Y22123D1*
X39242Y22198D1*
X39354Y22251D1*
X39476Y22280D1*
X39601Y22283D1*
X39723Y22259D1*
X39838Y22211D1*
X39941Y22140D1*
X40027Y22050D1*
X40049Y22013D1*
X40124Y22106D1*
X40220Y22185D1*
X40331Y22243D1*
X40451Y22276D1*
X40576Y22284D1*
X40699Y22266D1*
X40816Y22223D1*
X40922Y22156D1*
X41011Y22069D1*
X41081Y21966D1*
X41128Y21850D1*
X41149Y21727D1*
X41146Y21610D1*
X41118Y21489D1*
X41065Y21376D1*
X40990Y21276D1*
X40896Y21194D1*
X40882Y21185D1*
X40978Y21106D1*
X41056Y21009D1*
X41112Y20898D1*
X41144Y20777D1*
X41150Y20660D1*
X41132Y20537D1*
X41089Y20420D1*
X41022Y20314D1*
X40997Y20285D1*
X40998Y8867D2*
X41151D1*
Y7668D1*
X39952D1*
Y7822D1*
X39853Y7750D1*
X39740Y7699D1*
X39618Y7672D1*
X39493Y7671D1*
X39371Y7696D1*
X39256Y7746D1*
X39155Y7818D1*
X39052Y7940D1*
X38954Y7824D1*
X38853Y7750D1*
X38740Y7699D1*
X38618Y7672D1*
X38493Y7671D1*
X38371Y7696D1*
X38256Y7746D1*
X38155Y7818D1*
X38070Y7910D1*
X38007Y8017D1*
X37966Y8135D1*
X37952Y8259D1*
X37963Y8383D1*
X38000Y8503D1*
X38060Y8612D1*
X38142Y8706D1*
X38220Y8765D1*
X38155Y8818D1*
X38070Y8910D1*
X38007Y9017D1*
X37966Y9135D1*
X37952Y9259D1*
X37963Y9383D1*
X38000Y9503D1*
X38060Y9612D1*
X38142Y9706D1*
X38220Y9765D1*
X38155Y9818D1*
X38070Y9910D1*
X38007Y10017D1*
X37966Y10135D1*
X37952Y10259D1*
X37963Y10383D1*
X38000Y10503D1*
X38060Y10612D1*
X38142Y10706D1*
X38242Y10781D1*
X38354Y10834D1*
X38476Y10863D1*
X38601Y10865D1*
X38723Y10842D1*
X38838Y10794D1*
X38941Y10723D1*
X39027Y10633D1*
X39049Y10596D1*
X39142Y10706D1*
X39242Y10781D1*
X39354Y10834D1*
X39476Y10863D1*
X39601Y10865D1*
X39723Y10842D1*
X39838Y10794D1*
X39941Y10723D1*
X40027Y10633D1*
X40049Y10596D1*
X40124Y10688D1*
X40220Y10768D1*
X40331Y10825D1*
X40451Y10859D1*
X40576Y10867D1*
X40699Y10849D1*
X40816Y10805D1*
X40922Y10739D1*
X41011Y10652D1*
X41081Y10548D1*
X41128Y10433D1*
X41149Y10310D1*
X41146Y10193D1*
X41118Y10071D1*
X41065Y9958D1*
X40990Y9859D1*
X40896Y9777D1*
X40882Y9768D1*
X40978Y9689D1*
X41056Y9592D1*
X41112Y9480D1*
X41144Y9360D1*
X41150Y9243D1*
X41132Y9119D1*
X41089Y9002D1*
X41022Y8897D1*
X40997Y8868D1*
X4683Y22804D2*
X6072D1*
Y22082D1*
X7876Y20278D1*
X7954Y20181D1*
X8009Y20068D1*
X8037Y19943D1*
X8041Y19507D1*
Y14815D1*
X8762Y14094D1*
X8840Y13996D1*
X8894Y13884D1*
X8923Y13763D1*
Y13638D1*
X8896Y13516D1*
X8858Y13435D1*
X10067Y13438D1*
X10660Y14029D1*
X10763Y14099D1*
X10891Y14125D1*
X12266D1*
X12388Y14102D1*
X12498Y14029D1*
X12589Y13938D1*
X22067D1*
X22251Y14121D1*
Y15798D1*
X22275Y15920D1*
X22347Y16029D1*
X23156Y16839D1*
X22391Y16836D1*
X11992Y16833D1*
X11869Y16855D1*
X11757Y16909D1*
X11663Y16991D1*
X11593Y17094D1*
X11554Y17213D1*
X11548Y17337D1*
X11575Y17459D1*
X11634Y17569D1*
X11719Y17659D1*
X11826Y17724D1*
X11946Y17758D1*
X16304Y17760D1*
X16303Y17837D1*
X16330Y17959D1*
X16388Y18069D1*
X16474Y18159D1*
X16580Y18224D1*
X16700Y18258D1*
X21950Y18260D1*
X22928Y19237D1*
X21444Y20719D1*
X21299Y20742D1*
X21187Y20796D1*
X21093Y20878D1*
X21024Y20981D1*
X20985Y21100D1*
X20978Y21224D1*
X21005Y21346D1*
X21064Y21456D1*
X21149Y21547D1*
X21256Y21611D1*
X21376Y21645D1*
X21501Y21646D1*
X21564Y21629D1*
X21511Y21659D1*
X21438Y21723D1*
X20141Y21720D1*
X19891D1*
X19766Y21746D1*
X19684Y21771D1*
X19561Y21793D1*
X19449Y21846D1*
X19355Y21928D1*
X19286Y22032D1*
X19247Y22150D1*
X19240Y22275D1*
X19268Y22396D1*
X19326Y22506D1*
X19412Y22597D1*
X19518Y22662D1*
X19638Y22695D1*
X19763Y22696D1*
X19883Y22664D1*
X19991Y22601D1*
X20077Y22512D1*
X20144Y22376D1*
X21434Y22375D1*
X21581Y22474D1*
X21701Y22508D1*
X21825Y22509D1*
X21946Y22477D1*
X22053Y22414D1*
X22140Y22324D1*
X22200Y22215D1*
X22231Y22048D1*
X22214Y21924D1*
X22166Y21810D1*
X22088Y21712D1*
X21987Y21639D1*
X21871Y21595D1*
X21747Y21583D1*
X21651Y21600D1*
X21728Y21551D1*
X21815Y21461D1*
X21875Y21352D1*
X21906Y21185D1*
X22911Y20179D1*
X23388Y19701D1*
X24037Y20347D1*
X24143Y20412D1*
X24263Y20445D1*
X24388Y20446D1*
X24508Y20414D1*
X24616Y20351D1*
X24702Y20262D1*
X24762Y20153D1*
X24794Y19985D1*
X24777Y19862D1*
X24728Y19747D1*
X24635Y19638D1*
X22761Y17760D1*
X23328D1*
X25046Y19480D1*
X25242Y19677D1*
Y21570D1*
X25259Y21693D1*
X25328Y21839D1*
X25554Y22073D1*
X25793Y22312D1*
X25892Y22387D1*
X26044Y22441D1*
X26369Y22447D1*
X32808Y22445D1*
X32929Y22417D1*
X33039Y22358D1*
X33181Y22223D1*
X33405Y21999D1*
X33481Y21900D1*
X33534Y21748D1*
X33541Y21423D1*
Y17610D1*
X33524Y17487D1*
X33454Y17341D1*
X33228Y17107D1*
X33165Y17043D1*
X33315Y16994D1*
X33417Y16923D1*
X33499Y16828D1*
X33554Y16717D1*
X33584Y16548D1*
X33568Y16424D1*
X33523Y16308D1*
X33451Y16206D1*
X33356Y16126D1*
X33244Y16071D1*
X33141Y16049D1*
X33198Y16038D1*
X33315Y15994D1*
X33417Y15923D1*
X33499Y15828D1*
X33554Y15717D1*
X33584Y15548D1*
X33568Y15424D1*
X33523Y15308D1*
X33451Y15206D1*
X33356Y15126D1*
X33244Y15071D1*
X33122Y15045D1*
X32997Y15049D1*
X32878Y15085D1*
X32770Y15148D1*
X32682Y15236D1*
X32617Y15343D1*
X32581Y15462D1*
X32575Y15586D1*
X32600Y15709D1*
X32654Y15821D1*
X32734Y15917D1*
X32835Y15990D1*
X32951Y16036D1*
X33024Y16046D1*
X32878Y16085D1*
X32770Y16148D1*
X32682Y16236D1*
X32617Y16343D1*
X32582Y16458D1*
X31916Y15795D1*
Y13052D1*
X37617Y7350D1*
X40553Y7352D1*
X40653Y7448D1*
X40759Y7513D1*
X40879Y7547D1*
X41004Y7548D1*
X41124Y7516D1*
X41232Y7453D1*
X41319Y7363D1*
X41379Y7254D1*
X41410Y7087D1*
X41393Y6963D1*
X41344Y6848D1*
X41251Y6740D1*
X41075Y6563D1*
X40975Y6488D1*
X40823Y6434D1*
X40498Y6428D1*
X38971D1*
X39241Y6329D1*
X39348Y6265D1*
X39439Y6180D1*
X39513Y6066D1*
X39567Y6157D1*
X39653Y6247D1*
X39757Y6316D1*
X39874Y6360D1*
X39998Y6377D1*
X40122Y6366D1*
X40241Y6329D1*
X40348Y6265D1*
X40439Y6180D1*
X40509Y6077D1*
X40554Y5960D1*
X40573Y5817D1*
X40559Y5693D1*
X40518Y5575D1*
X40452Y5469D1*
X40364Y5381D1*
X40262Y5316D1*
X40348Y5265D1*
X40439Y5180D1*
X40509Y5077D1*
X40554Y4960D1*
X40573Y4817D1*
X40559Y4693D1*
X40518Y4575D1*
X40452Y4469D1*
X40364Y4381D1*
X40269Y4320D1*
X41905Y4322D1*
X42185Y4359D1*
X42424Y4458D1*
X42629Y4615D1*
X42786Y4820D1*
X42885Y5058D1*
X42923Y5343D1*
X42922Y24582D1*
X42885Y24862D1*
X42786Y25101D1*
X42629Y25306D1*
X42424Y25463D1*
X42186Y25562D1*
X41901Y25600D1*
X40432Y25599D1*
X40453Y25535D1*
X40470Y25394D1*
X40457Y25270D1*
X40418Y25151D1*
X40356Y25043D1*
X40273Y24950D1*
X40172Y24876D1*
X40059Y24825D1*
X39937Y24798D1*
X39812Y24797D1*
X39690Y24822D1*
X39575Y24872D1*
X39470Y24943D1*
Y24794D1*
X38271D1*
Y25600D1*
X27846Y25599D1*
X27875Y25461D1*
X27877Y25344D1*
X27854Y25221D1*
X27806Y25106D1*
X27735Y25003D1*
X27644Y24918D1*
X27538Y24853D1*
X27420Y24811D1*
X27296Y24794D1*
X27172Y24804D1*
X27052Y24839D1*
X26942Y24898D1*
X26847Y24979D1*
X26779Y25063D1*
X26682Y24950D1*
X26582Y24876D1*
X26468Y24825D1*
X26346Y24798D1*
X26221Y24797D1*
X26099Y24822D1*
X25985Y24872D1*
X25880Y24947D1*
X25879Y24794D1*
X24680D1*
Y25174D1*
X24622Y25063D1*
X24543Y24967D1*
X24446Y24889D1*
X24334Y24833D1*
X24213Y24801D1*
X24089Y24795D1*
X23966Y24815D1*
X23849Y24860D1*
X23745Y24928D1*
X23722Y24948D1*
Y24794D1*
X22522D1*
Y25196D1*
X22470Y25084D1*
X22395Y24985D1*
X22301Y24903D1*
X22192Y24842D1*
X22073Y24805D1*
X21948Y24794D1*
X21825Y24809D1*
X21706Y24849D1*
X21599Y24912D1*
X21556Y24948D1*
Y24794D1*
X20357D1*
Y25603D1*
X19537Y25599D1*
X5340D1*
X5059Y25562D1*
X4820Y25464D1*
X4615Y25306D1*
X4458Y25101D1*
X4359Y24863D1*
X4322Y24578D1*
Y5339D1*
X4359Y5059D1*
X4458Y4820D1*
X4615Y4615D1*
X4820Y4458D1*
X5058Y4359D1*
X5343Y4321D1*
X20750Y4322D1*
X20669Y4375D1*
X20579Y4462D1*
X20511Y4566D1*
X20468Y4683D1*
X20452Y4807D1*
X20464Y4931D1*
X20503Y5050D1*
X20567Y5157D1*
X20653Y5247D1*
X20761Y5317D1*
X20669Y5375D1*
X20579Y5462D1*
X20511Y5566D1*
X20468Y5683D1*
X20452Y5807D1*
X20464Y5931D1*
X20503Y6050D1*
X20567Y6157D1*
X20653Y6247D1*
X20757Y6316D1*
X20874Y6360D1*
X20998Y6377D1*
X21122Y6366D1*
X21241Y6329D1*
X21348Y6265D1*
X21439Y6180D1*
X21509Y6077D1*
X21513Y6069D1*
X21567Y6157D1*
X21653Y6247D1*
X21757Y6316D1*
X21874Y6360D1*
X21998Y6377D1*
X22122Y6366D1*
X22241Y6329D1*
X22348Y6265D1*
X22439Y6180D1*
X22513Y6066D1*
X22567Y6157D1*
X22653Y6247D1*
X22757Y6316D1*
X22874Y6360D1*
X22998Y6377D1*
X23122Y6366D1*
X23241Y6329D1*
X23348Y6265D1*
X23439Y6180D1*
X23513Y6066D1*
X23567Y6157D1*
X23653Y6247D1*
X23757Y6316D1*
X23874Y6360D1*
X23998Y6377D1*
X24122Y6366D1*
X24241Y6329D1*
X24348Y6265D1*
X24439Y6180D1*
X24513Y6066D1*
X24567Y6157D1*
X24653Y6247D1*
X24757Y6316D1*
X24874Y6360D1*
X24998Y6377D1*
X25122Y6366D1*
X25241Y6329D1*
X25348Y6265D1*
X25439Y6180D1*
X25513Y6066D1*
X25567Y6157D1*
X25653Y6247D1*
X25757Y6316D1*
X25874Y6360D1*
X25998Y6377D1*
X26122Y6366D1*
X26241Y6329D1*
X26348Y6265D1*
X26439Y6180D1*
X26513Y6066D1*
X26567Y6157D1*
X26653Y6247D1*
X26757Y6316D1*
X26874Y6360D1*
X26998Y6377D1*
X27122Y6366D1*
X27241Y6329D1*
X27348Y6265D1*
X27439Y6180D1*
X27513Y6066D1*
X27552Y6137D1*
X27634Y6230D1*
X27735Y6304D1*
X27850Y6353D1*
X27973Y6376D1*
X28097Y6371D1*
X28218Y6338D1*
X28328Y6280D1*
X28423Y6199D1*
X28497Y6098D1*
X28513Y6069D1*
X28567Y6157D1*
X28653Y6247D1*
X28757Y6316D1*
X28874Y6360D1*
X28998Y6377D1*
X29122Y6366D1*
X29241Y6329D1*
X29348Y6265D1*
X29439Y6180D1*
X29513Y6066D1*
X29567Y6157D1*
X29653Y6247D1*
X29757Y6316D1*
X29874Y6360D1*
X29998Y6377D1*
X30122Y6366D1*
X30241Y6329D1*
X30348Y6265D1*
X30439Y6180D1*
X30513Y6066D1*
X30567Y6157D1*
X30653Y6247D1*
X30757Y6316D1*
X30874Y6360D1*
X30998Y6377D1*
X31122Y6366D1*
X31241Y6329D1*
X31348Y6265D1*
X31439Y6180D1*
X31513Y6066D1*
X31567Y6157D1*
X31653Y6247D1*
X31757Y6316D1*
X31874Y6360D1*
X31998Y6377D1*
X32122Y6366D1*
X32241Y6329D1*
X32348Y6265D1*
X32439Y6180D1*
X32513Y6066D1*
X32567Y6157D1*
X32653Y6247D1*
X32757Y6316D1*
X32874Y6360D1*
X32998Y6377D1*
X33122Y6366D1*
X33241Y6329D1*
X33348Y6265D1*
X33439Y6180D1*
X33513Y6066D1*
X33567Y6157D1*
X33653Y6247D1*
X33757Y6316D1*
X33874Y6360D1*
X33998Y6377D1*
X34122Y6366D1*
X34241Y6329D1*
X34348Y6265D1*
X34439Y6180D1*
X34513Y6066D1*
X34567Y6157D1*
X34653Y6247D1*
X34757Y6316D1*
X34874Y6360D1*
X34998Y6377D1*
X35122Y6366D1*
X35192Y6344D1*
X35189Y6735D1*
Y7036D1*
X30097Y12129D1*
X30028Y12232D1*
X30001Y12360D1*
Y15599D1*
X28222Y17379D1*
X28145Y17500D1*
X28127Y17584D1*
X27957Y17769D1*
X27597Y18129D1*
X27528Y18232D1*
X27501Y18360D1*
Y18610D1*
X27525Y18732D1*
X27597Y18842D1*
X27738Y18983D1*
X27768Y19146D1*
X27826Y19256D1*
X27912Y19347D1*
X28018Y19412D1*
X28138Y19445D1*
X28263Y19446D1*
X28383Y19414D1*
X28491Y19351D1*
X28577Y19262D1*
X28637Y19153D1*
X28669Y18985D1*
X28652Y18862D1*
X28596Y18738D1*
X28637Y18653D1*
X28669Y18485D1*
X29673Y17479D1*
X30499Y16654D1*
X30501Y17411D1*
X30405Y17538D1*
X30377Y17644D1*
X30376Y18360D1*
X30400Y18482D1*
X30472Y18592D1*
X30910Y19029D1*
X31013Y19099D1*
X31141Y19125D1*
X31516D1*
X31638Y19102D1*
X31748Y19029D1*
X31935Y18842D1*
X32005Y18739D1*
X32031Y18610D1*
Y18298D1*
X32008Y18176D1*
X31935Y18066D1*
X31800Y17929D1*
X31783Y17806D1*
X31734Y17691D1*
X31657Y17593D1*
X31556Y17520D1*
X31440Y17476D1*
X31405Y17473D1*
X31406Y16591D1*
X32616Y17801D1*
X32617Y21481D1*
X32573Y21526D1*
X29829Y21523D1*
X27450D1*
X27479Y21406D1*
X27464Y21237D1*
X27416Y21122D1*
X27338Y21025D1*
X27237Y20951D1*
X27121Y20907D1*
X26997Y20896D1*
X26849Y20929D1*
X26781Y20798D1*
Y19360D1*
X26758Y19238D1*
X26685Y19129D1*
X25246Y17690D1*
X25630Y17688D1*
X26410Y18467D1*
X26513Y18536D1*
X26641Y18563D1*
X27016D1*
X27138Y18539D1*
X27248Y18467D1*
X27560Y18154D1*
X27631Y18048D1*
X27702Y17949D1*
X27762Y17840D1*
X27794Y17673D1*
X27777Y17549D1*
X27728Y17435D1*
X27650Y17337D1*
X27550Y17264D1*
X27433Y17220D1*
X27309Y17208D1*
X27186Y17230D1*
X27074Y17284D1*
X26980Y17366D1*
X26956Y17401D1*
X26872Y17396D1*
X26749Y17418D1*
X26647Y17466D1*
X26060Y16879D1*
X25957Y16809D1*
X25829Y16783D1*
X24965D1*
X24826Y16644D1*
X24890Y16574D1*
X24950Y16465D1*
X24969Y16386D1*
X25013Y16384D1*
X25133Y16352D1*
X25241Y16289D1*
X25327Y16199D1*
X25387Y16090D1*
X25419Y15923D1*
X25402Y15799D1*
X25353Y15685D1*
X25275Y15587D1*
X25222Y15548D1*
X25327Y15449D1*
X25367Y15378D1*
X25513Y15384D1*
X25633Y15352D1*
X25741Y15289D1*
X25827Y15199D1*
X25887Y15090D1*
X25919Y14923D1*
X25902Y14799D1*
X25853Y14685D1*
X25775Y14587D1*
X25671Y14512D1*
X25660Y14420D1*
X25763Y14445D1*
X25888Y14446D1*
X26008Y14414D1*
X26116Y14351D1*
X26173Y14293D1*
X26285Y14405D1*
X26388Y14474D1*
X26517Y14501D1*
X26935D1*
X26972Y14535D1*
X27078Y14600D1*
X27198Y14633D1*
X27323Y14634D1*
X27443Y14602D1*
X27551Y14539D1*
X27647Y14433D1*
X27784Y14566D1*
X27812Y14728D1*
X27870Y14838D1*
X27956Y14929D1*
X28062Y14993D1*
X28182Y15027D1*
X28307Y15028D1*
X28427Y14996D1*
X28535Y14933D1*
X28622Y14843D1*
X28682Y14734D1*
X28713Y14567D1*
X28709Y14540D1*
X28826Y14570D1*
X28950Y14571D1*
X29071Y14539D1*
X29178Y14476D1*
X29265Y14387D1*
X29325Y14278D1*
X29355Y14129D1*
X29446Y14102D1*
X29553Y14039D1*
X29640Y13949D1*
X29700Y13840D1*
X29731Y13673D1*
X29714Y13549D1*
X29658Y13425D1*
X29700Y13340D1*
X29731Y13173D1*
X29714Y13049D1*
X29658Y12925D1*
X29700Y12840D1*
X29731Y12673D1*
X29714Y12549D1*
X29666Y12435D1*
X29588Y12337D1*
X29487Y12264D1*
X29371Y12220D1*
X29289Y12212D1*
X29304Y12106D1*
X29287Y11983D1*
X29238Y11868D1*
X29160Y11771D1*
X29060Y11697D1*
X28943Y11653D1*
X28819Y11642D1*
X28696Y11664D1*
X28584Y11717D1*
X28510Y11781D1*
X27214Y11779D1*
X26835D1*
X23685Y8629D1*
X23582Y8559D1*
X23454Y8533D1*
X8028D1*
X6673Y7179D1*
X6678Y7110D1*
X6665Y6986D1*
X6627Y6867D1*
X6565Y6759D1*
X6482Y6666D1*
X6381Y6592D1*
X6267Y6541D1*
X6145Y6514D1*
X6021Y6513D1*
X5898Y6538D1*
X5784Y6588D1*
X5682Y6660D1*
X5580Y6782D1*
X5482Y6666D1*
X5381Y6592D1*
X5267Y6541D1*
X5145Y6514D1*
X5021Y6513D1*
X4898Y6538D1*
X4784Y6588D1*
X4682Y6660D1*
X4598Y6752D1*
X4534Y6860D1*
X4494Y6978D1*
X4479Y7102D1*
X4490Y7226D1*
X4527Y7345D1*
X4588Y7454D1*
X4670Y7548D1*
X4747Y7607D1*
X4682Y7660D1*
X4598Y7752D1*
X4534Y7860D1*
X4494Y7978D1*
X4479Y8102D1*
X4490Y8226D1*
X4527Y8345D1*
X4588Y8454D1*
X4670Y8548D1*
X4747Y8607D1*
X4682Y8660D1*
X4598Y8752D1*
X4534Y8860D1*
X4494Y8978D1*
X4479Y9102D1*
X4490Y9226D1*
X4527Y9345D1*
X4588Y9454D1*
X4670Y9548D1*
X4747Y9607D1*
X4682Y9660D1*
X4598Y9752D1*
X4534Y9860D1*
X4494Y9978D1*
X4479Y10102D1*
X4490Y10226D1*
X4527Y10345D1*
X4588Y10454D1*
X4670Y10548D1*
X4747Y10607D1*
X4682Y10660D1*
X4598Y10752D1*
X4534Y10860D1*
X4494Y10978D1*
X4479Y11102D1*
X4490Y11226D1*
X4527Y11345D1*
X4588Y11454D1*
X4670Y11548D1*
X4747Y11607D1*
X4682Y11660D1*
X4598Y11752D1*
X4534Y11860D1*
X4494Y11978D1*
X4479Y12102D1*
X4490Y12226D1*
X4527Y12345D1*
X4588Y12454D1*
X4670Y12548D1*
X4747Y12607D1*
X4682Y12660D1*
X4598Y12752D1*
X4534Y12860D1*
X4494Y12978D1*
X4479Y13102D1*
X4490Y13226D1*
X4527Y13345D1*
X4588Y13454D1*
X4670Y13548D1*
X4747Y13607D1*
X4682Y13660D1*
X4598Y13752D1*
X4534Y13860D1*
X4494Y13978D1*
X4479Y14102D1*
X4490Y14226D1*
X4527Y14345D1*
X4588Y14454D1*
X4636Y14510D1*
X4479Y14511D1*
Y15710D1*
X4839Y15715D1*
X4745Y15797D1*
X4669Y15896D1*
X4613Y16008D1*
X4581Y16128D1*
X4572Y16253D1*
X4588Y16377D1*
X4627Y16495D1*
X4689Y16604D1*
X4770Y16698D1*
X4813Y16735D1*
X4763Y16780D1*
X4683Y16875D1*
X4623Y16985D1*
X4585Y17104D1*
X4572Y17228D1*
X4583Y17352D1*
X4617Y17472D1*
X4687Y17598D1*
X4572Y17596D1*
Y18874D1*
X6086D1*
Y18566D1*
X6469Y18563D1*
X6591Y18539D1*
X6701Y18467D1*
X6919Y18249D1*
X6920Y19650D1*
X5281Y21289D1*
X4558Y21290D1*
Y22804D1*
X4683D1*
X6072Y20054D2*
X6052Y19905D1*
X6003Y19764D1*
X5928Y19634D1*
X5828Y19522D1*
X5709Y19432D1*
X5574Y19367D1*
X5429Y19330D1*
X5279Y19323D1*
X5131Y19344D1*
X4990Y19395D1*
X4862Y19472D1*
X4751Y19573D1*
X4663Y19694D1*
X4600Y19830D1*
X4565Y19976D1*
X4559Y20125D1*
X4583Y20273D1*
X4636Y20413D1*
X4715Y20541D1*
X4818Y20650D1*
X4940Y20736D1*
X5077Y20797D1*
X5223Y20830D1*
X5372Y20834D1*
X5520Y20808D1*
X5659Y20753D1*
X5785Y20672D1*
X5893Y20568D1*
X5978Y20444D1*
X6037Y20307D1*
X6068Y20160D1*
X6072Y20054D1*
X40952Y13572D2*
X41131D1*
Y13318D1*
X41799Y13314D1*
X41834Y13347D1*
X41940Y13412D1*
X42060Y13445D1*
X42185Y13446D1*
X42305Y13414D1*
X42413Y13351D1*
X42500Y13262D1*
X42560Y13153D1*
X42591Y12985D1*
X42574Y12862D1*
X42525Y12747D1*
X42448Y12650D1*
X42347Y12576D1*
X42230Y12532D1*
X42106Y12521D1*
X41984Y12543D1*
X41871Y12596D1*
X41798Y12660D1*
X41128Y12662D1*
X41131Y12412D1*
X39971D1*
Y12596D1*
X39929Y12552D1*
X39826Y12481D1*
X39710Y12434D1*
X39587Y12413D1*
X39462Y12419D1*
X39342Y12451D1*
X39231Y12509D1*
X39135Y12588D1*
X39058Y12687D1*
X39004Y12799D1*
X38976Y12921D1*
X38974Y13045D1*
X38998Y13168D1*
X39049Y13282D1*
X39122Y13382D1*
X39216Y13465D1*
X39260Y13490D1*
X39153Y13571D1*
X39072Y13666D1*
X39013Y13776D1*
X38979Y13896D1*
X38972Y14020D1*
X38991Y14144D1*
X39037Y14260D1*
X39106Y14364D1*
X39196Y14450D1*
X39257Y14492D1*
X39135Y14588D1*
X39058Y14687D1*
X39004Y14799D1*
X38976Y14921D1*
X38974Y15045D1*
X38998Y15168D1*
X39049Y15282D1*
X39122Y15382D1*
X39216Y15465D1*
X39260Y15490D1*
X39135Y15588D1*
X39058Y15687D1*
X39004Y15799D1*
X38976Y15921D1*
X38974Y16045D1*
X38998Y16168D1*
X39049Y16282D1*
X39122Y16382D1*
X39216Y16465D1*
X39260Y16490D1*
X39135Y16588D1*
X39058Y16687D1*
X39004Y16799D1*
X38976Y16921D1*
X38974Y17045D1*
X38998Y17168D1*
X39049Y17282D1*
X39122Y17382D1*
X39216Y17465D1*
X39325Y17526D1*
X39444Y17562D1*
X39569Y17572D1*
X39692Y17555D1*
X39809Y17511D1*
X39914Y17444D1*
X40003Y17356D1*
X40051Y17281D1*
X40122Y17382D1*
X40216Y17465D1*
X40325Y17526D1*
X40444Y17562D1*
X40569Y17572D1*
X40692Y17555D1*
X40809Y17511D1*
X40914Y17444D1*
X41003Y17356D1*
X41070Y17251D1*
X41113Y17134D1*
X41131Y16992D1*
X41118Y16868D1*
X41078Y16750D1*
X41014Y16643D1*
X40929Y16552D1*
X40842Y16492D1*
X40914Y16444D1*
X41003Y16356D1*
X41070Y16251D1*
X41113Y16134D1*
X41131Y15992D1*
X41118Y15868D1*
X41078Y15750D1*
X41014Y15643D1*
X40929Y15552D1*
X40842Y15492D1*
X40914Y15444D1*
X41003Y15356D1*
X41070Y15251D1*
X41113Y15134D1*
X41131Y14992D1*
X41118Y14868D1*
X41078Y14750D1*
X41014Y14643D1*
X40929Y14552D1*
X40842Y14492D1*
X40914Y14444D1*
X41003Y14356D1*
X41070Y14251D1*
X41113Y14134D1*
X41131Y14011D1*
X41122Y13893D1*
X41088Y13773D1*
X41029Y13663D1*
X40951Y13572D1*
X40051Y14285D2*
X40122Y14382D1*
X40216Y14465D1*
X40257Y14492D1*
X40135Y14588D1*
X40053Y14697D1*
X39929Y14552D1*
X39842Y14492D1*
X39914Y14444D1*
X40003Y14356D1*
X40051Y14286D1*
Y15285D2*
X40122Y15382D1*
X40216Y15465D1*
X40260Y15490D1*
X40135Y15588D1*
X40053Y15697D1*
X39929Y15552D1*
X39842Y15492D1*
X39914Y15444D1*
X40003Y15356D1*
X40051Y15281D1*
Y16285D2*
X40122Y16382D1*
X40216Y16465D1*
X40260Y16490D1*
X40135Y16588D1*
X40053Y16697D1*
X39929Y16552D1*
X39842Y16492D1*
X39914Y16444D1*
X40003Y16356D1*
X40051Y16281D1*
X5678Y15640D2*
Y15556D1*
X5694Y15646D1*
X5679Y15640D1*
X5769Y15624D1*
X5882Y15677D1*
X6004Y15705D1*
X6128Y15708D1*
X6251Y15685D1*
X6366Y15636D1*
X6466Y15568D1*
X6464Y16894D1*
X6334Y16908D1*
X5994D1*
X5900Y16785D1*
X5843Y16738D1*
X5940Y16641D1*
X6010Y16537D1*
X6058Y16422D1*
X6083Y16300D1*
X6084Y16185D1*
X6062Y16062D1*
X6017Y15946D1*
X5950Y15841D1*
X5863Y15751D1*
X5761Y15679D1*
X5694Y15646D1*
X28069Y24222D2*
X28096D1*
X27999Y24371D1*
X27959Y24490D1*
X27944Y24613D1*
X27955Y24738D1*
X27992Y24857D1*
X28052Y24966D1*
X28134Y25060D1*
X28234Y25135D1*
X28347Y25188D1*
X28468Y25217D1*
X28593Y25220D1*
X28715Y25196D1*
X28831Y25148D1*
X28933Y25077D1*
X29019Y24987D1*
X29042Y24950D1*
X29134Y25060D1*
X29234Y25135D1*
X29347Y25188D1*
X29468Y25217D1*
X29593Y25220D1*
X29715Y25196D1*
X29831Y25148D1*
X29933Y25077D1*
X30019Y24987D1*
X30042Y24950D1*
X30116Y25043D1*
X30213Y25122D1*
X30323Y25180D1*
X30443Y25213D1*
X30568Y25221D1*
X30691Y25203D1*
X30808Y25160D1*
X30914Y25093D1*
X31003Y25006D1*
X31073Y24903D1*
X31120Y24787D1*
X31141Y24664D1*
X31138Y24547D1*
X31110Y24426D1*
X31057Y24313D1*
X30982Y24213D1*
X30888Y24131D1*
X30874Y24122D1*
X30933Y24077D1*
X31019Y23987D1*
X31084Y23880D1*
X31126Y23763D1*
X31143Y23622D1*
X31130Y23498D1*
X31092Y23379D1*
X31029Y23271D1*
X30946Y23178D1*
X30846Y23104D1*
X30732Y23053D1*
X30610Y23026D1*
X30485Y23025D1*
X30363Y23050D1*
X30248Y23100D1*
X30147Y23172D1*
X30044Y23294D1*
X29946Y23178D1*
X29846Y23104D1*
X29732Y23053D1*
X29610Y23026D1*
X29485Y23025D1*
X29363Y23050D1*
X29248Y23100D1*
X29144Y23175D1*
X29143Y23022D1*
X27944D1*
Y24222D1*
X28069D1*
X6086Y17909D2*
Y17596D1*
X5973D1*
X6079Y17563D1*
X6587Y17562D1*
X6661Y17580D1*
X6334Y17908D1*
X6083D1*
X39759Y5320D2*
X39669Y5375D1*
X39579Y5462D1*
X39514Y5563D1*
X39452Y5469D1*
X39364Y5381D1*
X39262Y5316D1*
X39348Y5265D1*
X39439Y5180D1*
X39513Y5066D1*
X39567Y5157D1*
X39653Y5247D1*
X39761Y5317D1*
X38759Y5320D2*
X38669Y5375D1*
X38579Y5462D1*
X38514Y5563D1*
X38452Y5469D1*
X38364Y5381D1*
X38262Y5316D1*
X38348Y5265D1*
X38439Y5180D1*
X38509Y5077D1*
X38513Y5069D1*
X38567Y5157D1*
X38653Y5247D1*
X38761Y5317D1*
X37759Y5320D2*
X37669Y5375D1*
X37579Y5462D1*
X37514Y5563D1*
X37452Y5469D1*
X37364Y5381D1*
X37262Y5316D1*
X37348Y5265D1*
X37439Y5180D1*
X37513Y5066D1*
X37552Y5137D1*
X37634Y5230D1*
X37735Y5304D1*
X37759Y5317D1*
X35843Y6351D2*
X35948Y6373D1*
X36072Y6374D1*
X36189Y6349D1*
X36108Y6493D1*
X35845Y6755D1*
X35844Y6349D1*
X34759Y5320D2*
X34669Y5375D1*
X34579Y5462D1*
X34514Y5563D1*
X34452Y5469D1*
X34364Y5381D1*
X34262Y5316D1*
X34348Y5265D1*
X34439Y5180D1*
X34509Y5077D1*
X34513Y5069D1*
X34567Y5157D1*
X34653Y5247D1*
X34761Y5317D1*
X33759Y5320D2*
X33669Y5375D1*
X33579Y5462D1*
X33514Y5563D1*
X33452Y5469D1*
X33364Y5381D1*
X33262Y5316D1*
X33348Y5265D1*
X33439Y5180D1*
X33513Y5066D1*
X33552Y5137D1*
X33634Y5230D1*
X33735Y5304D1*
X33759Y5317D1*
X32759Y5320D2*
X32669Y5375D1*
X32579Y5462D1*
X32514Y5563D1*
X32452Y5469D1*
X32364Y5381D1*
X32262Y5316D1*
X32348Y5265D1*
X32439Y5180D1*
X32513Y5066D1*
X32567Y5157D1*
X32653Y5247D1*
X32761Y5317D1*
X31759Y5320D2*
X31669Y5375D1*
X31579Y5462D1*
X31514Y5563D1*
X31452Y5469D1*
X31364Y5381D1*
X31262Y5316D1*
X31348Y5265D1*
X31439Y5180D1*
X31509Y5077D1*
X31513Y5069D1*
X31567Y5157D1*
X31653Y5247D1*
X31761Y5317D1*
X30759Y5320D2*
X30669Y5375D1*
X30579Y5462D1*
X30514Y5563D1*
X30452Y5469D1*
X30364Y5381D1*
X30262Y5316D1*
X30348Y5265D1*
X30439Y5180D1*
X30513Y5066D1*
X30552Y5137D1*
X30634Y5230D1*
X30735Y5304D1*
X30759Y5317D1*
X29759Y5320D2*
X29669Y5375D1*
X29579Y5462D1*
X29514Y5563D1*
X29452Y5469D1*
X29364Y5381D1*
X29262Y5316D1*
X29348Y5265D1*
X29439Y5180D1*
X29513Y5066D1*
X29567Y5157D1*
X29653Y5247D1*
X29761Y5317D1*
X28759Y5320D2*
X28669Y5375D1*
X28579Y5462D1*
X28514Y5563D1*
X28436Y5450D1*
X28344Y5366D1*
X28265Y5317D1*
X28348Y5265D1*
X28439Y5180D1*
X28513Y5066D1*
X28567Y5157D1*
X28653Y5247D1*
X28761Y5317D1*
X27760D2*
X27669Y5375D1*
X27579Y5462D1*
X27513Y5564D1*
X27452Y5469D1*
X27364Y5381D1*
X27262Y5316D1*
X27348Y5265D1*
X27439Y5180D1*
X27513Y5066D1*
X27567Y5157D1*
X27653Y5247D1*
X27761Y5317D1*
X26759Y5320D2*
X26669Y5375D1*
X26579Y5462D1*
X26514Y5563D1*
X26452Y5469D1*
X26364Y5381D1*
X26262Y5316D1*
X26348Y5265D1*
X26439Y5180D1*
X26509Y5077D1*
X26513Y5069D1*
X26567Y5157D1*
X26653Y5247D1*
X26761Y5317D1*
X25759Y5320D2*
X25669Y5375D1*
X25579Y5462D1*
X25514Y5563D1*
X25452Y5469D1*
X25364Y5381D1*
X25262Y5316D1*
X25348Y5265D1*
X25439Y5180D1*
X25513Y5066D1*
X25552Y5137D1*
X25634Y5230D1*
X25735Y5304D1*
X25759Y5317D1*
X24759Y5320D2*
X24669Y5375D1*
X24579Y5462D1*
X24514Y5563D1*
X24452Y5469D1*
X24364Y5381D1*
X24262Y5316D1*
X24348Y5265D1*
X24439Y5180D1*
X24509Y5077D1*
X24513Y5069D1*
X24567Y5157D1*
X24653Y5247D1*
X24761Y5317D1*
X23759Y5320D2*
X23669Y5375D1*
X23579Y5462D1*
X23514Y5563D1*
X23452Y5469D1*
X23364Y5381D1*
X23262Y5316D1*
X23348Y5265D1*
X23439Y5180D1*
X23513Y5066D1*
X23552Y5137D1*
X23634Y5230D1*
X23735Y5304D1*
X23759Y5317D1*
X22759Y5320D2*
X22669Y5375D1*
X22579Y5462D1*
X22514Y5563D1*
X22452Y5469D1*
X22364Y5381D1*
X22262Y5316D1*
X22348Y5265D1*
X22439Y5180D1*
X22513Y5066D1*
X22567Y5157D1*
X22653Y5247D1*
X22761Y5317D1*
X21759Y5320D2*
X21669Y5375D1*
X21579Y5462D1*
X21514Y5563D1*
X21436Y5450D1*
X21344Y5366D1*
X21265Y5317D1*
X21348Y5265D1*
X21439Y5180D1*
X21513Y5066D1*
X21567Y5157D1*
X21653Y5247D1*
X21761Y5317D1*
X13903Y18141D2*
X11220D1*
X11098Y18162D1*
X10975Y18236D1*
X9397Y19813D1*
X9306Y19833D1*
X9194Y19887D1*
X9100Y19968D1*
X9031Y20072D1*
X8992Y20190D1*
X8986Y20315D1*
X9013Y20437D1*
X9071Y20547D1*
X9157Y20637D1*
X9263Y20702D1*
X9383Y20736D1*
X9508Y20737D1*
X9628Y20705D1*
X9736Y20641D1*
X9823Y20552D1*
X9883Y20443D1*
X9911Y20325D1*
X11371Y18867D1*
X13568D1*
X13662Y18964D1*
X13768Y19029D1*
X13888Y19063D1*
X14013Y19064D1*
X14133Y19031D1*
X14241Y18968D1*
X14327Y18879D1*
X14387Y18770D1*
X14419Y18602D1*
X14402Y18479D1*
X14353Y18364D1*
X14275Y18267D1*
X14175Y18193D1*
X14058Y18149D1*
X13915Y18141D1*
X8895Y15485D2*
X11762D1*
X11769Y15515D1*
X11827Y15625D1*
X11913Y15716D1*
X12019Y15781D1*
X12139Y15815D1*
X12264D1*
X12384Y15783D1*
X12492Y15720D1*
X12578Y15631D1*
X12638Y15522D1*
X12670Y15354D1*
X12653Y15231D1*
X12604Y15116D1*
X12526Y15019D1*
X12426Y14945D1*
X12309Y14901D1*
X12197Y14891D1*
X12156Y14865D1*
X12008Y14830D1*
X8895D1*
X8784Y14748D1*
X8667Y14704D1*
X8543Y14693D1*
X8421Y14715D1*
X8308Y14769D1*
X8214Y14850D1*
X8145Y14954D1*
X8106Y15072D1*
X8100Y15197D1*
X8127Y15318D1*
X8185Y15429D1*
X8271Y15519D1*
X8377Y15584D1*
X8497Y15618D1*
X8622Y15619D1*
X8742Y15586D1*
X8850Y15523D1*
X8885Y15487D1*
X35810Y21183D2*
D19*
Y19906D1*
X35171Y20544D2*
X36448D1*
X17055Y25040D2*
Y24441D1*
X17654D1*
X16055Y25040D2*
Y24441D1*
X15055Y25040D2*
Y24441D1*
X14055Y25040D2*
Y24441D1*
X13055Y25040D2*
Y24441D1*
X12055Y25040D2*
Y24441D1*
X11055Y25040D2*
Y24441D1*
X10055Y25040D2*
Y24441D1*
X9055Y25040D2*
Y24441D1*
X8456D2*
X9055D1*
X8929Y5480D2*
Y4881D1*
X8330Y5480D2*
X8929D1*
X9929D2*
Y4881D1*
X10929Y5480D2*
Y4881D1*
X11929Y5480D2*
Y4881D1*
X12929Y5480D2*
Y4881D1*
X13929Y5480D2*
Y4881D1*
X14929Y5480D2*
Y4881D1*
X15929Y5480D2*
Y4881D1*
X16929Y5480D2*
Y4881D1*
Y5480D2*
X17528D1*
X40551Y19685D2*
D13*
Y19086D1*
Y19685D2*
X41150D1*
X40551Y20685D2*
X41150D1*
X40551Y22284D2*
Y21685D1*
X41150D1*
X40551Y8268D2*
Y7669D1*
Y8268D2*
X41150D1*
X40551Y9268D2*
X41150D1*
X40551Y10867D2*
Y10268D1*
X41150D1*
X5315Y20835D2*
Y19322D1*
X4558Y20079D2*
X6072D1*
X40551Y13992D2*
D19*
X41131D1*
X38972D2*
X39551D1*
X4480Y15110D2*
X5079D1*
X24122Y25394D2*
Y24795D1*
X30543Y25221D2*
Y24622D1*
X31142D1*
X4572Y16235D2*
X6085D1*
X21957Y25394D2*
Y24795D1*
X38870Y25394D2*
Y24795D1*
X38271Y25394D2*
X38870D1*
X27280D2*
Y24795D1*
Y25394D2*
X27879D1*
X36012Y6377D2*
Y5817D1*
X28012Y6377D2*
Y5817D1*
X21012Y6377D2*
Y5817D1*
X20453D2*
X21012D1*
D23*
X31873Y20544D3*
D24*
X35810D3*
D30*
X17055Y24441D3*
D31*
Y23441D3*
X16055Y24441D3*
Y23441D3*
X15055Y24441D3*
Y23441D3*
X14055Y24441D3*
Y23441D3*
X13055Y24441D3*
Y23441D3*
X12055Y24441D3*
Y23441D3*
X11055Y24441D3*
Y23441D3*
X10055Y24441D3*
Y23441D3*
X9055Y24441D3*
Y23441D3*
X17055Y22441D3*
X16055D3*
X15055D3*
X14055D3*
X13055D3*
X12055D3*
X11055D3*
X10055D3*
X9055D3*
D30*
X8929Y5480D3*
D31*
Y6480D3*
X9929Y5480D3*
Y6480D3*
X10929Y5480D3*
Y6480D3*
X11929Y5480D3*
Y6480D3*
X12929Y5480D3*
Y6480D3*
X13929Y5480D3*
Y6480D3*
X14929Y5480D3*
Y6480D3*
X15929Y5480D3*
Y6480D3*
X16929Y5480D3*
Y6480D3*
X8929Y7480D3*
X9929D3*
X10929D3*
X11929D3*
X12929D3*
X13929D3*
X14929D3*
X15929D3*
X16929D3*
D30*
X40551Y19685D3*
D31*
X39551D3*
X40551Y20685D3*
X39551D3*
X40551Y21685D3*
X39551D3*
X38551Y19685D3*
Y20685D3*
Y21685D3*
D30*
X40551Y8268D3*
D31*
X39551D3*
X40551Y9268D3*
X39551D3*
X40551Y10268D3*
X39551D3*
X38551Y8268D3*
Y9268D3*
Y10268D3*
D32*
X5315Y22047D3*
D33*
Y20079D3*
D34*
X40551Y12992D3*
D35*
X39551D3*
X40551Y13992D3*
X39551D3*
X40551Y14992D3*
X39551D3*
X40551Y15992D3*
X39551D3*
X40551Y16992D3*
X39551D3*
D30*
X5079Y15110D3*
D31*
X6079D3*
X5079Y14110D3*
X6079D3*
X5079Y13110D3*
X6079D3*
X5079Y12110D3*
X6079D3*
X5079Y11110D3*
X6079D3*
X5079Y10110D3*
X6079D3*
X5079Y9110D3*
X6079D3*
X5079Y8110D3*
X6079D3*
X5079Y7110D3*
X6079D3*
D30*
X23122Y25394D3*
D31*
X24122D3*
D30*
X28543Y23622D3*
D31*
Y24622D3*
X29543Y23622D3*
Y24622D3*
X30543Y23622D3*
Y24622D3*
D36*
X5329Y18235D3*
D37*
Y17235D3*
Y16235D3*
D30*
X20957Y25394D3*
D31*
X21957D3*
D30*
X38870D3*
D31*
X39870D3*
D30*
X25280D3*
D31*
X26280D3*
X27280D3*
D40*
X5315Y5315D3*
Y24606D3*
D42*
X40012Y5817D3*
X39012D3*
X38012D3*
X37012D3*
X36012D3*
X35012D3*
X34012D3*
X33012D3*
X32012D3*
X31012D3*
X30012D3*
X29012D3*
X28012D3*
X27012D3*
X26012D3*
X25012D3*
X24012D3*
X23012D3*
X22012D3*
X21012D3*
Y4817D3*
X22012D3*
X23012D3*
X24012D3*
X25012D3*
X26012D3*
X27012D3*
X28012D3*
X29012D3*
X30012D3*
X31012D3*
X32012D3*
X33012D3*
X34012D3*
X35012D3*
X36012D3*
X37012D3*
X38012D3*
X39012D3*
X40012D3*
D43*
X41930Y5317D3*
Y24608D3*
X19095Y5317D3*
Y24608D3*
D50*
X33079Y15548D3*
Y16548D3*
M02*
