G04 DipTrace 2.4.0.2*
%INBottomSilk.gbr*%
%MOIN*%
%ADD12C,0.003*%
%ADD47C,0.0154*%
%ADD107C,0.0124*%
%ADD108C,0.0093*%
%ADD109C,0.0741*%
%FSLAX44Y44*%
G04*
G70*
G90*
G75*
G01*
%LNBotSilk*%
%LPD*%
X31240Y20792D2*
D12*
X31270D1*
X31206Y20762D2*
X31270D1*
X31174Y20732D2*
X31270D1*
X31141Y20702D2*
X31270D1*
X31111Y20672D2*
X31270D1*
X31081Y20643D2*
X31270D1*
X31051Y20613D2*
X31270D1*
X31021Y20583D2*
X31270D1*
X30992Y20553D2*
X31270D1*
X30961Y20523D2*
X31270D1*
X30931Y20493D2*
X31270D1*
X30902Y20463D2*
X31270D1*
X30871Y20433D2*
X31270D1*
X30841Y20403D2*
X31270D1*
X30812Y20373D2*
X31270D1*
X30781Y20343D2*
X31270D1*
X30752Y20313D2*
X31270D1*
X30722Y20283D2*
X31270D1*
X30692Y20254D2*
X31270D1*
X30662Y20224D2*
X31270D1*
X30632Y20194D2*
X31270D1*
X30602Y20164D2*
X31270D1*
X30572Y20134D2*
X31270D1*
X30543Y20104D2*
X31270D1*
X30512Y20074D2*
X31270D1*
X30482Y20044D2*
X31270D1*
X30453Y20014D2*
X31270D1*
X30422Y19984D2*
X31270D1*
X30393Y19954D2*
X31270D1*
X30363Y19924D2*
X31270D1*
X30333Y19894D2*
X31270D1*
X32198D2*
D3*
X30303Y19865D2*
X31270D1*
X32198D2*
X32258D1*
X30273Y19835D2*
X31270D1*
X32198D2*
X32277D1*
X30243Y19805D2*
X31270D1*
X32198D2*
X32302D1*
X30215Y19775D2*
X31270D1*
X32198D2*
X32327D1*
X30191Y19745D2*
X31270D1*
X32198D2*
X32350D1*
X30166Y19715D2*
X31270D1*
X32198D2*
X32375D1*
X30136Y19685D2*
X31270D1*
X32198D2*
X32405D1*
X30101Y19655D2*
X31270D1*
X32198D2*
X32440D1*
X30067Y19625D2*
X31270D1*
X32198D2*
X32473D1*
X30036Y19595D2*
X31270D1*
X32198D2*
X32505D1*
X30004Y19565D2*
X31270D1*
X32198D2*
X32537D1*
X29974Y19535D2*
X31270D1*
X32198D2*
X32567D1*
X29944Y19506D2*
X31270D1*
X32198D2*
X32596D1*
X29914Y19476D2*
X31270D1*
X32198D2*
X32627D1*
X29884Y19446D2*
X31270D1*
X32198D2*
X32657D1*
X29855Y19416D2*
X31270D1*
X32198D2*
X32686D1*
X29824Y19386D2*
X31270D1*
X32198D2*
X32717D1*
X29794Y19356D2*
X31270D1*
X32198D2*
X32747D1*
X29765Y19326D2*
X31270D1*
X32198D2*
X32776D1*
X29734Y19296D2*
X31270D1*
X32198D2*
X32807D1*
X29704Y19266D2*
X31270D1*
X32198D2*
X32836D1*
X29675Y19236D2*
X31270D1*
X32198D2*
X32866D1*
X29644Y19206D2*
X31270D1*
X32198D2*
X32896D1*
X29615Y19176D2*
X31270D1*
X32198D2*
X32926D1*
X29585Y19146D2*
X31270D1*
X32198D2*
X32956D1*
X29555Y19117D2*
X31270D1*
X32198D2*
X32986D1*
X29525Y19087D2*
X31270D1*
X32198D2*
X33016D1*
X29495Y19057D2*
X31270D1*
X32198D2*
X33045D1*
X29465Y19027D2*
X31270D1*
X32198D2*
X33076D1*
X29435Y18997D2*
X31270D1*
X32198D2*
X33106D1*
X29406Y18967D2*
X31270D1*
X32198D2*
X33135D1*
X29375Y18937D2*
X31270D1*
X32198D2*
X33166D1*
X29345Y18907D2*
X31270D1*
X32198D2*
X33195D1*
X29316Y18877D2*
X31270D1*
X32198D2*
X33225D1*
X29285Y18847D2*
X31270D1*
X32198D2*
X33255D1*
X29256Y18817D2*
X31270D1*
X32198D2*
X33285D1*
X29226Y18787D2*
X31270D1*
X32198D2*
X33315D1*
X29196Y18757D2*
X31270D1*
X32198D2*
X33345D1*
X29166Y18728D2*
X31270D1*
X32198D2*
X33375D1*
X29136Y18698D2*
X31270D1*
X32198D2*
X33404D1*
X29106Y18668D2*
X31270D1*
X32198D2*
X33435D1*
X29076Y18638D2*
X31270D1*
X32198D2*
X33465D1*
X29047Y18608D2*
X31270D1*
X32198D2*
X33494D1*
X29016Y18578D2*
X31270D1*
X32198D2*
X33523D1*
X28988Y18548D2*
X31270D1*
X32198D2*
X33547D1*
X28964Y18518D2*
X31270D1*
X32198D2*
X33563D1*
X28940Y18488D2*
X31270D1*
X32198D2*
X33634D1*
X28909Y18458D2*
X31270D1*
X32198D2*
X33654D1*
X28874Y18428D2*
X31270D1*
X32198D2*
X33679D1*
X28841Y18398D2*
X31270D1*
X32198D2*
X33706D1*
X28809Y18369D2*
X31270D1*
X32198D2*
X33734D1*
X28777Y18339D2*
X31270D1*
X32198D2*
X33764D1*
X28747Y18309D2*
X31270D1*
X32198D2*
X33794D1*
X28718Y18279D2*
X31270D1*
X32198D2*
X33823D1*
X28687Y18249D2*
X31270D1*
X32198D2*
X33854D1*
X28657Y18219D2*
X31270D1*
X32198D2*
X33884D1*
X28628Y18189D2*
X31270D1*
X32198D2*
X33913D1*
X28597Y18159D2*
X31270D1*
X32198D2*
X33944D1*
X28567Y18129D2*
X31270D1*
X32198D2*
X33973D1*
X28538Y18099D2*
X31270D1*
X32198D2*
X34003D1*
X28507Y18069D2*
X31270D1*
X32198D2*
X34033D1*
X28478Y18039D2*
X31270D1*
X32198D2*
X34063D1*
X28448Y18009D2*
X31270D1*
X32198D2*
X34093D1*
X28418Y17980D2*
X31270D1*
X32198D2*
X34123D1*
X28388Y17950D2*
X31270D1*
X32198D2*
X34153D1*
X28358Y17920D2*
X31270D1*
X32198D2*
X34182D1*
X28328Y17890D2*
X31270D1*
X32198D2*
X34213D1*
X28298Y17860D2*
X31270D1*
X32198D2*
X34243D1*
X28269Y17830D2*
X31270D1*
X32198D2*
X34272D1*
X28238Y17800D2*
X31270D1*
X32198D2*
X34303D1*
X28208Y17770D2*
X31270D1*
X32198D2*
X34332D1*
X28179Y17740D2*
X31270D1*
X32198D2*
X34362D1*
X28148Y17710D2*
X31270D1*
X32198D2*
X34392D1*
X28119Y17680D2*
X31270D1*
X32198D2*
X34422D1*
X28089Y17650D2*
X31270D1*
X32198D2*
X34452D1*
X28059Y17620D2*
X31270D1*
X32198D2*
X34482D1*
X28029Y17591D2*
X31270D1*
X32198D2*
X34512D1*
X27999Y17561D2*
X31270D1*
X32198D2*
X34541D1*
X27969Y17531D2*
X31270D1*
X32198D2*
X34572D1*
X27939Y17501D2*
X31270D1*
X32198D2*
X34602D1*
X27910Y17471D2*
X31270D1*
X32198D2*
X34631D1*
X27879Y17441D2*
X31270D1*
X32198D2*
X34662D1*
X27851Y17411D2*
X31270D1*
X32198D2*
X34689D1*
X27827Y17381D2*
X31270D1*
X32198D2*
X34713D1*
X27803Y17351D2*
X31270D1*
X32198D2*
X34738D1*
X27772Y17321D2*
X31270D1*
X32198D2*
X34769D1*
X27737Y17291D2*
X31270D1*
X32198D2*
X34804D1*
X27704Y17261D2*
X31270D1*
X32198D2*
X34837D1*
X27672Y17231D2*
X31270D1*
X32198D2*
X34869D1*
X27640Y17202D2*
X31270D1*
X32198D2*
X34900D1*
X27610Y17172D2*
X31270D1*
X32198D2*
X34931D1*
X27581Y17142D2*
X31270D1*
X32198D2*
X34960D1*
X27550Y17112D2*
X31270D1*
X32198D2*
X34991D1*
X27520Y17082D2*
X31270D1*
X32198D2*
X35021D1*
X27491Y17052D2*
X31270D1*
X32198D2*
X35050D1*
X27460Y17022D2*
X31270D1*
X32198D2*
X35081D1*
X27430Y16992D2*
X31270D1*
X32198D2*
X35110D1*
X27401Y16962D2*
X31270D1*
X32198D2*
X35140D1*
X27370Y16932D2*
X31270D1*
X32198D2*
X35170D1*
X27341Y16902D2*
X31270D1*
X32198D2*
X35200D1*
X27311Y16872D2*
X31270D1*
X32198D2*
X35230D1*
X27281Y16843D2*
X31268D1*
X32198D2*
X35260D1*
X27251Y16813D2*
X31262D1*
X32198D2*
X35290D1*
X27221Y16783D2*
X31237D1*
X32198D2*
X35319D1*
X27191Y16753D2*
X31205D1*
X32198D2*
X35350D1*
X27161Y16723D2*
X31173D1*
X32198D2*
X35380D1*
X27132Y16693D2*
X31142D1*
X32198D2*
X35409D1*
X27101Y16663D2*
X31111D1*
X32198D2*
X35440D1*
X27071Y16633D2*
X31081D1*
X32198D2*
X35469D1*
X27042Y16603D2*
X31051D1*
X32198D2*
X35499D1*
X27011Y16573D2*
X31021D1*
X32198D2*
X35529D1*
X26982Y16543D2*
X30991D1*
X32198D2*
X35559D1*
X26952Y16513D2*
X30962D1*
X32198D2*
X35589D1*
X26922Y16483D2*
X30931D1*
X32198D2*
X35619D1*
X26892Y16454D2*
X30901D1*
X32198D2*
X35649D1*
X26862Y16424D2*
X30872D1*
X32198D2*
X35678D1*
X26832Y16394D2*
X30841D1*
X32198D2*
X35709D1*
X26802Y16364D2*
X30811D1*
X32198D2*
X35739D1*
X26773Y16334D2*
X30782D1*
X32198D2*
X35768D1*
X26742Y16304D2*
X30751D1*
X32198D2*
X35799D1*
X26712Y16274D2*
X30722D1*
X32198D2*
X35828D1*
X26683Y16244D2*
X30692D1*
X32198D2*
X35858D1*
X26652Y16214D2*
X30662D1*
X32198D2*
X35887D1*
X26625Y16184D2*
X30634D1*
X32198D2*
X35911D1*
X26601Y16154D2*
X30610D1*
X32198D2*
X35927D1*
X26576Y16124D2*
X30586D1*
X32198D2*
X35998D1*
X26545Y16094D2*
X30560D1*
X32198D2*
X36018D1*
X26510Y16065D2*
X30531D1*
X32198D2*
X36043D1*
X26477Y16035D2*
X30502D1*
X32198D2*
X36070D1*
X26445Y16005D2*
X30472D1*
X32198D2*
X36098D1*
X26414Y15975D2*
X30442D1*
X32198D2*
X36128D1*
X26385Y15945D2*
X30412D1*
X32199D2*
X36158D1*
X26359Y15915D2*
X30379D1*
X32203D2*
X36187D1*
X26333Y15885D2*
X30343D1*
X32213D2*
X36218D1*
X32229Y15855D2*
X36247D1*
X32252Y15825D2*
X36277D1*
X32280Y15795D2*
X36307D1*
X32308Y15765D2*
X36337D1*
X32338Y15735D2*
X36367D1*
X32368Y15706D2*
X36397D1*
X32398Y15676D2*
X36427D1*
X32432Y15646D2*
X36456D1*
X32469Y15616D2*
X36487D1*
X32503Y15586D2*
X36517D1*
X32535Y15556D2*
X36546D1*
X32567Y15526D2*
X36577D1*
X32597Y15496D2*
X36606D1*
X32626Y15466D2*
X36636D1*
X32657Y15436D2*
X36666D1*
X32687Y15406D2*
X36696D1*
X32716Y15376D2*
X36726D1*
X32747Y15346D2*
X36756D1*
X32777Y15317D2*
X36786D1*
X32806Y15287D2*
X36815D1*
X32837Y15257D2*
X36846D1*
X32866Y15227D2*
X36876D1*
X32896Y15197D2*
X36905D1*
X32926Y15167D2*
X36936D1*
X32956Y15137D2*
X36965D1*
X32985Y15107D2*
X36995D1*
X33016Y15077D2*
X37025D1*
X33043Y15047D2*
X37053D1*
X33065Y15017D2*
X37075D1*
X33082Y14987D2*
X37092D1*
X33096Y14957D2*
X37105D1*
X25436Y14928D2*
X29445D1*
X25460Y14898D2*
X29469D1*
X25487Y14868D2*
X29497D1*
X25517Y14838D2*
X29526D1*
X25545Y14808D2*
X29555D1*
X25575Y14778D2*
X29585D1*
X25606Y14748D2*
X29615D1*
X25635Y14718D2*
X29644D1*
X25665Y14688D2*
X29674D1*
X25695Y14658D2*
X29705D1*
X25725Y14628D2*
X29734D1*
X25755Y14598D2*
X29764D1*
X25785Y14569D2*
X29795D1*
X25814Y14539D2*
X29824D1*
X25845Y14509D2*
X29854D1*
X25875Y14479D2*
X29884D1*
X25904Y14449D2*
X29914D1*
X25934Y14419D2*
X29944D1*
X25965Y14389D2*
X29974D1*
X25994Y14359D2*
X30005D1*
X26024Y14329D2*
X30038D1*
X26054Y14299D2*
X30075D1*
X26084Y14269D2*
X30109D1*
X26114Y14239D2*
X30141D1*
X26144Y14209D2*
X30173D1*
X26173Y14180D2*
X30203D1*
X26204Y14150D2*
X30233D1*
X26234Y14120D2*
X30263D1*
X26263Y14090D2*
X30291D1*
X26293Y14060D2*
X30312D1*
X26324Y14030D2*
X30327D1*
X32198D2*
X36207D1*
X26353Y14000D2*
X30336D1*
X32163D2*
X36183D1*
X26383Y13970D2*
X30340D1*
X32131D2*
X36156D1*
X26414Y13940D2*
X30342D1*
X32099D2*
X36126D1*
X26444Y13910D2*
X30342D1*
X32069D2*
X36098D1*
X26478Y13880D2*
X30343D1*
X32039D2*
X36068D1*
X26514Y13850D2*
X30343D1*
X32008D2*
X36038D1*
X26546Y13820D2*
X30343D1*
X31981D2*
X36009D1*
X26573Y13791D2*
X30343D1*
X31957D2*
X35981D1*
X26598Y13761D2*
X30343D1*
X31933D2*
X35951D1*
X26625Y13731D2*
X30343D1*
X31906D2*
X35920D1*
X26654Y13701D2*
X30343D1*
X31877D2*
X35889D1*
X26683Y13671D2*
X30343D1*
X31849D2*
X35859D1*
X26712Y13641D2*
X30343D1*
X31819D2*
X35829D1*
X26743Y13611D2*
X30343D1*
X31789D2*
X35798D1*
X26772Y13581D2*
X30343D1*
X31759D2*
X35769D1*
X26802Y13551D2*
X30343D1*
X31729D2*
X35739D1*
X26832Y13521D2*
X30343D1*
X31699D2*
X35708D1*
X26862Y13491D2*
X30343D1*
X31670D2*
X35679D1*
X26892Y13461D2*
X30343D1*
X31640D2*
X35649D1*
X26922Y13431D2*
X30343D1*
X31609D2*
X35619D1*
X26951Y13402D2*
X30343D1*
X31580D2*
X35589D1*
X26982Y13372D2*
X30343D1*
X31550D2*
X35559D1*
X27012Y13342D2*
X30343D1*
X31519D2*
X35529D1*
X27041Y13312D2*
X30343D1*
X31490D2*
X35500D1*
X27071Y13282D2*
X30343D1*
X31460D2*
X35469D1*
X27102Y13252D2*
X30343D1*
X31430D2*
X35439D1*
X27131Y13222D2*
X30343D1*
X31400D2*
X35410D1*
X27161Y13192D2*
X30343D1*
X31370D2*
X35380D1*
X27192Y13162D2*
X30343D1*
X31342D2*
X35349D1*
X27221Y13132D2*
X30343D1*
X31318D2*
X35320D1*
X27251Y13102D2*
X30343D1*
X31309D2*
X35290D1*
X27281Y13072D2*
X30343D1*
X31304D2*
X35259D1*
X27311Y13043D2*
X30343D1*
X31302D2*
X35230D1*
X27341Y13013D2*
X30343D1*
X31301D2*
X35200D1*
X27371Y12983D2*
X30343D1*
X31300D2*
X35170D1*
X27400Y12953D2*
X30343D1*
X31300D2*
X35140D1*
X27430Y12923D2*
X30343D1*
X31300D2*
X35110D1*
X27461Y12893D2*
X30343D1*
X31300D2*
X35080D1*
X27490Y12863D2*
X30343D1*
X31300D2*
X35051D1*
X27520Y12833D2*
X30343D1*
X31300D2*
X35021D1*
X27551Y12803D2*
X30343D1*
X31300D2*
X34990D1*
X27580Y12773D2*
X30343D1*
X31300D2*
X34961D1*
X27610Y12743D2*
X30343D1*
X31300D2*
X34931D1*
X27640Y12713D2*
X30343D1*
X31300D2*
X34901D1*
X27669Y12683D2*
X30343D1*
X31300D2*
X34872D1*
X27697Y12654D2*
X30343D1*
X31300D2*
X34844D1*
X27727Y12624D2*
X30343D1*
X31300D2*
X34814D1*
X27758Y12594D2*
X30343D1*
X31300D2*
X34783D1*
X27789Y12564D2*
X30343D1*
X31300D2*
X34752D1*
X27819Y12534D2*
X30343D1*
X31300D2*
X34722D1*
X27849Y12504D2*
X30343D1*
X31300D2*
X34692D1*
X27880Y12474D2*
X30343D1*
X31300D2*
X34661D1*
X27909Y12444D2*
X30343D1*
X31300D2*
X34632D1*
X27939Y12414D2*
X30343D1*
X31300D2*
X34602D1*
X27969Y12384D2*
X30343D1*
X31300D2*
X34571D1*
X27999Y12354D2*
X30343D1*
X31300D2*
X34542D1*
X28029Y12324D2*
X30343D1*
X31300D2*
X34512D1*
X28059Y12294D2*
X30343D1*
X31300D2*
X34482D1*
X28088Y12265D2*
X30343D1*
X31300D2*
X34452D1*
X28119Y12235D2*
X30343D1*
X31300D2*
X34422D1*
X28149Y12205D2*
X30343D1*
X31300D2*
X34392D1*
X28178Y12175D2*
X30343D1*
X31300D2*
X34363D1*
X28208Y12145D2*
X30343D1*
X31300D2*
X34332D1*
X28239Y12115D2*
X30343D1*
X31300D2*
X34302D1*
X28268Y12085D2*
X30343D1*
X31300D2*
X34273D1*
X28298Y12055D2*
X30343D1*
X31300D2*
X34243D1*
X28329Y12025D2*
X30343D1*
X31300D2*
X34212D1*
X28358Y11995D2*
X30343D1*
X31300D2*
X34183D1*
X28388Y11965D2*
X30343D1*
X31300D2*
X34153D1*
X28418Y11935D2*
X30343D1*
X31300D2*
X34122D1*
X28448Y11906D2*
X30343D1*
X31300D2*
X34093D1*
X28478Y11876D2*
X30343D1*
X31300D2*
X34063D1*
X28508Y11846D2*
X30343D1*
X31300D2*
X34033D1*
X28537Y11816D2*
X30343D1*
X31300D2*
X34003D1*
X28567Y11786D2*
X30343D1*
X31300D2*
X33973D1*
X28598Y11756D2*
X30343D1*
X31300D2*
X33943D1*
X28627Y11726D2*
X30343D1*
X31300D2*
X33914D1*
X28657Y11696D2*
X30343D1*
X31300D2*
X33884D1*
X28688Y11666D2*
X30343D1*
X31300D2*
X33853D1*
X28717Y11636D2*
X30343D1*
X31300D2*
X33824D1*
X28747Y11606D2*
X30343D1*
X31300D2*
X33794D1*
X28777Y11576D2*
X30343D1*
X31300D2*
X33763D1*
X28808Y11546D2*
X30343D1*
X31300D2*
X33734D1*
X28842Y11517D2*
X30343D1*
X31300D2*
X33704D1*
X28878Y11487D2*
X30343D1*
X31300D2*
X33674D1*
X28910Y11457D2*
X30343D1*
X31300D2*
X33645D1*
X28937Y11427D2*
X30343D1*
X31300D2*
X33617D1*
X28961Y11397D2*
X30343D1*
X31300D2*
X33587D1*
X28989Y11367D2*
X30343D1*
X31300D2*
X33556D1*
X29018Y11337D2*
X30343D1*
X31300D2*
X33525D1*
X29046Y11307D2*
X30343D1*
X31300D2*
X33495D1*
X29076Y11277D2*
X30343D1*
X31300D2*
X33465D1*
X29107Y11247D2*
X30343D1*
X31300D2*
X33434D1*
X29136Y11217D2*
X30343D1*
X31300D2*
X33405D1*
X29166Y11187D2*
X30343D1*
X31300D2*
X33375D1*
X29196Y11157D2*
X30343D1*
X31300D2*
X33345D1*
X29225Y11128D2*
X30343D1*
X31300D2*
X33315D1*
X29256Y11098D2*
X30343D1*
X31300D2*
X33285D1*
X29286Y11068D2*
X30343D1*
X31300D2*
X33255D1*
X29315Y11038D2*
X30343D1*
X31300D2*
X33226D1*
X29345Y11008D2*
X30343D1*
X31300D2*
X33195D1*
X29376Y10978D2*
X30343D1*
X31300D2*
X33165D1*
X29405Y10948D2*
X30343D1*
X31300D2*
X33136D1*
X29435Y10918D2*
X30343D1*
X31300D2*
X33106D1*
X29466Y10888D2*
X30343D1*
X31300D2*
X33075D1*
X29495Y10858D2*
X30343D1*
X31300D2*
X33046D1*
X29525Y10828D2*
X30343D1*
X31300D2*
X33016D1*
X29555Y10798D2*
X30343D1*
X31300D2*
X32985D1*
X29585Y10769D2*
X30343D1*
X31300D2*
X32956D1*
X29615Y10739D2*
X30343D1*
X31300D2*
X32926D1*
X29645Y10709D2*
X30343D1*
X31300D2*
X32896D1*
X29674Y10679D2*
X30343D1*
X31300D2*
X32866D1*
X29704Y10649D2*
X30343D1*
X31300D2*
X32836D1*
X29735Y10619D2*
X30343D1*
X31300D2*
X32806D1*
X29764Y10589D2*
X30343D1*
X31300D2*
X32777D1*
X29794Y10559D2*
X30343D1*
X31300D2*
X32747D1*
X29825Y10529D2*
X30343D1*
X31300D2*
X32716D1*
X29854Y10499D2*
X30343D1*
X31300D2*
X32687D1*
X29884Y10469D2*
X30343D1*
X31300D2*
X32657D1*
X29914Y10439D2*
X30343D1*
X31300D2*
X32626D1*
X29944Y10409D2*
X30343D1*
X31300D2*
X32597D1*
X29974Y10380D2*
X30343D1*
X31300D2*
X32567D1*
X30004Y10350D2*
X30343D1*
X31300D2*
X32537D1*
X30032Y10320D2*
X30343D1*
X31300D2*
X32508D1*
X30061Y10290D2*
X30343D1*
X31300D2*
X32480D1*
X30090Y10260D2*
X30343D1*
X31300D2*
X32450D1*
X30122Y10230D2*
X30343D1*
X31300D2*
X32419D1*
X30153Y10200D2*
X30343D1*
X31300D2*
X32388D1*
X30183Y10170D2*
X30343D1*
X31300D2*
X32358D1*
X30213Y10140D2*
X30343D1*
X31300D2*
X32328D1*
X30243Y10110D2*
X30343D1*
X31300D2*
X32297D1*
X30273Y10080D2*
X30343D1*
X31300D2*
X32268D1*
X30306Y10050D2*
X30343D1*
X31300D2*
X32238D1*
X30343Y10020D2*
D3*
X31300D2*
X32208D1*
X31300Y9991D2*
X32178D1*
X31300Y9961D2*
X32148D1*
X31300Y9931D2*
X32118D1*
X31300Y9901D2*
X32089D1*
X31300Y9871D2*
X32058D1*
X31300Y9841D2*
X32028D1*
X31300Y9811D2*
X31999D1*
X31300Y9781D2*
X31969D1*
X31300Y9751D2*
X31938D1*
X31300Y9721D2*
X31909D1*
X31300Y9691D2*
X31879D1*
X31300Y9661D2*
X31848D1*
X31300Y9631D2*
X31819D1*
X31300Y9602D2*
X31789D1*
X31300Y9572D2*
X31759D1*
X31300Y9542D2*
X31729D1*
X31300Y9512D2*
X31699D1*
X31300Y9482D2*
X31669D1*
X31300Y9452D2*
X31640D1*
X31300Y9422D2*
X31610D1*
X31300Y9392D2*
X31579D1*
X31300Y9362D2*
X31550D1*
X31300Y9332D2*
X31520D1*
X31300Y9302D2*
X31489D1*
X31300Y9272D2*
X31460D1*
X31300Y9243D2*
X31430D1*
X31300Y9213D2*
X31400D1*
X31300Y9183D2*
X31370D1*
X31300Y9153D2*
X31337D1*
X31300Y9123D2*
D3*
X31240Y20792D2*
X31206Y20762D1*
X31174Y20732D1*
X31141Y20702D1*
X31111Y20672D1*
X31081Y20643D1*
X31051Y20613D1*
X31021Y20583D1*
X30992Y20553D1*
X30961Y20523D1*
X30931Y20493D1*
X30902Y20463D1*
X30871Y20433D1*
X30841Y20403D1*
X30812Y20373D1*
X30781Y20343D1*
X30752Y20313D1*
X30722Y20283D1*
X30692Y20254D1*
X30662Y20224D1*
X30632Y20194D1*
X30602Y20164D1*
X30572Y20134D1*
X30543Y20104D1*
X30512Y20074D1*
X30482Y20044D1*
X30453Y20014D1*
X30422Y19984D1*
X30393Y19954D1*
X30363Y19924D1*
X30333Y19894D1*
X30303Y19865D1*
X30273Y19835D1*
X30243Y19805D1*
X30215Y19775D1*
X30191Y19745D1*
X30166Y19715D1*
X30136Y19685D1*
X30101Y19655D1*
X30067Y19625D1*
X30036Y19595D1*
X30004Y19565D1*
X29974Y19535D1*
X29944Y19506D1*
X29914Y19476D1*
X29884Y19446D1*
X29855Y19416D1*
X29824Y19386D1*
X29794Y19356D1*
X29765Y19326D1*
X29734Y19296D1*
X29704Y19266D1*
X29675Y19236D1*
X29644Y19206D1*
X29615Y19176D1*
X29585Y19146D1*
X29555Y19117D1*
X29525Y19087D1*
X29495Y19057D1*
X29465Y19027D1*
X29435Y18997D1*
X29406Y18967D1*
X29375Y18937D1*
X29345Y18907D1*
X29316Y18877D1*
X29285Y18847D1*
X29256Y18817D1*
X29226Y18787D1*
X29196Y18757D1*
X29166Y18728D1*
X29136Y18698D1*
X29106Y18668D1*
X29076Y18638D1*
X29047Y18608D1*
X29016Y18578D1*
X28988Y18548D1*
X28964Y18518D1*
X28940Y18488D1*
X28909Y18458D1*
X28874Y18428D1*
X28841Y18398D1*
X28809Y18369D1*
X28777Y18339D1*
X28747Y18309D1*
X28718Y18279D1*
X28687Y18249D1*
X28657Y18219D1*
X28628Y18189D1*
X28597Y18159D1*
X28567Y18129D1*
X28538Y18099D1*
X28507Y18069D1*
X28478Y18039D1*
X28448Y18009D1*
X28418Y17980D1*
X28388Y17950D1*
X28358Y17920D1*
X28328Y17890D1*
X28298Y17860D1*
X28269Y17830D1*
X28238Y17800D1*
X28208Y17770D1*
X28179Y17740D1*
X28148Y17710D1*
X28119Y17680D1*
X28089Y17650D1*
X28059Y17620D1*
X28029Y17591D1*
X27999Y17561D1*
X27969Y17531D1*
X27939Y17501D1*
X27910Y17471D1*
X27879Y17441D1*
X27851Y17411D1*
X27827Y17381D1*
X27803Y17351D1*
X27772Y17321D1*
X27737Y17291D1*
X27704Y17261D1*
X27672Y17231D1*
X27640Y17202D1*
X27610Y17172D1*
X27581Y17142D1*
X27550Y17112D1*
X27520Y17082D1*
X27491Y17052D1*
X27460Y17022D1*
X27430Y16992D1*
X27401Y16962D1*
X27370Y16932D1*
X27341Y16902D1*
X27311Y16872D1*
X27281Y16843D1*
X27251Y16813D1*
X27221Y16783D1*
X27191Y16753D1*
X27161Y16723D1*
X27132Y16693D1*
X27101Y16663D1*
X27071Y16633D1*
X27042Y16603D1*
X27011Y16573D1*
X26982Y16543D1*
X26952Y16513D1*
X26922Y16483D1*
X26892Y16454D1*
X26862Y16424D1*
X26832Y16394D1*
X26802Y16364D1*
X26773Y16334D1*
X26742Y16304D1*
X26712Y16274D1*
X26683Y16244D1*
X26652Y16214D1*
X26625Y16184D1*
X26601Y16154D1*
X26576Y16124D1*
X26545Y16094D1*
X26510Y16065D1*
X26477Y16035D1*
X26445Y16005D1*
X26414Y15975D1*
X26385Y15945D1*
X26359Y15915D1*
X26333Y15885D1*
X31270Y20792D2*
Y20762D1*
Y20732D1*
Y20702D1*
Y20672D1*
Y20643D1*
Y20613D1*
Y20583D1*
Y20553D1*
Y20523D1*
Y20493D1*
Y20463D1*
Y20433D1*
Y20403D1*
Y20373D1*
Y20343D1*
Y20313D1*
Y20283D1*
Y20254D1*
Y20224D1*
Y20194D1*
Y20164D1*
Y20134D1*
Y20104D1*
Y20074D1*
Y20044D1*
Y20014D1*
Y19984D1*
Y19954D1*
Y19924D1*
Y19894D1*
Y19865D1*
Y19835D1*
Y19805D1*
Y19775D1*
Y19745D1*
Y19715D1*
Y19685D1*
Y19655D1*
Y19625D1*
Y19595D1*
Y19565D1*
Y19535D1*
Y19506D1*
Y19476D1*
Y19446D1*
Y19416D1*
Y19386D1*
Y19356D1*
Y19326D1*
Y19296D1*
Y19266D1*
Y19236D1*
Y19206D1*
Y19176D1*
Y19146D1*
Y19117D1*
Y19087D1*
Y19057D1*
Y19027D1*
Y18997D1*
Y18967D1*
Y18937D1*
Y18907D1*
Y18877D1*
Y18847D1*
Y18817D1*
Y18787D1*
Y18757D1*
Y18728D1*
Y18698D1*
Y18668D1*
Y18638D1*
Y18608D1*
Y18578D1*
Y18548D1*
Y18518D1*
Y18488D1*
Y18458D1*
Y18428D1*
Y18398D1*
Y18369D1*
Y18339D1*
Y18309D1*
Y18279D1*
Y18249D1*
Y18219D1*
Y18189D1*
Y18159D1*
Y18129D1*
Y18099D1*
Y18069D1*
Y18039D1*
Y18009D1*
Y17980D1*
Y17950D1*
Y17920D1*
Y17890D1*
Y17860D1*
Y17830D1*
Y17800D1*
Y17770D1*
Y17740D1*
Y17710D1*
Y17680D1*
Y17650D1*
Y17620D1*
Y17591D1*
Y17561D1*
Y17531D1*
Y17501D1*
Y17471D1*
Y17441D1*
Y17411D1*
Y17381D1*
Y17351D1*
Y17321D1*
Y17291D1*
Y17261D1*
Y17231D1*
Y17202D1*
Y17172D1*
Y17142D1*
Y17112D1*
Y17082D1*
Y17052D1*
Y17022D1*
Y16992D1*
Y16962D1*
Y16932D1*
Y16902D1*
Y16872D1*
X31268Y16843D1*
X31262Y16813D1*
X31237Y16783D1*
X31205Y16753D1*
X31173Y16723D1*
X31142Y16693D1*
X31111Y16663D1*
X31081Y16633D1*
X31051Y16603D1*
X31021Y16573D1*
X30991Y16543D1*
X30962Y16513D1*
X30931Y16483D1*
X30901Y16454D1*
X30872Y16424D1*
X30841Y16394D1*
X30811Y16364D1*
X30782Y16334D1*
X30751Y16304D1*
X30722Y16274D1*
X30692Y16244D1*
X30662Y16214D1*
X30634Y16184D1*
X30610Y16154D1*
X30586Y16124D1*
X30560Y16094D1*
X30531Y16065D1*
X30502Y16035D1*
X30472Y16005D1*
X30442Y15975D1*
X30412Y15945D1*
X30379Y15915D1*
X30343Y15885D1*
X32198Y19894D2*
Y19865D1*
Y19835D1*
Y19805D1*
Y19775D1*
Y19745D1*
Y19715D1*
Y19685D1*
Y19655D1*
Y19625D1*
Y19595D1*
Y19565D1*
Y19535D1*
Y19506D1*
Y19476D1*
Y19446D1*
Y19416D1*
Y19386D1*
Y19356D1*
Y19326D1*
Y19296D1*
Y19266D1*
Y19236D1*
Y19206D1*
Y19176D1*
Y19146D1*
Y19117D1*
Y19087D1*
Y19057D1*
Y19027D1*
Y18997D1*
Y18967D1*
Y18937D1*
Y18907D1*
Y18877D1*
Y18847D1*
Y18817D1*
Y18787D1*
Y18757D1*
Y18728D1*
Y18698D1*
Y18668D1*
Y18638D1*
Y18608D1*
Y18578D1*
Y18548D1*
Y18518D1*
Y18488D1*
Y18458D1*
Y18428D1*
Y18398D1*
Y18369D1*
Y18339D1*
Y18309D1*
Y18279D1*
Y18249D1*
Y18219D1*
Y18189D1*
Y18159D1*
Y18129D1*
Y18099D1*
Y18069D1*
Y18039D1*
Y18009D1*
Y17980D1*
Y17950D1*
Y17920D1*
Y17890D1*
Y17860D1*
Y17830D1*
Y17800D1*
Y17770D1*
Y17740D1*
Y17710D1*
Y17680D1*
Y17650D1*
Y17620D1*
Y17591D1*
Y17561D1*
Y17531D1*
Y17501D1*
Y17471D1*
Y17441D1*
Y17411D1*
Y17381D1*
Y17351D1*
Y17321D1*
Y17291D1*
Y17261D1*
Y17231D1*
Y17202D1*
Y17172D1*
Y17142D1*
Y17112D1*
Y17082D1*
Y17052D1*
Y17022D1*
Y16992D1*
Y16962D1*
Y16932D1*
Y16902D1*
Y16872D1*
Y16843D1*
Y16813D1*
Y16783D1*
Y16753D1*
Y16723D1*
Y16693D1*
Y16663D1*
Y16633D1*
Y16603D1*
Y16573D1*
Y16543D1*
Y16513D1*
Y16483D1*
Y16454D1*
Y16424D1*
Y16394D1*
Y16364D1*
Y16334D1*
Y16304D1*
Y16274D1*
Y16244D1*
Y16214D1*
Y16184D1*
Y16154D1*
Y16124D1*
Y16094D1*
Y16065D1*
Y16035D1*
Y16005D1*
Y15975D1*
X32199Y15945D1*
X32203Y15915D1*
X32213Y15885D1*
X32229Y15855D1*
X32252Y15825D1*
X32280Y15795D1*
X32308Y15765D1*
X32338Y15735D1*
X32368Y15706D1*
X32398Y15676D1*
X32432Y15646D1*
X32469Y15616D1*
X32503Y15586D1*
X32535Y15556D1*
X32567Y15526D1*
X32597Y15496D1*
X32626Y15466D1*
X32657Y15436D1*
X32687Y15406D1*
X32716Y15376D1*
X32747Y15346D1*
X32777Y15317D1*
X32806Y15287D1*
X32837Y15257D1*
X32866Y15227D1*
X32896Y15197D1*
X32926Y15167D1*
X32956Y15137D1*
X32985Y15107D1*
X33016Y15077D1*
X33043Y15047D1*
X33065Y15017D1*
X33082Y14987D1*
X33096Y14957D1*
X32258Y19865D2*
X32277Y19835D1*
X32302Y19805D1*
X32327Y19775D1*
X32350Y19745D1*
X32375Y19715D1*
X32405Y19685D1*
X32440Y19655D1*
X32473Y19625D1*
X32505Y19595D1*
X32537Y19565D1*
X32567Y19535D1*
X32596Y19506D1*
X32627Y19476D1*
X32657Y19446D1*
X32686Y19416D1*
X32717Y19386D1*
X32747Y19356D1*
X32776Y19326D1*
X32807Y19296D1*
X32836Y19266D1*
X32866Y19236D1*
X32896Y19206D1*
X32926Y19176D1*
X32956Y19146D1*
X32986Y19117D1*
X33016Y19087D1*
X33045Y19057D1*
X33076Y19027D1*
X33106Y18997D1*
X33135Y18967D1*
X33166Y18937D1*
X33195Y18907D1*
X33225Y18877D1*
X33255Y18847D1*
X33285Y18817D1*
X33315Y18787D1*
X33345Y18757D1*
X33375Y18728D1*
X33404Y18698D1*
X33435Y18668D1*
X33465Y18638D1*
X33494Y18608D1*
X33523Y18578D1*
X33547Y18548D1*
X33563Y18518D1*
X33574Y18488D1*
X33634D1*
X33654Y18458D1*
X33679Y18428D1*
X33706Y18398D1*
X33734Y18369D1*
X33764Y18339D1*
X33794Y18309D1*
X33823Y18279D1*
X33854Y18249D1*
X33884Y18219D1*
X33913Y18189D1*
X33944Y18159D1*
X33973Y18129D1*
X34003Y18099D1*
X34033Y18069D1*
X34063Y18039D1*
X34093Y18009D1*
X34123Y17980D1*
X34153Y17950D1*
X34182Y17920D1*
X34213Y17890D1*
X34243Y17860D1*
X34272Y17830D1*
X34303Y17800D1*
X34332Y17770D1*
X34362Y17740D1*
X34392Y17710D1*
X34422Y17680D1*
X34452Y17650D1*
X34482Y17620D1*
X34512Y17591D1*
X34541Y17561D1*
X34572Y17531D1*
X34602Y17501D1*
X34631Y17471D1*
X34662Y17441D1*
X34689Y17411D1*
X34713Y17381D1*
X34738Y17351D1*
X34769Y17321D1*
X34804Y17291D1*
X34837Y17261D1*
X34869Y17231D1*
X34900Y17202D1*
X34931Y17172D1*
X34960Y17142D1*
X34991Y17112D1*
X35021Y17082D1*
X35050Y17052D1*
X35081Y17022D1*
X35110Y16992D1*
X35140Y16962D1*
X35170Y16932D1*
X35200Y16902D1*
X35230Y16872D1*
X35260Y16843D1*
X35290Y16813D1*
X35319Y16783D1*
X35350Y16753D1*
X35380Y16723D1*
X35409Y16693D1*
X35440Y16663D1*
X35469Y16633D1*
X35499Y16603D1*
X35529Y16573D1*
X35559Y16543D1*
X35589Y16513D1*
X35619Y16483D1*
X35649Y16454D1*
X35678Y16424D1*
X35709Y16394D1*
X35739Y16364D1*
X35768Y16334D1*
X35799Y16304D1*
X35828Y16274D1*
X35858Y16244D1*
X35887Y16214D1*
X35911Y16184D1*
X35927Y16154D1*
X35938Y16124D1*
X35998D1*
X36018Y16094D1*
X36043Y16065D1*
X36070Y16035D1*
X36098Y16005D1*
X36128Y15975D1*
X36158Y15945D1*
X36187Y15915D1*
X36218Y15885D1*
X36247Y15855D1*
X36277Y15825D1*
X36307Y15795D1*
X36337Y15765D1*
X36367Y15735D1*
X36397Y15706D1*
X36427Y15676D1*
X36456Y15646D1*
X36487Y15616D1*
X36517Y15586D1*
X36546Y15556D1*
X36577Y15526D1*
X36606Y15496D1*
X36636Y15466D1*
X36666Y15436D1*
X36696Y15406D1*
X36726Y15376D1*
X36756Y15346D1*
X36786Y15317D1*
X36815Y15287D1*
X36846Y15257D1*
X36876Y15227D1*
X36905Y15197D1*
X36936Y15167D1*
X36965Y15137D1*
X36995Y15107D1*
X37025Y15077D1*
X37053Y15047D1*
X37075Y15017D1*
X37092Y14987D1*
X37105Y14957D1*
X25436Y14928D2*
X25460Y14898D1*
X25487Y14868D1*
X25517Y14838D1*
X25545Y14808D1*
X25575Y14778D1*
X25606Y14748D1*
X25635Y14718D1*
X25665Y14688D1*
X25695Y14658D1*
X25725Y14628D1*
X25755Y14598D1*
X25785Y14569D1*
X25814Y14539D1*
X25845Y14509D1*
X25875Y14479D1*
X25904Y14449D1*
X25934Y14419D1*
X25965Y14389D1*
X25994Y14359D1*
X26024Y14329D1*
X26054Y14299D1*
X26084Y14269D1*
X26114Y14239D1*
X26144Y14209D1*
X26173Y14180D1*
X26204Y14150D1*
X26234Y14120D1*
X26263Y14090D1*
X26293Y14060D1*
X26324Y14030D1*
X26353Y14000D1*
X26383Y13970D1*
X26414Y13940D1*
X26444Y13910D1*
X26478Y13880D1*
X26514Y13850D1*
X26546Y13820D1*
X26573Y13791D1*
X26598Y13761D1*
X26625Y13731D1*
X26654Y13701D1*
X26683Y13671D1*
X26712Y13641D1*
X26743Y13611D1*
X26772Y13581D1*
X26802Y13551D1*
X26832Y13521D1*
X26862Y13491D1*
X26892Y13461D1*
X26922Y13431D1*
X26951Y13402D1*
X26982Y13372D1*
X27012Y13342D1*
X27041Y13312D1*
X27071Y13282D1*
X27102Y13252D1*
X27131Y13222D1*
X27161Y13192D1*
X27192Y13162D1*
X27221Y13132D1*
X27251Y13102D1*
X27281Y13072D1*
X27311Y13043D1*
X27341Y13013D1*
X27371Y12983D1*
X27400Y12953D1*
X27430Y12923D1*
X27461Y12893D1*
X27490Y12863D1*
X27520Y12833D1*
X27551Y12803D1*
X27580Y12773D1*
X27610Y12743D1*
X27640Y12713D1*
X27669Y12683D1*
X27697Y12654D1*
X27727Y12624D1*
X27758Y12594D1*
X27789Y12564D1*
X27819Y12534D1*
X27849Y12504D1*
X27880Y12474D1*
X27909Y12444D1*
X27939Y12414D1*
X27969Y12384D1*
X27999Y12354D1*
X28029Y12324D1*
X28059Y12294D1*
X28088Y12265D1*
X28119Y12235D1*
X28149Y12205D1*
X28178Y12175D1*
X28208Y12145D1*
X28239Y12115D1*
X28268Y12085D1*
X28298Y12055D1*
X28329Y12025D1*
X28358Y11995D1*
X28388Y11965D1*
X28418Y11935D1*
X28448Y11906D1*
X28478Y11876D1*
X28508Y11846D1*
X28537Y11816D1*
X28567Y11786D1*
X28598Y11756D1*
X28627Y11726D1*
X28657Y11696D1*
X28688Y11666D1*
X28717Y11636D1*
X28747Y11606D1*
X28777Y11576D1*
X28808Y11546D1*
X28842Y11517D1*
X28878Y11487D1*
X28910Y11457D1*
X28937Y11427D1*
X28961Y11397D1*
X28989Y11367D1*
X29018Y11337D1*
X29046Y11307D1*
X29076Y11277D1*
X29107Y11247D1*
X29136Y11217D1*
X29166Y11187D1*
X29196Y11157D1*
X29225Y11128D1*
X29256Y11098D1*
X29286Y11068D1*
X29315Y11038D1*
X29345Y11008D1*
X29376Y10978D1*
X29405Y10948D1*
X29435Y10918D1*
X29466Y10888D1*
X29495Y10858D1*
X29525Y10828D1*
X29555Y10798D1*
X29585Y10769D1*
X29615Y10739D1*
X29645Y10709D1*
X29674Y10679D1*
X29704Y10649D1*
X29735Y10619D1*
X29764Y10589D1*
X29794Y10559D1*
X29825Y10529D1*
X29854Y10499D1*
X29884Y10469D1*
X29914Y10439D1*
X29944Y10409D1*
X29974Y10380D1*
X30004Y10350D1*
X30032Y10320D1*
X30061Y10290D1*
X30090Y10260D1*
X30122Y10230D1*
X30153Y10200D1*
X30183Y10170D1*
X30213Y10140D1*
X30243Y10110D1*
X30273Y10080D1*
X30306Y10050D1*
X30343Y10020D1*
X29445Y14928D2*
X29469Y14898D1*
X29497Y14868D1*
X29526Y14838D1*
X29555Y14808D1*
X29585Y14778D1*
X29615Y14748D1*
X29644Y14718D1*
X29674Y14688D1*
X29705Y14658D1*
X29734Y14628D1*
X29764Y14598D1*
X29795Y14569D1*
X29824Y14539D1*
X29854Y14509D1*
X29884Y14479D1*
X29914Y14449D1*
X29944Y14419D1*
X29974Y14389D1*
X30005Y14359D1*
X30038Y14329D1*
X30075Y14299D1*
X30109Y14269D1*
X30141Y14239D1*
X30173Y14209D1*
X30203Y14180D1*
X30233Y14150D1*
X30263Y14120D1*
X30291Y14090D1*
X30312Y14060D1*
X30327Y14030D1*
X30336Y14000D1*
X30340Y13970D1*
X30342Y13940D1*
Y13910D1*
X30343Y13880D1*
Y13850D1*
Y13820D1*
Y13791D1*
Y13761D1*
Y13731D1*
Y13701D1*
Y13671D1*
Y13641D1*
Y13611D1*
Y13581D1*
Y13551D1*
Y13521D1*
Y13491D1*
Y13461D1*
Y13431D1*
Y13402D1*
Y13372D1*
Y13342D1*
Y13312D1*
Y13282D1*
Y13252D1*
Y13222D1*
Y13192D1*
Y13162D1*
Y13132D1*
Y13102D1*
Y13072D1*
Y13043D1*
Y13013D1*
Y12983D1*
Y12953D1*
Y12923D1*
Y12893D1*
Y12863D1*
Y12833D1*
Y12803D1*
Y12773D1*
Y12743D1*
Y12713D1*
Y12683D1*
Y12654D1*
Y12624D1*
Y12594D1*
Y12564D1*
Y12534D1*
Y12504D1*
Y12474D1*
Y12444D1*
Y12414D1*
Y12384D1*
Y12354D1*
Y12324D1*
Y12294D1*
Y12265D1*
Y12235D1*
Y12205D1*
Y12175D1*
Y12145D1*
Y12115D1*
Y12085D1*
Y12055D1*
Y12025D1*
Y11995D1*
Y11965D1*
Y11935D1*
Y11906D1*
Y11876D1*
Y11846D1*
Y11816D1*
Y11786D1*
Y11756D1*
Y11726D1*
Y11696D1*
Y11666D1*
Y11636D1*
Y11606D1*
Y11576D1*
Y11546D1*
Y11517D1*
Y11487D1*
Y11457D1*
Y11427D1*
Y11397D1*
Y11367D1*
Y11337D1*
Y11307D1*
Y11277D1*
Y11247D1*
Y11217D1*
Y11187D1*
Y11157D1*
Y11128D1*
Y11098D1*
Y11068D1*
Y11038D1*
Y11008D1*
Y10978D1*
Y10948D1*
Y10918D1*
Y10888D1*
Y10858D1*
Y10828D1*
Y10798D1*
Y10769D1*
Y10739D1*
Y10709D1*
Y10679D1*
Y10649D1*
Y10619D1*
Y10589D1*
Y10559D1*
Y10529D1*
Y10499D1*
Y10469D1*
Y10439D1*
Y10409D1*
Y10380D1*
Y10350D1*
Y10320D1*
Y10290D1*
Y10260D1*
Y10230D1*
Y10200D1*
Y10170D1*
Y10140D1*
Y10110D1*
Y10080D1*
Y10050D1*
Y10020D1*
X32198Y14030D2*
X32163Y14000D1*
X32131Y13970D1*
X32099Y13940D1*
X32069Y13910D1*
X32039Y13880D1*
X32008Y13850D1*
X31981Y13820D1*
X31957Y13791D1*
X31933Y13761D1*
X31906Y13731D1*
X31877Y13701D1*
X31849Y13671D1*
X31819Y13641D1*
X31789Y13611D1*
X31759Y13581D1*
X31729Y13551D1*
X31699Y13521D1*
X31670Y13491D1*
X31640Y13461D1*
X31609Y13431D1*
X31580Y13402D1*
X31550Y13372D1*
X31519Y13342D1*
X31490Y13312D1*
X31460Y13282D1*
X31430Y13252D1*
X31400Y13222D1*
X31370Y13192D1*
X31342Y13162D1*
X31318Y13132D1*
X31309Y13102D1*
X31304Y13072D1*
X31302Y13043D1*
X31301Y13013D1*
X31300Y12983D1*
Y12953D1*
Y12923D1*
Y12893D1*
Y12863D1*
Y12833D1*
Y12803D1*
Y12773D1*
Y12743D1*
Y12713D1*
Y12683D1*
Y12654D1*
Y12624D1*
Y12594D1*
Y12564D1*
Y12534D1*
Y12504D1*
Y12474D1*
Y12444D1*
Y12414D1*
Y12384D1*
Y12354D1*
Y12324D1*
Y12294D1*
Y12265D1*
Y12235D1*
Y12205D1*
Y12175D1*
Y12145D1*
Y12115D1*
Y12085D1*
Y12055D1*
Y12025D1*
Y11995D1*
Y11965D1*
Y11935D1*
Y11906D1*
Y11876D1*
Y11846D1*
Y11816D1*
Y11786D1*
Y11756D1*
Y11726D1*
Y11696D1*
Y11666D1*
Y11636D1*
Y11606D1*
Y11576D1*
Y11546D1*
Y11517D1*
Y11487D1*
Y11457D1*
Y11427D1*
Y11397D1*
Y11367D1*
Y11337D1*
Y11307D1*
Y11277D1*
Y11247D1*
Y11217D1*
Y11187D1*
Y11157D1*
Y11128D1*
Y11098D1*
Y11068D1*
Y11038D1*
Y11008D1*
Y10978D1*
Y10948D1*
Y10918D1*
Y10888D1*
Y10858D1*
Y10828D1*
Y10798D1*
Y10769D1*
Y10739D1*
Y10709D1*
Y10679D1*
Y10649D1*
Y10619D1*
Y10589D1*
Y10559D1*
Y10529D1*
Y10499D1*
Y10469D1*
Y10439D1*
Y10409D1*
Y10380D1*
Y10350D1*
Y10320D1*
Y10290D1*
Y10260D1*
Y10230D1*
Y10200D1*
Y10170D1*
Y10140D1*
Y10110D1*
Y10080D1*
Y10050D1*
Y10020D1*
Y9991D1*
Y9961D1*
Y9931D1*
Y9901D1*
Y9871D1*
Y9841D1*
Y9811D1*
Y9781D1*
Y9751D1*
Y9721D1*
Y9691D1*
Y9661D1*
Y9631D1*
Y9602D1*
Y9572D1*
Y9542D1*
Y9512D1*
Y9482D1*
Y9452D1*
Y9422D1*
Y9392D1*
Y9362D1*
Y9332D1*
Y9302D1*
Y9272D1*
Y9243D1*
Y9213D1*
Y9183D1*
Y9153D1*
Y9123D1*
X36207Y14030D2*
X36183Y14000D1*
X36156Y13970D1*
X36126Y13940D1*
X36098Y13910D1*
X36068Y13880D1*
X36038Y13850D1*
X36009Y13820D1*
X35981Y13791D1*
X35951Y13761D1*
X35920Y13731D1*
X35889Y13701D1*
X35859Y13671D1*
X35829Y13641D1*
X35798Y13611D1*
X35769Y13581D1*
X35739Y13551D1*
X35708Y13521D1*
X35679Y13491D1*
X35649Y13461D1*
X35619Y13431D1*
X35589Y13402D1*
X35559Y13372D1*
X35529Y13342D1*
X35500Y13312D1*
X35469Y13282D1*
X35439Y13252D1*
X35410Y13222D1*
X35380Y13192D1*
X35349Y13162D1*
X35320Y13132D1*
X35290Y13102D1*
X35259Y13072D1*
X35230Y13043D1*
X35200Y13013D1*
X35170Y12983D1*
X35140Y12953D1*
X35110Y12923D1*
X35080Y12893D1*
X35051Y12863D1*
X35021Y12833D1*
X34990Y12803D1*
X34961Y12773D1*
X34931Y12743D1*
X34901Y12713D1*
X34872Y12683D1*
X34844Y12654D1*
X34814Y12624D1*
X34783Y12594D1*
X34752Y12564D1*
X34722Y12534D1*
X34692Y12504D1*
X34661Y12474D1*
X34632Y12444D1*
X34602Y12414D1*
X34571Y12384D1*
X34542Y12354D1*
X34512Y12324D1*
X34482Y12294D1*
X34452Y12265D1*
X34422Y12235D1*
X34392Y12205D1*
X34363Y12175D1*
X34332Y12145D1*
X34302Y12115D1*
X34273Y12085D1*
X34243Y12055D1*
X34212Y12025D1*
X34183Y11995D1*
X34153Y11965D1*
X34122Y11935D1*
X34093Y11906D1*
X34063Y11876D1*
X34033Y11846D1*
X34003Y11816D1*
X33973Y11786D1*
X33943Y11756D1*
X33914Y11726D1*
X33884Y11696D1*
X33853Y11666D1*
X33824Y11636D1*
X33794Y11606D1*
X33763Y11576D1*
X33734Y11546D1*
X33704Y11517D1*
X33674Y11487D1*
X33645Y11457D1*
X33617Y11427D1*
X33587Y11397D1*
X33556Y11367D1*
X33525Y11337D1*
X33495Y11307D1*
X33465Y11277D1*
X33434Y11247D1*
X33405Y11217D1*
X33375Y11187D1*
X33345Y11157D1*
X33315Y11128D1*
X33285Y11098D1*
X33255Y11068D1*
X33226Y11038D1*
X33195Y11008D1*
X33165Y10978D1*
X33136Y10948D1*
X33106Y10918D1*
X33075Y10888D1*
X33046Y10858D1*
X33016Y10828D1*
X32985Y10798D1*
X32956Y10769D1*
X32926Y10739D1*
X32896Y10709D1*
X32866Y10679D1*
X32836Y10649D1*
X32806Y10619D1*
X32777Y10589D1*
X32747Y10559D1*
X32716Y10529D1*
X32687Y10499D1*
X32657Y10469D1*
X32626Y10439D1*
X32597Y10409D1*
X32567Y10380D1*
X32537Y10350D1*
X32508Y10320D1*
X32480Y10290D1*
X32450Y10260D1*
X32419Y10230D1*
X32388Y10200D1*
X32358Y10170D1*
X32328Y10140D1*
X32297Y10110D1*
X32268Y10080D1*
X32238Y10050D1*
X32208Y10020D1*
X32178Y9991D1*
X32148Y9961D1*
X32118Y9931D1*
X32089Y9901D1*
X32058Y9871D1*
X32028Y9841D1*
X31999Y9811D1*
X31969Y9781D1*
X31938Y9751D1*
X31909Y9721D1*
X31879Y9691D1*
X31848Y9661D1*
X31819Y9631D1*
X31789Y9602D1*
X31759Y9572D1*
X31729Y9542D1*
X31699Y9512D1*
X31669Y9482D1*
X31640Y9452D1*
X31610Y9422D1*
X31579Y9392D1*
X31550Y9362D1*
X31520Y9332D1*
X31489Y9302D1*
X31460Y9272D1*
X31430Y9243D1*
X31400Y9213D1*
X31370Y9183D1*
X31337Y9153D1*
X31300Y9123D1*
X4694Y20095D2*
D47*
X4141D1*
X4471Y22421D2*
D107*
Y21732D1*
X4815Y22076D2*
X4126D1*
X41678Y12888D2*
D108*
X41161D1*
X41419Y12630D2*
Y13147D1*
X41420Y13915D2*
Y14247D1*
X37170Y8365D2*
D47*
Y7599D1*
X37217Y7457D1*
X37265Y7408D1*
X37361Y7361D1*
X37505D1*
X37600Y7408D1*
X37170Y8222D2*
X37265Y8317D1*
X37361Y8365D1*
X37505D1*
X37600Y8317D1*
X37696Y8222D1*
X37744Y8078D1*
Y7982D1*
X37696Y7839D1*
X37600Y7743D1*
X37505Y7696D1*
X37361D1*
X37265Y7743D1*
X37170Y7839D1*
X36861Y8413D2*
Y7408D1*
Y8269D2*
X36765Y8364D1*
X36670Y8413D1*
X36526D1*
X36430Y8364D1*
X36335Y8269D1*
X36286Y8126D1*
Y8029D1*
X36335Y7887D1*
X36430Y7791D1*
X36526Y7743D1*
X36670D1*
X36765Y7791D1*
X36861Y7887D1*
X35404Y8413D2*
Y7743D1*
Y8269D2*
X35499Y8365D1*
X35595Y8413D1*
X35738D1*
X35834Y8365D1*
X35929Y8269D1*
X35978Y8126D1*
Y8030D1*
X35929Y7887D1*
X35834Y7792D1*
X35738Y7743D1*
X35595D1*
X35499Y7792D1*
X35404Y7887D1*
X35095Y8245D2*
X34542D1*
X34234Y8413D2*
Y7743D1*
Y8126D2*
X34185Y8269D1*
X34090Y8365D1*
X33994Y8413D1*
X33850D1*
X33302D2*
X33398Y8365D1*
X33494Y8269D1*
X33541Y8126D1*
Y8030D1*
X33494Y7887D1*
X33398Y7792D1*
X33302Y7743D1*
X33159D1*
X33063Y7792D1*
X32968Y7887D1*
X32919Y8030D1*
Y8126D1*
X32968Y8269D1*
X33063Y8365D1*
X33159Y8413D1*
X33302D1*
X32610Y8748D2*
Y7743D1*
Y8269D2*
X32514Y8365D1*
X32419Y8413D1*
X32275D1*
X32180Y8365D1*
X32084Y8269D1*
X32036Y8126D1*
Y8030D1*
X32084Y7887D1*
X32180Y7792D1*
X32275Y7743D1*
X32419D1*
X32514Y7792D1*
X32610Y7887D1*
X31489Y8413D2*
X31584Y8365D1*
X31680Y8269D1*
X31728Y8126D1*
Y8030D1*
X31680Y7887D1*
X31584Y7792D1*
X31489Y7743D1*
X31345D1*
X31249Y7792D1*
X31154Y7887D1*
X31105Y8030D1*
Y8126D1*
X31154Y8269D1*
X31249Y8365D1*
X31345Y8413D1*
X31489D1*
X30653Y8748D2*
Y7934D1*
X30605Y7792D1*
X30509Y7743D1*
X30414D1*
X30797Y8413D2*
X30462D1*
X30105Y8748D2*
X30058Y8700D1*
X30009Y8748D1*
X30058Y8796D1*
X30105Y8748D1*
X30058Y8413D2*
Y7743D1*
X29126Y8269D2*
X29222Y8365D1*
X29318Y8413D1*
X29460D1*
X29557Y8365D1*
X29652Y8269D1*
X29700Y8126D1*
Y8030D1*
X29652Y7887D1*
X29557Y7792D1*
X29460Y7743D1*
X29318D1*
X29222Y7792D1*
X29126Y7887D1*
X28291Y8269D2*
X28338Y8365D1*
X28482Y8413D1*
X28625D1*
X28769Y8365D1*
X28817Y8269D1*
X28769Y8174D1*
X28673Y8126D1*
X28434Y8078D1*
X28338Y8030D1*
X28291Y7934D1*
Y7887D1*
X28338Y7792D1*
X28482Y7743D1*
X28625D1*
X28769Y7792D1*
X28817Y7887D1*
X27934Y7839D2*
X27982Y7791D1*
X27934Y7743D1*
X27886Y7791D1*
X27934Y7839D1*
X27002Y8269D2*
X27098Y8365D1*
X27194Y8413D1*
X27337D1*
X27433Y8365D1*
X27528Y8269D1*
X27577Y8126D1*
Y8030D1*
X27528Y7887D1*
X27433Y7792D1*
X27337Y7743D1*
X27194D1*
X27098Y7792D1*
X27002Y7887D1*
X26454Y8413D2*
X26550Y8365D1*
X26646Y8269D1*
X26693Y8126D1*
Y8030D1*
X26646Y7887D1*
X26550Y7792D1*
X26454Y7743D1*
X26311D1*
X26215Y7792D1*
X26120Y7887D1*
X26071Y8030D1*
Y8126D1*
X26120Y8269D1*
X26215Y8365D1*
X26311Y8413D1*
X26454D1*
X25762D2*
Y7743D1*
Y8222D2*
X25618Y8365D1*
X25522Y8413D1*
X25380D1*
X25283Y8365D1*
X25236Y8222D1*
Y7743D1*
Y8222D2*
X25092Y8365D1*
X24996Y8413D1*
X24853D1*
X24757Y8365D1*
X24709Y8222D1*
Y7743D1*
X18068Y12118D2*
D109*
X22891Y10277D1*
X18068Y8441D1*
X19676Y9131D2*
Y11428D1*
X22202Y16816D2*
X22663Y16359D1*
X22891Y15670D1*
Y14752D1*
X22663Y14062D1*
X22202Y13600D1*
X21745D1*
X21284Y13834D1*
X21055Y14062D1*
X20827Y14518D1*
X20366Y15898D1*
X20138Y16359D1*
X19904Y16588D1*
X19448Y16816D1*
X18758D1*
X18302Y16359D1*
X18068Y15670D1*
Y14752D1*
X18302Y14062D1*
X18758Y13600D1*
X22891Y18298D2*
X18068D1*
X22891Y21513D2*
X18068D1*
X20594Y18298D2*
Y21513D1*
X13885Y8904D2*
X14113D1*
X14574Y9132D1*
X14802Y9360D1*
X15031Y9822D1*
Y10739D1*
X14802Y11196D1*
X14574Y11424D1*
X14113Y11657D1*
X13656D1*
X13195Y11424D1*
X12510Y10968D1*
X10213Y8670D1*
Y11885D1*
X15031Y13829D2*
Y16350D1*
X13195Y14975D1*
Y15665D1*
X12967Y16121D1*
X12739Y16350D1*
X12049Y16583D1*
X11592D1*
X10903Y16350D1*
X10441Y15893D1*
X10213Y15203D1*
Y14514D1*
X10441Y13829D1*
X10675Y13601D1*
X11131Y13368D1*
X15031Y18527D2*
Y21047D1*
X13195Y19673D1*
Y20363D1*
X12967Y20819D1*
X12739Y21047D1*
X12049Y21281D1*
X11592D1*
X10903Y21047D1*
X10441Y20591D1*
X10213Y19901D1*
Y19211D1*
X10441Y18527D1*
X10675Y18299D1*
X11131Y18065D1*
M02*
