G04 DipTrace 2.4.0.2*
%INTopMask.gbr*%
%MOIN*%
%ADD23R,0.0748X0.0748*%
%ADD24C,0.0748*%
%ADD31C,0.0669*%
%ADD60C,0.0559*%
%ADD62R,0.1358X0.0925*%
%ADD64R,0.0453X0.0925*%
%ADD66R,0.0906X0.1339*%
%ADD68R,0.0315X0.0866*%
%ADD70C,0.2244*%
%ADD73R,0.0866X0.0315*%
%ADD75C,0.2244*%
%ADD77R,0.0551X0.0709*%
%ADD79R,0.2323X0.0709*%
%ADD81O,0.1063X0.0827*%
%ADD83R,0.1063X0.0827*%
%ADD85C,0.0709*%
%ADD87R,0.0709X0.0709*%
%ADD89C,0.1063*%
%ADD91R,0.1063X0.1063*%
%ADD94R,0.0709X0.0787*%
%ADD96R,0.0591X0.0669*%
%ADD98R,0.0472X0.0512*%
%ADD100R,0.0787X0.0709*%
%ADD102R,0.0512X0.0472*%
%ADD104C,0.0827*%
%ADD105R,0.0827X0.0827*%
%FSLAX44Y44*%
G04*
G70*
G90*
G75*
G01*
%LNTopMask*%
%LPD*%
D105*
X31873Y20544D3*
D104*
X35810D3*
G36*
X28136Y11758D2*
X27802Y12092D1*
X28164Y12454D1*
X28498Y12120D1*
X28136Y11758D1*
G37*
G36*
X27662Y11285D2*
X27328Y11619D1*
X27690Y11981D1*
X28024Y11647D1*
X27662Y11285D1*
G37*
G36*
X27624Y16038D2*
X27958Y16372D1*
X28320Y16011D1*
X27986Y15676D1*
X27624Y16038D1*
G37*
G36*
X28097Y15565D2*
X28431Y15899D1*
X28793Y15537D1*
X28459Y15203D1*
X28097Y15565D1*
G37*
G36*
X20856Y18437D2*
X21190Y18771D1*
X21552Y18409D1*
X21218Y18075D1*
X20856Y18437D1*
G37*
G36*
X20382Y18910D2*
X20717Y19244D1*
X21078Y18882D1*
X20744Y18548D1*
X20382Y18910D1*
G37*
G36*
X19179Y16089D2*
X18845Y16423D1*
X19207Y16785D1*
X19541Y16451D1*
X19179Y16089D1*
G37*
G36*
X19652Y16562D2*
X19318Y16896D1*
X19680Y17258D1*
X20014Y16924D1*
X19652Y16562D1*
G37*
G36*
X18856Y12249D2*
X19190Y12583D1*
X19552Y12221D1*
X19218Y11887D1*
X18856Y12249D1*
G37*
G36*
X18382Y12722D2*
X18717Y13056D1*
X19078Y12695D1*
X18744Y12361D1*
X18382Y12722D1*
G37*
G36*
X21502Y10742D2*
X21836Y11076D1*
X22198Y10714D1*
X21864Y10380D1*
X21502Y10742D1*
G37*
G36*
X21029Y11216D2*
X21363Y11550D1*
X21725Y11188D1*
X21391Y10854D1*
X21029Y11216D1*
G37*
G36*
X22418Y9624D2*
X22752Y9958D1*
X23114Y9596D1*
X22780Y9262D1*
X22418Y9624D1*
G37*
G36*
X21945Y10097D2*
X22279Y10431D1*
X22641Y10070D1*
X22307Y9736D1*
X21945Y10097D1*
G37*
G36*
X26190Y10325D2*
X25856Y10659D1*
X26218Y11021D1*
X26552Y10687D1*
X26190Y10325D1*
G37*
G36*
X26663Y10798D2*
X26329Y11132D1*
X26691Y11494D1*
X27025Y11160D1*
X26663Y10798D1*
G37*
D102*
X30020Y22146D3*
X29350D3*
X26391Y22860D3*
X27061D3*
D100*
X10138Y19685D3*
Y18583D3*
D98*
X13583Y18110D3*
Y17441D3*
D100*
X10138Y16831D3*
Y17933D3*
Y16043D3*
Y14941D3*
X14075Y14961D3*
Y16063D3*
D96*
X38346Y6988D3*
X37598D3*
X24329Y18923D3*
X23581D3*
G36*
X24554Y19108D2*
X24888Y19442D1*
X25250Y19081D1*
X24915Y18747D1*
X24554Y19108D1*
G37*
G36*
X25027Y18635D2*
X25361Y18969D1*
X25723Y18607D1*
X25389Y18273D1*
X25027Y18635D1*
G37*
G36*
X26418Y17062D2*
X26752Y17396D1*
X27114Y17034D1*
X26780Y16700D1*
X26418Y17062D1*
G37*
G36*
X26892Y16588D2*
X27226Y16922D1*
X27587Y16561D1*
X27253Y16226D1*
X26892Y16588D1*
G37*
D102*
X30204Y19048D3*
X30873D3*
D98*
X23917Y22146D3*
Y22815D3*
D94*
X23563Y24213D3*
X24665D3*
D98*
X18516Y22360D3*
Y23030D3*
D94*
X21692Y24423D3*
X20590D3*
X35374Y25354D3*
X36476D3*
D98*
X38091Y24705D3*
Y25374D3*
D102*
X39823Y23366D3*
X40492D3*
D100*
X33760Y25315D3*
Y24213D3*
D98*
X6988Y13839D3*
Y14508D3*
Y11476D3*
Y12146D3*
Y6791D3*
Y7461D3*
Y9154D3*
Y9823D3*
D23*
X17055Y24441D3*
D24*
Y23441D3*
X16055Y24441D3*
Y23441D3*
X15055Y24441D3*
Y23441D3*
X14055Y24441D3*
Y23441D3*
X13055Y24441D3*
Y23441D3*
X12055Y24441D3*
Y23441D3*
X11055Y24441D3*
Y23441D3*
X10055Y24441D3*
Y23441D3*
X9055Y24441D3*
Y23441D3*
X17055Y22441D3*
X16055D3*
X15055D3*
X14055D3*
X13055D3*
X12055D3*
X11055D3*
X10055D3*
X9055D3*
D23*
X8929Y5480D3*
D24*
Y6480D3*
X9929Y5480D3*
Y6480D3*
X10929Y5480D3*
Y6480D3*
X11929Y5480D3*
Y6480D3*
X12929Y5480D3*
Y6480D3*
X13929Y5480D3*
Y6480D3*
X14929Y5480D3*
Y6480D3*
X15929Y5480D3*
Y6480D3*
X16929Y5480D3*
Y6480D3*
X8929Y7480D3*
X9929D3*
X10929D3*
X11929D3*
X12929D3*
X13929D3*
X14929D3*
X15929D3*
X16929D3*
D23*
X40551Y19685D3*
D24*
X39551D3*
X40551Y20685D3*
X39551D3*
X40551Y21685D3*
X39551D3*
X38551Y19685D3*
Y20685D3*
Y21685D3*
D23*
X40551Y8268D3*
D24*
X39551D3*
X40551Y9268D3*
X39551D3*
X40551Y10268D3*
X39551D3*
X38551Y8268D3*
Y9268D3*
Y10268D3*
D91*
X5315Y22047D3*
D89*
Y20079D3*
D87*
X40551Y12992D3*
D85*
X39551D3*
X40551Y13992D3*
X39551D3*
X40551Y14992D3*
X39551D3*
X40551Y15992D3*
X39551D3*
X40551Y16992D3*
X39551D3*
D23*
X5079Y15110D3*
D24*
X6079D3*
X5079Y14110D3*
X6079D3*
X5079Y13110D3*
X6079D3*
X5079Y12110D3*
X6079D3*
X5079Y11110D3*
X6079D3*
X5079Y10110D3*
X6079D3*
X5079Y9110D3*
X6079D3*
X5079Y8110D3*
X6079D3*
X5079Y7110D3*
X6079D3*
D23*
X23122Y25394D3*
D24*
X24122D3*
D23*
X28543Y23622D3*
D24*
Y24622D3*
X29543Y23622D3*
Y24622D3*
X30543Y23622D3*
Y24622D3*
D83*
X5329Y18235D3*
D81*
Y17235D3*
Y16235D3*
D23*
X20957Y25394D3*
D24*
X21957D3*
D23*
X38870D3*
D24*
X39870D3*
D23*
X25280D3*
D24*
X26280D3*
X27280D3*
G36*
X27613Y16769D2*
X27919Y17076D1*
X28184Y16811D1*
X27878Y16505D1*
X27613Y16769D1*
G37*
G36*
X27224Y17159D2*
X27530Y17465D1*
X27794Y17201D1*
X27488Y16895D1*
X27224Y17159D1*
G37*
D79*
X8454Y19110D3*
Y17260D3*
D77*
X40354Y6988D3*
X39173D3*
D75*
X5315Y5315D3*
Y24606D3*
D73*
X36016Y17485D3*
Y16985D3*
Y16485D3*
Y15985D3*
Y15485D3*
Y14985D3*
Y14485D3*
Y13985D3*
X38142D3*
Y14485D3*
Y14985D3*
Y15485D3*
Y15985D3*
Y16485D3*
Y16985D3*
Y17485D3*
D102*
X29331Y22736D3*
X30000D3*
D98*
X14705Y18169D3*
Y18839D3*
X14272Y19587D3*
Y20256D3*
D102*
X10704Y14235D3*
X10034D3*
X10704Y13673D3*
X10034D3*
X10704Y12485D3*
X10034D3*
X10704Y13048D3*
X10034D3*
D98*
X23327Y22146D3*
Y22815D3*
X25295Y24350D3*
Y23681D3*
X19079Y22360D3*
Y23030D3*
D102*
X20619Y23735D3*
X21288D3*
X24329Y21298D3*
X24998D3*
D98*
X25141Y22235D3*
Y22905D3*
X22329Y18882D3*
Y18213D3*
X19391Y21673D3*
Y21003D3*
X23494Y20213D3*
Y20882D3*
X39862Y23917D3*
Y24587D3*
X22343Y24350D3*
Y23681D3*
X22897Y24350D3*
Y23681D3*
D31*
X40012Y5817D3*
X39012D3*
X38012D3*
X37012D3*
X36012D3*
X35012D3*
X34012D3*
X33012D3*
X32012D3*
X31012D3*
X30012D3*
X29012D3*
X28012D3*
X27012D3*
X26012D3*
X25012D3*
X24012D3*
X23012D3*
X22012D3*
X21012D3*
Y4817D3*
X22012D3*
X23012D3*
X24012D3*
X25012D3*
X26012D3*
X27012D3*
X28012D3*
X29012D3*
X30012D3*
X31012D3*
X32012D3*
X33012D3*
X34012D3*
X35012D3*
X36012D3*
X37012D3*
X38012D3*
X39012D3*
X40012D3*
D70*
X41930Y5317D3*
Y24608D3*
X19095Y5317D3*
Y24608D3*
G36*
X27648Y14415D2*
X27509Y14554D1*
X28010Y15055D1*
X28149Y14916D1*
X27648Y14415D1*
G37*
G36*
X27509Y14554D2*
X27369Y14693D1*
X27870Y15195D1*
X28010Y15055D1*
X27509Y14554D1*
G37*
G36*
X27369Y14693D2*
X27230Y14833D1*
X27731Y15334D1*
X27871Y15195D1*
X27369Y14693D1*
G37*
G36*
X27230Y14833D2*
X27091Y14972D1*
X27592Y15473D1*
X27731Y15334D1*
X27230Y14833D1*
G37*
G36*
X27091Y14972D2*
X26952Y15111D1*
X27453Y15612D1*
X27592Y15473D1*
X27091Y14972D1*
G37*
G36*
X26952Y15111D2*
X26813Y15250D1*
X27314Y15751D1*
X27453Y15612D1*
X26952Y15111D1*
G37*
G36*
X26813Y15250D2*
X26673Y15389D1*
X27175Y15891D1*
X27314Y15751D1*
X26813Y15250D1*
G37*
G36*
X26673Y15389D2*
X26534Y15529D1*
X27035Y16030D1*
X27175Y15891D1*
X26673Y15389D1*
G37*
G36*
X26534Y15529D2*
X26395Y15668D1*
X26896Y16169D1*
X27035Y16030D1*
X26534Y15529D1*
G37*
G36*
X26395Y15668D2*
X26256Y15807D1*
X26757Y16308D1*
X26896Y16169D1*
X26395Y15668D1*
G37*
G36*
X26256Y15807D2*
X26117Y15946D1*
X26618Y16447D1*
X26757Y16308D1*
X26256Y15807D1*
G37*
G36*
X26117Y15946D2*
X25977Y16085D1*
X26479Y16587D1*
X26618Y16447D1*
X26117Y15946D1*
G37*
G36*
X25977Y16085D2*
X25838Y16225D1*
X26339Y16726D1*
X26479Y16587D1*
X25977Y16085D1*
G37*
G36*
X25838Y16225D2*
X25699Y16364D1*
X26200Y16865D1*
X26339Y16726D1*
X25838Y16225D1*
G37*
G36*
X25699Y16364D2*
X25560Y16503D1*
X26061Y17004D1*
X26200Y16865D1*
X25699Y16364D1*
G37*
G36*
X25560Y16503D2*
X25421Y16642D1*
X25922Y17143D1*
X26061Y17004D1*
X25560Y16503D1*
G37*
G36*
X25421Y16642D2*
X25281Y16781D1*
X25783Y17283D1*
X25922Y17143D1*
X25421Y16642D1*
G37*
G36*
X25281Y16781D2*
X25142Y16921D1*
X25643Y17422D1*
X25783Y17283D1*
X25281Y16781D1*
G37*
G36*
X25142Y16921D2*
X25003Y17060D1*
X25504Y17561D1*
X25643Y17422D1*
X25142Y16921D1*
G37*
G36*
X25003Y17060D2*
X24864Y17199D1*
X25365Y17700D1*
X25504Y17561D1*
X25003Y17060D1*
G37*
G36*
X24864Y17199D2*
X24725Y17338D1*
X25226Y17839D1*
X25365Y17700D1*
X24864Y17199D1*
G37*
G36*
X24725Y17338D2*
X24586Y17477D1*
X25087Y17978D1*
X25226Y17839D1*
X24725Y17338D1*
G37*
G36*
X24586Y17477D2*
X24446Y17617D1*
X24947Y18118D1*
X25087Y17978D1*
X24586Y17477D1*
G37*
G36*
X24446Y17617D2*
X24307Y17756D1*
X24808Y18257D1*
X24947Y18118D1*
X24446Y17617D1*
G37*
G36*
X24307Y17756D2*
X24168Y17895D1*
X24669Y18396D1*
X24808Y18257D1*
X24307Y17756D1*
G37*
G36*
X23221Y18257D2*
X23361Y18396D1*
X23862Y17895D1*
X23723Y17756D1*
X23221Y18257D1*
G37*
G36*
X23082Y18118D2*
X23221Y18257D1*
X23723Y17756D1*
X23583Y17617D1*
X23082Y18118D1*
G37*
G36*
X22943Y17978D2*
X23082Y18118D1*
X23583Y17617D1*
X23444Y17477D1*
X22943Y17978D1*
G37*
G36*
X22804Y17839D2*
X22943Y17978D1*
X23444Y17477D1*
X23305Y17338D1*
X22804Y17839D1*
G37*
G36*
X22665Y17700D2*
X22804Y17839D1*
X23305Y17338D1*
X23166Y17199D1*
X22665Y17700D1*
G37*
G36*
X22525Y17561D2*
X22665Y17700D1*
X23166Y17199D1*
X23027Y17060D1*
X22525Y17561D1*
G37*
G36*
X22386Y17422D2*
X22525Y17561D1*
X23027Y17060D1*
X22887Y16921D1*
X22386Y17422D1*
G37*
G36*
X22247Y17283D2*
X22386Y17422D1*
X22887Y16921D1*
X22748Y16781D1*
X22247Y17283D1*
G37*
G36*
X22108Y17143D2*
X22247Y17283D1*
X22748Y16781D1*
X22609Y16642D1*
X22108Y17143D1*
G37*
G36*
X21969Y17004D2*
X22108Y17143D1*
X22609Y16642D1*
X22470Y16503D1*
X21969Y17004D1*
G37*
G36*
X21829Y16865D2*
X21969Y17004D1*
X22470Y16503D1*
X22331Y16364D1*
X21829Y16865D1*
G37*
G36*
X21690Y16726D2*
X21829Y16865D1*
X22331Y16364D1*
X22191Y16225D1*
X21690Y16726D1*
G37*
G36*
X21551Y16587D2*
X21690Y16726D1*
X22191Y16225D1*
X22052Y16085D1*
X21551Y16587D1*
G37*
G36*
X21412Y16447D2*
X21551Y16587D1*
X22052Y16085D1*
X21913Y15946D1*
X21412Y16447D1*
G37*
G36*
X21273Y16308D2*
X21412Y16447D1*
X21913Y15946D1*
X21774Y15807D1*
X21273Y16308D1*
G37*
G36*
X21133Y16169D2*
X21273Y16308D1*
X21774Y15807D1*
X21635Y15668D1*
X21133Y16169D1*
G37*
G36*
X20994Y16030D2*
X21133Y16169D1*
X21635Y15668D1*
X21495Y15529D1*
X20994Y16030D1*
G37*
G36*
X20855Y15891D2*
X20994Y16030D1*
X21495Y15529D1*
X21356Y15389D1*
X20855Y15891D1*
G37*
G36*
X20716Y15751D2*
X20855Y15891D1*
X21356Y15389D1*
X21217Y15250D1*
X20716Y15751D1*
G37*
G36*
X20577Y15612D2*
X20716Y15751D1*
X21217Y15250D1*
X21078Y15111D1*
X20577Y15612D1*
G37*
G36*
X20438Y15473D2*
X20577Y15612D1*
X21078Y15111D1*
X20939Y14972D1*
X20438Y15473D1*
G37*
G36*
X20298Y15334D2*
X20438Y15473D1*
X20939Y14972D1*
X20799Y14833D1*
X20298Y15334D1*
G37*
G36*
X20159Y15195D2*
X20298Y15334D1*
X20799Y14833D1*
X20660Y14693D1*
X20159Y15195D1*
G37*
G36*
X20020Y15055D2*
X20159Y15195D1*
X20660Y14693D1*
X20521Y14554D1*
X20020Y15055D1*
G37*
G36*
X19881Y14916D2*
X20020Y15055D1*
X20521Y14554D1*
X20382Y14415D1*
X19881Y14916D1*
G37*
G36*
X20020Y13469D2*
X19881Y13608D1*
X20382Y14109D1*
X20521Y13970D1*
X20020Y13469D1*
G37*
G36*
X20159Y13329D2*
X20020Y13469D1*
X20521Y13970D1*
X20660Y13830D1*
X20159Y13329D1*
G37*
G36*
X20298Y13190D2*
X20159Y13329D1*
X20660Y13830D1*
X20799Y13691D1*
X20298Y13190D1*
G37*
G36*
X20438Y13051D2*
X20298Y13190D1*
X20799Y13691D1*
X20939Y13552D1*
X20438Y13051D1*
G37*
G36*
X20577Y12912D2*
X20438Y13051D1*
X20939Y13552D1*
X21078Y13413D1*
X20577Y12912D1*
G37*
G36*
X20716Y12773D2*
X20577Y12912D1*
X21078Y13413D1*
X21217Y13274D1*
X20716Y12773D1*
G37*
G36*
X20855Y12633D2*
X20716Y12773D1*
X21217Y13274D1*
X21356Y13135D1*
X20855Y12633D1*
G37*
G36*
X20994Y12494D2*
X20855Y12633D1*
X21356Y13135D1*
X21495Y12995D1*
X20994Y12494D1*
G37*
G36*
X21133Y12355D2*
X20994Y12494D1*
X21495Y12995D1*
X21635Y12856D1*
X21133Y12355D1*
G37*
G36*
X21273Y12216D2*
X21133Y12355D1*
X21635Y12856D1*
X21774Y12717D1*
X21273Y12216D1*
G37*
G36*
X21412Y12077D2*
X21273Y12216D1*
X21774Y12717D1*
X21913Y12578D1*
X21412Y12077D1*
G37*
G36*
X21551Y11937D2*
X21412Y12077D1*
X21913Y12578D1*
X22052Y12439D1*
X21551Y11937D1*
G37*
G36*
X21690Y11798D2*
X21551Y11937D1*
X22052Y12439D1*
X22191Y12299D1*
X21690Y11798D1*
G37*
G36*
X21829Y11659D2*
X21690Y11798D1*
X22191Y12299D1*
X22331Y12160D1*
X21829Y11659D1*
G37*
G36*
X21969Y11520D2*
X21829Y11659D1*
X22331Y12160D1*
X22470Y12021D1*
X21969Y11520D1*
G37*
G36*
X22108Y11381D2*
X21969Y11520D1*
X22470Y12021D1*
X22609Y11882D1*
X22108Y11381D1*
G37*
G36*
X22247Y11241D2*
X22108Y11381D1*
X22609Y11882D1*
X22748Y11743D1*
X22247Y11241D1*
G37*
G36*
X22386Y11102D2*
X22247Y11241D1*
X22748Y11743D1*
X22887Y11603D1*
X22386Y11102D1*
G37*
G36*
X22525Y10963D2*
X22386Y11102D1*
X22887Y11603D1*
X23027Y11464D1*
X22525Y10963D1*
G37*
G36*
X22665Y10824D2*
X22525Y10963D1*
X23027Y11464D1*
X23166Y11325D1*
X22665Y10824D1*
G37*
G36*
X22804Y10685D2*
X22665Y10824D1*
X23166Y11325D1*
X23305Y11186D1*
X22804Y10685D1*
G37*
G36*
X22943Y10545D2*
X22804Y10685D1*
X23305Y11186D1*
X23444Y11047D1*
X22943Y10545D1*
G37*
G36*
X23082Y10406D2*
X22943Y10545D1*
X23444Y11047D1*
X23583Y10907D1*
X23082Y10406D1*
G37*
G36*
X23221Y10267D2*
X23082Y10406D1*
X23583Y10907D1*
X23723Y10768D1*
X23221Y10267D1*
G37*
G36*
X23361Y10128D2*
X23221Y10267D1*
X23723Y10768D1*
X23862Y10629D1*
X23361Y10128D1*
G37*
G36*
X24168Y10629D2*
X24307Y10768D1*
X24808Y10267D1*
X24669Y10128D1*
X24168Y10629D1*
G37*
G36*
X24307Y10768D2*
X24446Y10907D1*
X24947Y10406D1*
X24808Y10267D1*
X24307Y10768D1*
G37*
G36*
X24446Y10907D2*
X24586Y11047D1*
X25087Y10545D1*
X24947Y10406D1*
X24446Y10907D1*
G37*
G36*
X24586Y11047D2*
X24725Y11186D1*
X25226Y10685D1*
X25087Y10545D1*
X24586Y11047D1*
G37*
G36*
X24725Y11186D2*
X24864Y11325D1*
X25365Y10824D1*
X25226Y10685D1*
X24725Y11186D1*
G37*
G36*
X24864Y11325D2*
X25003Y11464D1*
X25504Y10963D1*
X25365Y10824D1*
X24864Y11325D1*
G37*
G36*
X25003Y11464D2*
X25142Y11603D1*
X25643Y11102D1*
X25504Y10963D1*
X25003Y11464D1*
G37*
G36*
X25142Y11603D2*
X25281Y11743D1*
X25783Y11241D1*
X25643Y11102D1*
X25142Y11603D1*
G37*
G36*
X25281Y11743D2*
X25421Y11882D1*
X25922Y11381D1*
X25783Y11241D1*
X25281Y11743D1*
G37*
G36*
X25421Y11882D2*
X25560Y12021D1*
X26061Y11520D1*
X25922Y11381D1*
X25421Y11882D1*
G37*
G36*
X25560Y12021D2*
X25699Y12160D1*
X26200Y11659D1*
X26061Y11520D1*
X25560Y12021D1*
G37*
G36*
X25699Y12160D2*
X25838Y12299D1*
X26339Y11798D1*
X26200Y11659D1*
X25699Y12160D1*
G37*
G36*
X25838Y12299D2*
X25977Y12439D1*
X26479Y11937D1*
X26339Y11798D1*
X25838Y12299D1*
G37*
G36*
X25977Y12439D2*
X26117Y12578D1*
X26618Y12077D1*
X26479Y11937D1*
X25977Y12439D1*
G37*
G36*
X26117Y12578D2*
X26256Y12717D1*
X26757Y12216D1*
X26618Y12077D1*
X26117Y12578D1*
G37*
G36*
X26256Y12717D2*
X26395Y12856D1*
X26896Y12355D1*
X26757Y12216D1*
X26256Y12717D1*
G37*
G36*
X26395Y12856D2*
X26534Y12995D1*
X27035Y12494D1*
X26896Y12355D1*
X26395Y12856D1*
G37*
G36*
X26534Y12995D2*
X26673Y13135D1*
X27175Y12633D1*
X27035Y12494D1*
X26534Y12995D1*
G37*
G36*
X26673Y13135D2*
X26813Y13274D1*
X27314Y12773D1*
X27175Y12633D1*
X26673Y13135D1*
G37*
G36*
X26813Y13274D2*
X26952Y13413D1*
X27453Y12912D1*
X27314Y12773D1*
X26813Y13274D1*
G37*
G36*
X26952Y13413D2*
X27091Y13552D1*
X27592Y13051D1*
X27453Y12912D1*
X26952Y13413D1*
G37*
G36*
X27091Y13552D2*
X27230Y13691D1*
X27731Y13190D1*
X27592Y13051D1*
X27091Y13552D1*
G37*
G36*
X27230Y13691D2*
X27369Y13830D1*
X27871Y13329D1*
X27731Y13190D1*
X27230Y13691D1*
G37*
G36*
X27369Y13830D2*
X27509Y13970D1*
X28010Y13469D1*
X27870Y13329D1*
X27369Y13830D1*
G37*
G36*
X27509Y13970D2*
X27648Y14109D1*
X28149Y13608D1*
X28010Y13469D1*
X27509Y13970D1*
G37*
D68*
X25984Y19882D3*
X26484D3*
X26984D3*
X27484D3*
Y22008D3*
X26984D3*
X26484D3*
X25984D3*
D73*
X13287Y18602D3*
Y19102D3*
Y19602D3*
Y20102D3*
X11161D3*
Y19602D3*
Y19102D3*
Y18602D3*
D66*
X12224Y19392D3*
D64*
X13189Y16535D3*
X12283D3*
X11378D3*
D62*
X12283Y14252D3*
D73*
X32874Y16929D3*
Y17429D3*
Y17929D3*
Y18429D3*
X30748D3*
Y17929D3*
Y17429D3*
Y16929D3*
X34843Y24705D3*
Y24205D3*
Y23705D3*
Y23205D3*
X36969D3*
Y23705D3*
Y24205D3*
Y24705D3*
X20391Y23235D3*
Y22735D3*
Y22235D3*
Y21735D3*
X22517D3*
Y22235D3*
Y22735D3*
Y23235D3*
X20391Y21110D3*
Y20610D3*
Y20110D3*
Y19610D3*
X22517D3*
Y20110D3*
Y20610D3*
Y21110D3*
D60*
X33079Y15548D3*
Y16548D3*
G36*
X28839Y16535D2*
X29331D1*
Y15551D1*
X28839D1*
Y16535D1*
G37*
M02*
